<mxfile host="app.diagrams.net" agent="Mozilla/5.0 (Windows NT 10.0; Win64; x64) AppleWebKit/537.36 (KHTML, like Gecko) Chrome/141.0.0.0 Safari/537.36" version="28.2.7">
  <diagram id="f106602c-feb2-e66a-4537-3a34d633f6aa" name="Page-1">
    <mxGraphModel grid="1" page="1" gridSize="10" guides="1" tooltips="1" connect="0" arrows="0" fold="1" pageScale="1" pageWidth="1169" pageHeight="827" background="none" math="0" shadow="0">
      <root>
        <mxCell id="0" />
        <mxCell id="1" parent="0" />
        <mxCell id="nudH7UYVRRYWOdIdDBR1-1076" value="&lt;b&gt;Google &lt;/b&gt;Cloud Platform" style="fillColor=#F6F6F6;strokeColor=none;shadow=0;gradientColor=none;fontSize=14;align=left;spacing=10;fontColor=#717171;9E9E9E;verticalAlign=top;spacingTop=-4;fontStyle=0;spacingLeft=40;html=1;" vertex="1" parent="1">
          <mxGeometry x="1510" y="560" width="2010" height="1286" as="geometry" />
        </mxCell>
        <mxCell id="nudH7UYVRRYWOdIdDBR1-1077" value="" style="rounded=0;whiteSpace=wrap;html=1;" vertex="1" parent="nudH7UYVRRYWOdIdDBR1-1076">
          <mxGeometry x="880" y="496" width="183.4523809523809" height="174" as="geometry" />
        </mxCell>
        <mxCell id="n67IAZwKEcJzkVw7j8ZL-2" value="" style="rounded=0;whiteSpace=wrap;html=1;" vertex="1" parent="nudH7UYVRRYWOdIdDBR1-1076">
          <mxGeometry x="880" y="220.24" width="210.26" height="205.38" as="geometry" />
        </mxCell>
        <mxCell id="nudH7UYVRRYWOdIdDBR1-1078" value="" style="rounded=0;whiteSpace=wrap;html=1;" vertex="1" parent="nudH7UYVRRYWOdIdDBR1-1076">
          <mxGeometry x="341.1890476190476" y="379" width="110.07142857142857" height="95" as="geometry" />
        </mxCell>
        <mxCell id="nudH7UYVRRYWOdIdDBR1-1079" value="" style="rounded=0;whiteSpace=wrap;html=1;" vertex="1" parent="nudH7UYVRRYWOdIdDBR1-1076">
          <mxGeometry x="341.1890476190476" y="259.5" width="110.07142857142857" height="95" as="geometry" />
        </mxCell>
        <mxCell id="nudH7UYVRRYWOdIdDBR1-1081" value="" style="rounded=0;whiteSpace=wrap;html=1;" vertex="1" parent="nudH7UYVRRYWOdIdDBR1-1076">
          <mxGeometry x="344.1242857142857" y="120" width="110.07142857142857" height="95" as="geometry" />
        </mxCell>
        <mxCell id="nudH7UYVRRYWOdIdDBR1-1082" value="" style="shape=mxgraph.gcp2.google_cloud_platform;fillColor=#F6F6F6;strokeColor=none;shadow=0;gradientColor=none;" vertex="1" parent="nudH7UYVRRYWOdIdDBR1-1076">
          <mxGeometry width="23" height="20" relative="1" as="geometry">
            <mxPoint x="20" y="10" as="offset" />
          </mxGeometry>
        </mxCell>
        <mxCell id="nudH7UYVRRYWOdIdDBR1-1083" value="" style="shape=mxgraph.gcp2.doubleRect;strokeColor=#dddddd;shadow=1;strokeWidth=1;rounded=1;absoluteArcSize=1;arcSize=2;" vertex="1" parent="nudH7UYVRRYWOdIdDBR1-1076">
          <mxGeometry x="50" y="50" width="520" height="50" as="geometry" />
        </mxCell>
        <mxCell id="nudH7UYVRRYWOdIdDBR1-1084" value="&lt;font color=&quot;#000000&quot;&gt;Instances&lt;/font&gt;&lt;br&gt;Compute Engine" style="editableCssRules=.*;html=1;fontColor=#999999;shape=image;verticalLabelPosition=middle;verticalAlign=middle;labelPosition=right;align=left;spacingLeft=20;part=1;points=[];imageAspect=0;image=data:image/svg+xml,PHN2ZyB4bWxucz0iaHR0cDovL3d3dy53My5vcmcvMjAwMC9zdmciIHhtbG5zOnY9Imh0dHBzOi8vdmVjdGEuaW8vbmFubyIgd2lkdGg9IjIwIiBoZWlnaHQ9IjIwIiB2aWV3Qm94PSIwIDAgMjAgMjAiPiYjeGE7CTxzdHlsZSB0eXBlPSJ0ZXh0L2NzcyI+JiN4YTsJLnN0MHtmaWxsOiM0Mjg1ZjQ7fSYjeGE7CS5zdDF7ZmlsbDojNjY5ZGY2O30mI3hhOwkuc3Qye2ZpbGw6I2FlY2JmYTt9JiN4YTsJPC9zdHlsZT4mI3hhOwk8cGF0aCBjbGFzcz0ic3QyIiBkPSJNNyA3aDZ2Nkg3eiIvPiYjeGE7CTxwYXRoIGNsYXNzPSJzdDEiIGQ9Ik05IDBoMnY0SDl6TTUgMGgydjRINXptOCAwaDJ2NGgtMnoiLz4mI3hhOwk8cGF0aCBjbGFzcz0ic3QwIiBkPSJNOSAxNmgydjRIOXptLTQgMGgydjRINXptOCAwaDJ2NGgtMnptMy01VjloNHYyem0wIDR2LTJoNHYyem0wLThWNWg0djJ6Ii8+JiN4YTsJPHBhdGggY2xhc3M9InN0MSIgZD0iTTAgMTFWOWg0djJ6bTAgNHYtMmg0djJ6bTAtOFY1aDR2MnoiLz4mI3hhOwk8cGF0aCBjbGFzcz0ic3QyIiBkPSJNMyAzdjE0aDE0VjN6bTEyIDEySDVWNWgxMHoiLz4mI3hhOwk8cGF0aCBjbGFzcz0ic3QxIiBkPSJNMTAgMTBsLTMgM2g2eiIvPiYjeGE7CTxwYXRoIGNsYXNzPSJzdDAiIGQ9Ik0xMyA3bC0zIDMgMyAzeiIvPiYjeGE7PC9zdmc+;" vertex="1" parent="nudH7UYVRRYWOdIdDBR1-1083">
          <mxGeometry width="30" height="30" relative="1" as="geometry">
            <mxPoint x="15" y="15" as="offset" />
          </mxGeometry>
        </mxCell>
        <mxCell id="nudH7UYVRRYWOdIdDBR1-1085" value="Entrenamiento de modelo Machine Learning." style="fillColor=#4DA1F5;strokeColor=none;shadow=1;gradientColor=none;fontSize=14;align=left;spacingLeft=50;fontColor=#ffffff;html=1;" vertex="1" parent="nudH7UYVRRYWOdIdDBR1-1076">
          <mxGeometry x="643.6554494382021" width="574.2857142857143" height="40" as="geometry" />
        </mxCell>
        <mxCell id="nudH7UYVRRYWOdIdDBR1-1086" value="" style="shape=image;verticalLabelPosition=bottom;labelBackgroundColor=default;verticalAlign=top;aspect=fixed;imageAspect=0;image=data:image/png,iVBORw0KGgoAAAANSUhEUgAAAKAAAACUCAMAAAAj+tKkAAAAtFBMVEX29vbjbS11c3T////5+fkvOD/8/PwhLDS9v8HjaykoMjksNj3FxsjY2do2P0X3+vvR0tPiaCK1t7gOHidZX2QABBfiZRuipKc7REqoqq0aJi/i4+RhZmxwbm9oZmfw8PEAAAD36+bhdz7hXwTjf0vjhFPy0sOVmJsADRtOVFmChokAAA9DS1F0eHzli17npobtwavpoX303dHcbzAAFiLqr5Ljj2brt5+Pjo/tyLbml3LgVgC5WB5bAAAODklEQVR4nO1caXuyOhPGJgQBbYpYrKCliEtL64Zb9fz///VO2AygFhR7el3nnQ/P0xYyuZlkNpiJIPw24W7/gad+nfw6hkuEmw9p6nv2v40pRVkBPjy8Nv6UCG0vC7D/jf5tUDzZWXyA8C8BxNZrDuAr/rdR8WTnAf4pCQp2Ht/DnwIoTHJa3CoPEBOg++wM3MhpcbP0TESodyZd6y6Sx1k705+U51F/6AO9ftsFH41SirFgOzHZtoAx/O3kzaSZAtj3rLICJPVI0QohpJQIjr/fzZfb0XDAaDiabZebxd53AOSJEajeP0LsPzTL+hFsHUe3fgAIonP289FwpRmGoWlyRBr8qsmD4XazB4w5kPipH4mg/+qVxpd2lpf8OMWOvxm6rgGQaicIgBquO9sxSaZHEtL6nsIs0+8GKq+KNmcHXs8qGMhlPB+CoE5B40lzjdnGz0EUrKfGkyVcEybY3xzAp9McYGU3o5pxUnAnMBqr2ULI6AxmdAW8DMCTEqSCvzTcguii1XZreTFeST/tQUrHy5pRAl2E0R3M/ZNaXRrgMeTtd3MCxNQ/gLqWxscgavLcOWMcSxGK7WA/bwepM9fKSy8hY7VzKhAirvdfwZHk7TQli2FRzTgjRWM2riDAJ3Z98t1tZrWMOrPb4DHStLlQgRAJQlkTSoXF6obVPZI7Gt8jUKLkcJ1u5Emr7VA1FofH548qEV9AsnuoQldS+ParH51aGTJGfqUI6UKrFB8s86BChFTYlHJsxRBq+6oQUmFeFF8YDha8V1tUhXB+aXlZeKoZLGCFGFWurVZBHBiQxkLY+yPEc/fsDIZRG4y2y/luP/YdR2ChKPMTkJb4Y8gCDtvRIAiuz42vYpXJ7iQ+GYLl1XazAGACoSEl5pcmfwCgi/lMdt2TIGV5fDNCusuzhkWtDZYLn8U2PwRQ4Q22v9iu5BNBkLy6FSHdZ7nKhjECcBiVie0oRY6/2w6MrC+/1dpQpyan0bmr5fhMOnmZ2Bh/f9Ayi62NyA0IqTPkFVgzBofx2YS8EEiMF7NVCqKxvB6fICw5/2sYs51zy+OGRAnkqnwyeIOxoftky8Dabn2nkpSC5dP7gZtAlAfXBg7UifHJ2mrp3y48jjUZb+UYojG6ds8cIhaGNq8UHiOK94fYgbq7q5iDhQnF5478KoL0HH9hvAohylfZGuoMtGDzjcbVh7/RFHg3CLTQOFwzOnDBmrapOvZNTeIfgn1ulHco1AdrJRuDqt5XnJtG2LNQWB6Uz0VBQ2R5c4/NlybqbGGZjbJ6QsfMue+vfP9Ubipn58ryyCk51cGoOq85T3QBXrScP6G+6y7vqR3Z6UbuwCk14vDP4f7bj5vPGfxTJroGJzcXfvULH3VmwzIAN8vfUI/UlM6ohC105r+3/2Kizqa4TJzfXd+QqFNKTf6T9Kc+rOeIELv5t+pP0oTrk6nY+MMyRKYkmX8aoKSK0v8BZqjM58CzAC8wSV3AiPvwwD5C8CFu9hoOf7AtyybHwgaCst8uYj7s/wAgu4PnjJHAmKQmw9EtmNjWUe2x3QWKqgdwC35+Ok4VXIu+e+JGt9uB+whueb12uzdtJdzrHbiN/zhFgE+nxWoM4IIkiorHGB05Y9ScAI92z2scIWIb2DSIgCzgP0244SZomRJ9HcYfuvTeOQ4RFEnSo+IW0nmXnusE101TUoAk87EeLgWpAwu9e5QobsK4dQcJaKpLgA8QSkDvk+gWYvX0gIci6V/Jd19svUn6FOEO8Jc+OICKqD7GANuKqPMAH1VRaYW/k64uAtiJrqqmbrJplehZsP2hiNKUEyBITX0EaaMp4GAAVQCj6hFAXFckUQGIpg6rr8Rljtj+FCUPddYq3N++EmCjo6tr1et0ps8msDG7wTU0MUX1hfsEPpVEqQdokKc8frH5Hl8ApRQCJA0Avf5oNa1mVzFBuFY8IQPYFFVVf357OYIoDLClg5gkRWwFGx5PYPOrUrCtsL0WuXHYelHF94AlipTkKRiDwqtrVVU7iIASIwyPorxET4beRKUPM3y0LNsqL0EMAGFBvp6idUJdQCW1g98QmyfZNuxRlJeYSdbMkD6It5MsK9sd0QwAUHx8MT0b8QaoOMC6zvbdsTCWeLDKn0H1C27Atfe4EAb1gMskDnwzAGGB4VmS8jBUf0+2L/pk+6CdsY7lAEpTTletD5Xt6kAQPUk0o2tss6uPyY7MStCTxDVXu0oUVf0KFxQ9A0DdOl67AiDPGkQIyvoR/tiBH19CU4hAm6R+clcaIDyVoj5y87MVj2IJBpAbeBXAd34oakmx8mJLZHeGWtBj2yqRdAZgE3bgFB+JfJtgvUgM0OxkBFgOoPrIDydNKRnK1CTcS6T5oqriMYhOAyT1NUi9xxFofDRlADBX/F0KoPLCD8cWM8IhR/L0HNrmwEqHO/MUQNSBdVAljlSRB6jkSqtvAWgfAQr4C4Yyu22DLNdcZVsGINh0QJgmvXsngIEEI44YVEP5QgE/qc3dlQcoTRtpqltCYYCgUpOiAElqKGw98bmJA4/I1y3ll9j0SIZwYYC9NEBbzCiJlAoWWUzwFTslDEbH/EYIzMhX8yxAZtJTAub5/QyQBLrI+WnYwSkz88xHfQyS0ovvJo3A3bGQZJp6jIyZgWfWTxegFpEgGCVVTG5BLSUDMBX1MU+id5I/EDAvj00wI3rKVCAwOmY9QcR8DjeoJEDm5sX3BkoQZAGq4tETBb54zRk8Fu50p4oqpqZHTL2PJbHMConmyfrVIhJkO11p26Fpg7Auu8SwfHb0K8Mj6t+8RMFifLyIcVwaT9tLbxs7mKLJZTTxtQIAg1AT9pWFCEHNnmSCCNMShGCcXQSmExCV8sWXQgcbRFWldHk0xOAgsgbjGHrcOsPx2CIBG/i3Ee+IIgBJE3aMKH32PO/rXTG/g1XjtPhrairv7U6r65kstnlMVbqShsgGe9kJ2DqsexOvFwUtHRbqrqVpt9XqTvrmWxtdAkieUhJE3XeVrSQkLuJ6KsCWj4PLwA5+WW2ArOs6y0lMsZFaTGy3lVTEGJI9NQOOphnnhy02XGVsILkBmQtHOyidBsjlE7grSizjgn86GDU+JX3CG2pke1KY1EnSNBu6IWZ32lkbgoU+SxwVaR2nnZDVKQkXRelFI9Abe4uTA9hgMRO3bZDdmbY/elPWcoAtlqpiDiBhKW1wfdLMl2r3Qez5FgzQJw/ClunEOv7F6njTHiTX3qRuxXxw55ihc0/d4t1BOFqAnF8IhuHjK4PE1YGCWJYloJylIA1YLvOUASHEtiOOySTYZu8PMOKaQ3IvKII/TpKwmBt+4q0J74tPvlXBAnhy/VwPy+mXM6fvTVPg3Qo0kOSDhQwxeyK1q36XSpoQsKxbF+aN6SeAbK8kGWRVhAlzjYpURNSXARLcMcEze5X28mBi1dumKEYB7Q0AQbU99p7lq2gnTzF81vRLgWXRpz/fexkgcHph6yueaaG4GuALGH5J8oopU+DqzgF8A/dj8hFARQD19XraKvg2F7fenj9PWjlQkA9F0r2sY7mVsOV5rUxrjLM/j9a2mH0+SaTz2W5c/5l0ceZbHc4bbry88IH+wltv28o7loKEhUtzZon611WX3vCRGW9qZT520lF1NcSF5sPLfzZlJqR719393tdJ6ixdueQ39FFFfR9FiNX2GPNy4mDFtcbwVwoDMPZlrXwBnDPTasbggrmpiqjACqG1eVlZ0IVRq2nyvOrCxtw8zjaoYiu/WGTGqtKMwfie5W/UWQSVou6uvHsM6vNYafL9SlQo8bdBDaY2uqbgA8+NsP53uKum+jdLVJhHbT7XuQXqjOIi1tW+cilS6uziwnljeZ2DpOO4D0IzZvtKjSKDl7QQyrWrC6nnSSG6po0WQlUrzZp/B9qxhvyGrpLZsaRdc1cbvwKMrHN6yXdFaJsbmPl8M4RsrJYL57aaZUqc3VbjmzZAg29ph9in2q1Yp8tyLFwpRxjlLLa1dN+LrN2mf2iT6UeUDbe23LO+g3I1p6xjH2SXbR2Sazc3DR1yHZOyYQxm87FDCjXlsKYhhP3FcrY60X1l7G719lTYnujpZK1q2uqwG7OaP3YoRa4JBodtV+z4ivFmVgt72vKPWipKPYPQmZ3pOmWNYdpwG/Sssaa14AQTGn2ScRzfHy9289nAcM/2rRnzKjJA6gzP98UGTX6avArOzzgAzZfwz3Y2Gw0Hq5p2WnAJvmU1QTv4vJ86d6MDNBIq0kIpg4erKNwMy+0rJrlskH8ZYV6Xb8XnbqpMyiiaV9U/HpJWW1R83A7eFW3LLULG8PamzhxCv5ozAmpBG9I9onTIrqtZZq22uU+eQ4X9FYeQZEl2h/7dklnQ5lub8UF8d+3iIvvRLadpaNr23m0+kExo10KE1R1X+74neFWZLUOjznxwjbZo2nBRrXJg3Kx3O53Wk52OOVjOM/z5NKY0GQY79qhKeAKyJsEBZv0HL3v4VNiAW3ilZdl1R+OqdQO3XpOzj14n+aN7kL8ZymcjPQ6dZtRGt+Zap/DV+YMM+17es7NDyzYz7aIgWU/8dlexZoT4nrJH3J2IfSkoDDugIDlW7bim4fFqxmC5d+x7uA1sP2ROCeyfOYsUcg/ijHfL7QxC6DBoleXBYDg7zBdjp9RZB2WI1LMnVfYn5z8BQ3JEcJCERMRSlCBrug86BtB7yNFPxwTSFN0NWkA4f5Lmw+tf6lbBzfxprq8Vf0W/if4+QCuH7+H1b53KfALg0x/agwLq5A5L/VunRuePFP7xvM5fJpwV4bTSSo4S9D9BXFElFj5qTQAAAABJRU5ErkJggg==;" vertex="1" parent="nudH7UYVRRYWOdIdDBR1-1076">
          <mxGeometry x="10.002307692307696" y="360.62" width="108.1" height="100" as="geometry" />
        </mxCell>
        <mxCell id="nudH7UYVRRYWOdIdDBR1-1090" value="&lt;font style=&quot;font-size: 14px;&quot;&gt;Máquina virtual con redundancia&lt;/font&gt;" style="text;html=1;whiteSpace=wrap;strokeColor=none;fillColor=none;align=center;verticalAlign=middle;rounded=0;" vertex="1" parent="nudH7UYVRRYWOdIdDBR1-1076">
          <mxGeometry x="590" y="60" width="180" height="30" as="geometry" />
        </mxCell>
        <mxCell id="nudH7UYVRRYWOdIdDBR1-1097" value="&lt;font style=&quot;font-size: 14px;&quot;&gt;Métricas&lt;/font&gt;" style="text;html=1;whiteSpace=wrap;strokeColor=none;fillColor=none;align=center;verticalAlign=middle;rounded=0;" vertex="1" parent="nudH7UYVRRYWOdIdDBR1-1076">
          <mxGeometry x="470.19571428571425" y="395.62" width="47.857142857142854" height="30" as="geometry" />
        </mxCell>
        <mxCell id="nudH7UYVRRYWOdIdDBR1-1100" value="&lt;font style=&quot;font-size: 18px;&quot;&gt;Modelo H5&lt;/font&gt;" style="text;html=1;whiteSpace=wrap;strokeColor=none;fillColor=none;align=center;verticalAlign=middle;rounded=0;" vertex="1" parent="nudH7UYVRRYWOdIdDBR1-1076">
          <mxGeometry x="936.33" y="360.62" width="97.62" height="50" as="geometry" />
        </mxCell>
        <mxCell id="n67IAZwKEcJzkVw7j8ZL-16" style="edgeStyle=orthogonalEdgeStyle;rounded=0;html=1;labelBackgroundColor=none;startFill=1;startSize=4;endArrow=none;endFill=0;endSize=4;jettySize=auto;orthogonalLoop=1;strokeColor=#4284F3;strokeWidth=2;fontSize=12;fontColor=#000000;align=left;dashed=0;exitX=0.023;exitY=0.812;exitDx=0;exitDy=0;exitPerimeter=0;" edge="1" parent="nudH7UYVRRYWOdIdDBR1-1076" source="nudH7UYVRRYWOdIdDBR1-1098">
          <mxGeometry relative="1" as="geometry">
            <Array as="points">
              <mxPoint x="600" y="633" />
              <mxPoint x="600" y="410" />
              <mxPoint x="760" y="410" />
            </Array>
            <mxPoint x="560" y="755.6199999999999" as="sourcePoint" />
            <mxPoint x="760" y="580" as="targetPoint" />
          </mxGeometry>
        </mxCell>
        <mxCell id="n67IAZwKEcJzkVw7j8ZL-11" style="edgeStyle=orthogonalEdgeStyle;rounded=0;html=1;labelBackgroundColor=none;startFill=1;startSize=4;endArrow=none;endFill=0;endSize=4;jettySize=auto;orthogonalLoop=1;strokeColor=#4284F3;strokeWidth=2;fontSize=12;fontColor=#000000;align=left;dashed=0;" edge="1" parent="nudH7UYVRRYWOdIdDBR1-1076">
          <mxGeometry relative="1" as="geometry">
            <Array as="points">
              <mxPoint x="600" y="426" />
              <mxPoint x="600" y="410" />
              <mxPoint x="760" y="410" />
            </Array>
            <mxPoint x="451.5899999999999" y="425.62" as="sourcePoint" />
            <mxPoint x="760" y="480" as="targetPoint" />
          </mxGeometry>
        </mxCell>
        <mxCell id="n67IAZwKEcJzkVw7j8ZL-4" style="edgeStyle=orthogonalEdgeStyle;rounded=0;html=1;labelBackgroundColor=none;startFill=1;startSize=4;endArrow=none;endFill=0;endSize=4;jettySize=auto;orthogonalLoop=1;strokeColor=#4284F3;strokeWidth=2;fontSize=12;fontColor=#000000;align=left;dashed=0;" edge="1" parent="nudH7UYVRRYWOdIdDBR1-1076">
          <mxGeometry relative="1" as="geometry">
            <Array as="points">
              <mxPoint x="600" y="310" />
              <mxPoint x="600" y="410" />
              <mxPoint x="760" y="410" />
            </Array>
            <mxPoint x="454.20000000000005" y="310" as="sourcePoint" />
            <mxPoint x="760" y="480" as="targetPoint" />
          </mxGeometry>
        </mxCell>
        <mxCell id="nudH7UYVRRYWOdIdDBR1-1089" style="edgeStyle=orthogonalEdgeStyle;rounded=0;html=1;labelBackgroundColor=none;startFill=1;startSize=4;endArrow=none;endFill=0;endSize=4;jettySize=auto;orthogonalLoop=1;strokeColor=#4284F3;strokeWidth=2;fontSize=12;fontColor=#000000;align=left;dashed=0;curved=0;" edge="1" parent="nudH7UYVRRYWOdIdDBR1-1076">
          <mxGeometry relative="1" as="geometry">
            <Array as="points">
              <mxPoint x="600" y="175" />
              <mxPoint x="600" y="410" />
              <mxPoint x="760" y="410" />
            </Array>
            <mxPoint x="454.1957142857143" y="175" as="sourcePoint" />
            <mxPoint x="760" y="350" as="targetPoint" />
          </mxGeometry>
        </mxCell>
        <mxCell id="n67IAZwKEcJzkVw7j8ZL-8" value="" style="endArrow=classic;startArrow=classic;html=1;rounded=0;strokeWidth=2;fillColor=#dae8fc;strokeColor=#4284F3;" edge="1" parent="nudH7UYVRRYWOdIdDBR1-1076">
          <mxGeometry width="50" height="50" relative="1" as="geometry">
            <mxPoint x="870" y="610" as="sourcePoint" />
            <mxPoint x="880" y="340" as="targetPoint" />
            <Array as="points">
              <mxPoint x="760" y="610" />
              <mxPoint x="760" y="480" />
              <mxPoint x="760" y="340" />
            </Array>
          </mxGeometry>
        </mxCell>
        <mxCell id="nudH7UYVRRYWOdIdDBR1-1087" value="" style="shape=image;verticalLabelPosition=bottom;labelBackgroundColor=default;verticalAlign=top;aspect=fixed;imageAspect=0;image=data:image/png,iVBORw0KGgoAAAANSUhEUgAAAU8AAACWCAMAAABpVfqTAAAAllBMVEX///9Nd89Nq89Gc87u8vpEcc1Ab81FqM1Kdc7T3fOasePz+vzo7PiczuRot9VQe9G2xenZ4fTF0e+Ko95eg9OlueXi6PbM1vB4ltl+m9w8pczF4++TyN/x9PvB4O2FoN3f7/ZZsNKn0+az2el9wNvS6fJWftFkiNXn8/igteRwutfG0u+6yetvkNeLxt58wNs0acySquAGKo4mAAALl0lEQVR4nO2da0OiTBTHQRxmFMu0TNNIrcQybev7f7kF5n4BAS9t6/m/eJ6Uy8CPM3MuM7ieBwKBQCAQCAQCgUAgEAgEAoFAIBAIBAKBQCBQQ71FP30F/5PePvHy5acv4r/R4nOKW61pC4geQ4vPVkozU2qj0OsPlKSZE70Goodo8YkVmpmmQLSx3iyaOVHwTI20eJ06aOZEW2CjdbXYuGxTjKPgmWoqulqW8rwCnjX19lxEFLce33766n6jomdXn8fTV6DZUNFzC1s0Fz99Vb9Hq43paCKt12P8Z6VvfoF4tFCr19QarRRIGUfxZqZtip6uMQZf79bqlY2WaQqkb3mjvR4vn3Rwsw09ALJQWys1erdSoOgKW+Wl1UYeAdU8XSobStSkFxm2aR4BOZPUypULlQ6LYmyoesAFafWnILMsHBb1Gh4QVVVIk3qmJ/uIt0c3zdJHcCGyxk2Tz3Rp5kKr6bT0iEu20dVyD87Wsw3Hzpl0m8bPP3An/4pmm2Jrw62CIlJ0VUgULx1P4KKUpjgFNEuKSG/ual5KE0olkYsoxp8LfS8900yJWjaajg5AM9fTUu/1ePpnoe/xbPv6t0ctMsD4okvMnZ72cXatJI9mSS56yclNlwbRNAvF0jYvmabnffvvbe2LGUuSMDZsM3qR9SXTRplnsr3Q4tLwdhFKRjrRpw1OaW70Aqfhr1KiRjXvajm1vFAa8l9fGs/AJ2EyirUvn66vDbdjx1PTjTmOvtg0Mb5Anr5PUH9UtpMzfcJTE7omtgjiInmmRENyExfsUpyMWp5JiC7Fu1yemY0mN64dSgsltmfKpRSeLpZnZqM20MVraZKeh6gmMa2MZ/EcZ+q0PYc6Y6qijnKAorGhQe8ErXgaT5/0rc2zstUhLVdmaSzFM3m2v8JM/Q/7UtpJvin86hzx/ph6tFlFQTLpdo7feVSefri1dzBzJo0mNsPLN3PxmMUT0UdHBlZL7TtCr+IUPJFvipAgDWyOTVTjSdau06s5k0bTkQs9mfALePoksbr8mXlSpxE4TOgQaTz9cOjcaeaYWHJX5GbmfkU8/WBnHvsDPDOn0T1qQzpPYt0k09MGmzSdNaTqPH30bRz7IzxToO/HbEjn6aNx0Y4zJd+0bXPFwqZZ1f7u6Azn4UmCTIQofd7dKZvJ4FlooF7umbDbC61ep4/0rzo8SaD7pLPwJA/ft6kmfihunNwdMXQyePpBoYF61DOlXsj4Nsuf8BXbo3p/t3zSWXiKZziYh6JTOhOZZjJ5kom2eWDc2+yPZZu5r2rE0w+0xs7L0/NGHChZH68hk6cfap1wGM7tQFERz0YFzxr93Td80rl5eg9sECXoeB3e4hncqpuHIQqKicoFOg15aj7pEJ6xkT7GvbbWsJPnmH+JjvcELZ5+qM6ADMPUbYTze9eh2sK6Rv09Mw15ap3naH5LJTY/0M9zOsLTD3k0Pp730wTyjpcc45tJ9jnYvctzO3nGgufQ67LW3rXnstWarCKbp9YHh/kYE4QPlo3qWVNT+0ydq/BJOs+HMKCRjUDyRb9gVRs///A19HrrMMgOJKGfW0I3RHk0RAgK55yOk6cXsA6Ptt4NP7sa4Izol6ivT7LV40l85eghG7MDohOdGXPLtXmKABA9FPBkhVlRo+mxS2HeuJ/vHNx2+jLwSeOFeIdkaOkjHgrt5ckb95HcIVoT28Jq8/SRkoENhQ8MiBxHn6z8s4inNd/B6yFJQszmmvAk/b6K7zua6PbPI4g9/f3D897Zh0DCG4Ts1p3DXWWeJJEGKnhmQx1/dM92faSAJ8aPRnuc593Q5941GDbn6SuJTrbz3ApXtsU8pT9Kv+wxY1UGIMYmePCqy8HTR3IySeEpu8KVYzLJxdNeDiF59tvDL06BecBGPPMHHYZIpRuIz6Jk5uTJ4ROUfbpln0T6GbPuHjpqtbV4kr5wcgfwtJbqaDxJz3sXY0kSN+dJwvXNeDwiCt75sLPdcYA0nnbx3Ir280FhwJ6vSLk7rLvf1cDp5OkHwkAr8zTzdzdNhWc6JomxLpg35kl8eq0DX4zHtIffspPTziZ58rGwJx8Bs8gdt3G2CztDvWzUyVPeREP7xK2it+dUnu21uKNRU570UXiyu/IvOEGan8h6yPco1Xt3kihDAu2OQ34EfUIxvZyayZOTp5z4aGSfGL+unI0ZPL2O6LTBR1Oe3B1vkX7pPNihnVnW6wKUS/FjYsBk7ZMk//SBlOdxIE8xZjTgiafmUp1CnsoQlga9zXjy2+XOWmSrEzdPS7JAP9JOQb2Va6KrPk/xlOvznBbbps1T8Ul96U/PyZOEMt5sJ8o5Y2rBZQXhfTz7SjO7qBlP0zZXRfObbNCf8PaDebw7O0+C+qq36bKL82MxmqI6wZLOM+gmyqAyrseT+SOD3uy6cL6Y8RR5XuqTzsuTEBL2v7XU556NqlmJgLbPfVUTnmh0o0xGTOrxNPOgnObGXl9n8vQ6Ik/i/eO0PJk/Sj1SMrkx6xwswk+Pian7R6Xr5Pbx9EQQl3rczoE8Z3k5by9P70Zt4uQ8abw0Gm3HA8d0Nw/hSY96SuI7FwZV5qkYKK0kVOSJp+Z7xbyct5+n1zWAnpRnUO6u2ZCDRrR2X6eyxG5G4xmvFQPNWq7EE7c+jcl4uQCiAk/pk36eJwvgSELHnrBGZYlK56kZaJZoVOCZ0lzo51TfU67CM1Zrbj/Lk4947L81gyXP4qkYaD7xsZeng6a2YLQKT6+jVd3UcDptlO90Hp4jta80WOlg8FQBZqncHp54atumXhytxFP3SZQIvzDR5c7DsyddcvpXVYpSJk8+ImenQ71ynhhbryLOzFJzNZ6aTwq1yIID64gJiZPyFHUVv0Gw5Dl4juWdoW4ZT+eLnVXnj0yekeKTKJF7bijodtDudW5lde20PAeiIVJjGk7I4qkaaBJ/FPHEyyvXArumPEXuLImI60D+XYICsfnEPLkjzB7kfnyWbJ5jpHwzdvO0bXNB/9eYpzcIOTFGRNSessxQvYoT8+QmxDKamrJ5ejs5AbtW4ieF59S0zdnyk/3RmKdcTsSJGGFpwAvuJ+YZ7dQD68rBc6DMxaw1y2DXYtaMsoWMNdcrOnh63waROFHX4oXzj+AsPHnIVLBWe48cPL25UhZRLQQ5ryV/sbM6z5DkcsxpRxO6TRBp70JWhCTIH3kRPTLkPHOJQW7MTix5IrpDHpP32FbivgdVLARvuCrUxXOgjVelPCO2ELwyz7h/lytxZHJxd51t6stmbnb9fDJ43c1c7TDfnNBS95qdh2fY44R+IY6e0893+ex5j229S/byZON2k2DJc/NUY7BynmKhSGWeXpvJeTWxtel+vN1+DGJ1c6SdR1iReeJY26Fd2q4iPnyGdStLVE6ePbOE5uY5uxb0qvP818Xq8mLetKacPHnhv5Sn9qLX/8OTrwGrNw0n1EUunu3QNYKqS8+e9BcR/xueLIhovAR8K+f11RHYaaCCp/1TOP8NT26ejV+b63V9ZPNs9x0GKuJP+4eFinj+tt9nEGuWDlhR35vTd3G0COHdYaB11i9RFf/gwD8qlryjw15CvM+JajzjO9tA6/J0/izjP63BF436/QaVJf1EDyHRI1hr2rEuT/dPN/zbmtOcKjnCS8fj3Zf2Ymi8tgy01npF8weFfoXavVzHeR1pqy90tA20Os/fSfPESkwDrcrz13mh82hoGmglnvj3eaFzyXTxlXhuyn7k6rI1DGrzXIFtlmhH6vIElWmMgOdRdYuq8vz82Qv9JWonrvk4i6f1zyGBCjRQZ+QKeGLzn0MCFWuwlu8/O3kCzZoaIVTMM43eoafXVHseEjdPPIVxs4nGtNMbPMteKwSVKn73A4Mn+PSDdP+AiMLT/j11UE0N/S+xvq70lVdQRb0zno/Q048qKL2DQCAQCAQCgUAgEAgEAoFAIBAIBAKBQCAQ6IL1F0ng+ONYwStYAAAAAElFTkSuQmCC;" vertex="1" parent="nudH7UYVRRYWOdIdDBR1-1076">
          <mxGeometry x="352.77" y="129.62" width="90.18" height="40.38" as="geometry" />
        </mxCell>
        <mxCell id="nudH7UYVRRYWOdIdDBR1-1088" value="" style="shape=image;verticalLabelPosition=bottom;labelBackgroundColor=default;verticalAlign=top;aspect=fixed;imageAspect=0;image=data:image/png,iVBORw0KGgoAAAANSUhEUgAACgAAAAQMCAYAAABaqcD+AAAABGdBTUEAALGPC/xhBQAAACBjSFJNAAB6JgAAgIQAAPoAAACA6AAAdTAAAOpgAAA6mAAAF3CculE8AAAABmJLR0QA/wD/AP+gvaeTAAAAB3RJTUUH6AcPFxsH8rsUxQAAgABJREFUeNrs3Xmc3VV9P/7X+Uzm3puEQDJ3AojUhVKtO661LhV3qRtk5ipoUdpa2tpa67eLflutscvva/120fbbRa3VqhVxErRi1Var4N4qrmhbV2zVCplJgACZO8s9vz8SFTRACMlk7szz+XjwAGaSmft5nc8995zP5/05JwEAAAAAAAAAAAAAAAAAAAAAAAAAAAAAAAAAAAAAAAAAAAAAAAAAAAAAAAAAAAAAAAAAAAAAAAAAAAAAAAAAAAAAAAAAAAAAAAAAAAAAAAAAAAAAAAAAAAAAAAAAAAAAAAAAAAAAAAAAAAAAAAAAAAAAAAAAAAAAAAAAAAAAAAAAAAAAAAAAAAAAAAAAAAAAAAAAAAAAAAAAAAAAAAAAAAAAAAAAAAAAAAAAAAAAAAAAAAAAAAAAAAAAAAAAAAAAAAAAAAAAAAAAAAAAAAAAAAAAAAAAAAAAAAAAAAAAAAAAAAAAAAAAAAAAAAAAAAAAAAAAAAAAAAAAAAAAAAAAAAAAAAAAAAAAAAAAAAAAAAAAAAAAAAAAAAAAAAAAAAAAAAAAAAAAAAAAAAAAAAAAAAAAAAAAAAAAAAAAAAAAAAAAAAAAAAAAAAAAAAAAAAAAAAAAAAAAAAAAAAAAAAAAAAAAAAAAAAAAAAAAAAAAAAAAAAAAAAAAAAAAAAAAAAAAAAAAAAAAAAAAAAAAAAAAAAAAAAAAAAAAAAAAAAAAAAAAAAAAAAAAAAAAAAAAAAAAAAAAAAAAAAAAAAAAAAAAAAAAAAAAAAAAAAAAAAAAAAAAAAAAAAAAAAAAAAAAAAAAAAAAAAAAAAAAAAAAAAAAAAAAAAAAAAAAAAAAAAAAAAAAAAAAAAAAAAAAAAAAAAAAAAAAAAAAAAAAAAAAAAAAAAAAAAAAAAAAAAAAAAAAAAAAAAAAAAAAAAAAAAAAAAAAAAAAAAAAAAAAAAAAAAAAAAAAAAAAAAAAAAAAAAAAAAAAAAAAAAAAAAAAAAAAAAAAAAAAAAAAAAAAAAAAAAAAAAAAAAAAAAAAAAAAAAAAAAAAAAAAAAAAAAAAAAAAAAAAAAAAAAAAAAAAAAAAAAAAAAAAAAAAAAAAAAAAAAAAAAAAAAAAAAAAAAAAAAAAAAAAAAAAAAAAAAAAAAAAAAAAAAAAAAAAAAAAAAAAAAAAAAAAAAAAAAAAAAAAAAAAAAAAAAAAAAAAAAAAAAAAAAAAAAAAAAAAAAAAAAAAAAAAAAAAAAAAAAAAAAAAAAAAAAAAAAAAAAAAAAAAAAAAAAAAAAAAAAAAAAAAAAAAAAAAAAAAAAAAAAAAAAAAAAAAAAAAAAAAAAAAAAAAAAAAAAAAAAAAAAAAAAAAAAAAAAAAAAAAAAAAAAAAAAAAAAAAAAAAAAAAAAAAAAAAAAAAAAAAAAAAAAAAAAAAAAAAAAAAAAAAAAAAAAAAAAAAAAAAAAAAAAAAAAAAAAAAAAAAAAAAAAAAAAAAAAAAAAAAAAAAAAAAAAAAAAAAAAAAAAAAAAAAAAAAAAAAAAAAAAAAAAAAAAAAAAAAAAAAAAAAAAAAAAAAAAAAAAAAAAAAAAAAAAAAAAAAAAAAAAAAAAAAAAAAAAAAAAAAAAAAAAAAAAAAAAAAAAAAAAAAAAAAAAAAAAAAAAAAAAAAAAAAAAAAAAAAAAAAAAAAAAAAAAAAAAAAAAAAAAAAAAAAAAAAAAAAAAAAAAAAAAAAAAAAAAAAAAAAAAAAAAAAAAAAAAAAAAAAAAAAAAAAAAAAAAAAAAAAAAAAAAAAAAAAAAAAAAAAAAAAAAAAAAAAAAAAAAAAAAAAAAAAAAAAAAAAAAAAAAAAAAAAAAAAAAAAAAAAAAAAAAAAAAAAAAAAAAAAAAAAAAAAAAAAAAAAAAAAAAAAAAAAAAAAAAAAAAAAAAAAAAAAAAAAAAAAAAAAAAAAAAAAAAAAAAAAAAAAAAAAAAAAAAAAAAAAAAAAAAAAAAAAAAAAAAAAAAAAAAAAAAAAAAAAAAAAAAAAAAAAAAAAAAAAAAAAAAAAAAAAAAAAAAAAAAAAAAAAAAAAAAAAAAAAAAAAAAAAAAAAAAAAAAAAAAAAAAAAAAAAAAAAAAAAAAAAAAAAAAAAAAAAAAAAAAAAAAAAAAAAAAAAAAAAAAAAAAAAAAAAAAAAAAAAAAAAAAAAAAAAAAAAAAAAAAAAAAAAAAAAAAAAAAAAAAAAAAAAAAAAAAAAAAAAAAAAAAAAAAAAAAAAAAAAAAAAAAAAAAAAAAAAAAAAAAAAAAAAAAAAAAAAAAAAAAAAAAAAAAAAAAAAAAAAAAAAAAAAAAAAAAAAAAAAAAAAAAAAAAAAAAAAAAAAAAAAAAAAAAAAAAAAAAAAAAAAAAAAAAAAAAAAAAAAAAAAAAAAAAAAAAAAAAAAAAAAAAAAAAAAAAAAAAAAAAAAAAAAAAAAAAAAAAAAAAAAAAAAAAAAAAAAAAAAAACSJEUEAHBojXUm31SSH5bEgQxE6t9Mz25/tSQAAAAAAAAA4JZbIwIAOLRKzT2T3E0SBxJW3i0EAAAAAAAAADg4jQgAAAAAAAAAAABg+CgABAAAAAAAAAAAgCGkABAAAAAAAAAAAACGkAJAAAAAAAAAAAAAGEIKAAEAAAAAAAAAAGAIKQAEAAAAAAAAAACAIaQAEAAAAAAAAAAAAIaQAkAAAAAAAAAAAAAYQgoAAQAAAAAAAAAAYAgpAAQAAAAAAAAAAIAhpAAQAAAAAAAAAAAAhpACQAAAAAAAAAAAABhCCgABAAAAAAAAAABgCCkABAAAAAAAAAAAgCGkABAAAAAAAAAAAACGkAJAAAAAAAAAAAAAGEIKAAEAAAAAAAAAAGAIKQAEAAAAAAAAAACAIaQAEAAAAAAAAAAAAIaQAkAAAAAAAAAAAAAYQgoAAQAAAAAAAAAAYAgpAAQAAAAAAAAAAIAhpAAQAAAAAAAAAAAAhpACQAAAAAAAAAAAABhCCgABAAAAAAAAAABgCCkABAAAAAAAAAAAgCGkABAAAAAAAAAAAACGkAJAAAAAAAAAAAAAGEIKAAEAAAAAAAAAAGAIKQAEAAAAAAAAAACAIaQAEAAAAAAAAAAAAIaQAkAAAAAAAAAAAAAYQgoAAQAAAAAAAAAAYAgpAAQAAAAAAAAAAIAhpAAQAAAAAAAAAAAAhpACQAAAAAAAAAAAABhCCgABAAAAAAAAAABgCCkABAAAAAAAAAAAgCG0RgSw/N0h53TmMqNg9wB8K7vnkosWJAEAAAAAAAAAwEqnABCGwO727k8m7btI4uaN1fbWnXN5iSQAAAAAAAAAAFjprCgGAAAAAAAAAAAAQ0gBIAAAAAAAAAAAAAwhBYAAAAAAAAAAAAAwhBQAAgAAAAAAAAAAwBBSAAgAAAAAAAAAAABDSAEgAAAAAAAAAAAADCEFgAAAAAAAAAAAADCEFAACAAAAAAAAAADAEFIACAAAAAAAAAAAAENIASAAAAAAAAAAAAAMIQWAAAAAAAAAAAAAMIQUAAIAAAAAAAAAAMAQUgAIAAAAAAAAAAAAQ0gBIAAAAAAAAAAAAAwhBYAAAAAAAAAAAAAwhBQAAgAAAAAAAAAAwBBSAAgAAAAAAAAAAABDSAEgAAAAAAAAAAAADCEFgAAAAAAAAAAAADCEFAACAAAAAAAAAADAEFIACAAAAAAAAAAAAENIASAAAAAAAAAAAAAMIQWAAAAAAAAAAAAAMIQUAAIAAAAAAAAAAMAQUgAIAAAAAAAAAAAAQ0gBIAAAAAAAAAAAAAwhBYAAAAAAAAAAAAAwhBQAAgAAAAAAAAAAwBBSAAgAAAAAAAAAAABDSAEgAAAAAAAAAAAADCEFgAAAAAAAAAAAADCEFAACAAAAAAAAAADAEFIACAAAAAAAAAAAAENIASAAAAAAAAAAAAAMIQWAAAAAAAAAAAAAMIQUAAIAAAAAAAAAAMAQUgAIAAAAAAAAAAAAQ0gBIAAAAAAAAAAAAAwhBYAAAAAAAAAAAAAwhBQAAgAAAAAAAAAAwBBSAAgAAAAAAAAAAABDSAEgAAAAAAAAAAAADCEFgAAAAAAAAAAAADCEFAACAAAAAAAAAADAEFIACAAAAAAAAAAAAENIASAAAAAAAAAAAAAMIQWAAAAAAAAAAAAAMIQUAAIAAAAAAAAAAMAQUgAIAAAAAAAAAAAAQ0gBIAAAAAAAAAAAAAwhBYAAAAAAAAAAAAAwhBQAAgAAAAAAAAAAwBBSAAgAAAAAAAAAAABDSAEgAAAAAAAAAAAADCEFgAAAAAAAAAAAADCEFAACAAAAAAAAAADAEFIACAAAAAAAAAAAAENIASAAAAAAAAAAAAAMIQWAAAAAAAAAAAAAMIQUAAIAAAAAAAAAAMAQUgAIAAAAAAAAAAAAQ0gBIAAAAAAAAAAAAAwhBYAAAAAAAAAAAAAwhBQAAgAAAAAAAAAAwBBSAAgAAAAAAAAAAABDSAEgAAAAAAAAAAAADCEFgAAAAAAAAAAAADCEFAACAAAAAAAAAADAEFIACAAAAAAAAAAAAENojQgAAAAAAACA5WS8PfE3tZQtq/X4a81bdva3/YIzAQCAm6MAEAAAAAAAAFhWBqWsLzWbVuvxl1rXOQsAADgQtgAGAAAAAAAAAACAIaQAEAAAAAAAAAAAAIaQAkAAAAAAAAAAAAAYQgoAAQAAAAAAAAAAYAgpAAQAAAAAAAAAAIAhpAAQAAAAAAAAAAAAhpACQAAAAAAAAAAAABhCCgABAAAAAAAAAABgCCkABAAAAAAAAAAAgCGkABAAAAAAAAAAAACGkAJAAAAAAAAAAAAAGEIKAAEAAAAAAAAAAGAIKQAEAAAAAAAAAACAIaQAEAAAAAAAAAAAAIaQAkAAAAAAAAAAAAAYQgoAAQAAAAAAAAAAYAgpAAQAAAAAAAAAAIAhpAAQAAAAAAAAAAAAhpACQAAAAAAAAAAAABhCCgABAAAAAAAAAABgCCkABAAAAAAAAAAAgCGkABAAAAAAAAAAAACGkAJAAAAAAAAAAAAAGEIKAAEAAAAAAAAAAGAIKQAEAAAAAAAAAACAIaQAEAAAAAAAAAAAAIaQAkAAAAAAAAAAAAAYQgoAAQAAAAAAAAAAYAgpAAQAAAAAAAAAAIAhpAAQAAAAAAAAAAAAhpACQAAAAAAAAAAAABhCCgABAAAAAAAAAABgCCkABAAAAAAAAAAAgCGkABAAAAAAAAAAAACGkAJAAAAAAAAAAAAAGEIKAAEAAAAAAAAAAGAIKQAEAAAAAAAAAACAIaQAEAAAAAAAAAAAAIaQAkAAAAAAAAAAAAAYQgoAAQAAAAAAAAAAYAgpAAQAAAAAAAAAAIAhpAAQAAAAAAAAAAAAhpACQAAAAAAAAAAAABhCCgABAAAAAAAAAABgCCkABAAAAAAAAAAAgCGkABAAAAAAAAAAAACGkAJAAAAAAAAAAAAAGEIKAAEAAAAAAAAAAGAIKQAEAAAAAAAAAACAIaQAEAAAAAAAAAAAAIaQAkAAAAAAAAAAAAAYQgoAAQAAAAAAAAAAYAgpAAQAAAAAAAAAAIAhpAAQAAAAAAAAAAAAhpACQAAAAAAAAAAAABhCCgABAAAAAAAAAABgCK0RwfAbb02eWUvtSuIADJqPz8xP/ZsgWA6OTm9sZO3iXSRxYHbtueDDUgAAAAAAAAAA+B4FgCtALXlhUu4miZtXRurvZT4KAFkWRlt5WAbNBZI4UKeOJhctyAEAAAAAAAAAYC9bAAMAAAAAAAAAAMAQUgAIAAAAAAAAAAAAQ0gBIAAAAAAAAAAAAAwhBYAAAAAAAAAAAAAwhBQAAgAAAAAAAAAAwBBSAAgAAAAAAAAAAABDSAEgAAAAAAAAAAAADCEFgAAAAAAAAAAAADCEFAACAAAAAAAAAADAEFIACAAAAAAAAAAAAENIASAAAAAAAAAAAAAMIQWAAAAAAAAAAAAAMIQUAAIAAAAAAAAAAMAQUgAIAAAAAAAAAAAAQ0gBIAAAAAAAAAAAAAwhBYAAAAAAAAAAAAAwhBQAAgAAAAAAAAAAwBBSAAgAAAAAAAAAAABDSAEgAAAAAAAAAAAADCEFgAAAAAAAAAAAADCEFAACAAAAAAAAAADAEFIACAAAAAAAAAAAAENIASAAAAAAAAAAAAAMIQWAAAAAAAAAAAAAMIQUAAIAAAAAAAAAAMAQUgAIAAAAAAAAAAAAQ2iNCGAI1Oa3azPYJIibNzJoPikFAIAbtzm9o9LO8YtNNjeDbB6UbC6DHJ+mbkit62vSKrWMliZHJUmt5ehS6tVJUgfZU0udTZKScmVqrqpNriiDOj0YaaabxWZmfm5w+dWZ2ilpGD53yDmdq9dePT5YqN2mWXNsU7O5ltpNzbrs7RNG9/YL9bvz05IsppSrkySDsjupCyl1T6nZkaZ+e3FQd4yOdnZcce2ddyRbB1IG2L/jcvb6hdZ1P1SacvxgUI5rmhxTa0ZS69FJRtLk6FqzJqkbkrK7lCzsG59dW5K5WtIvJTtLrbsWm2ZXWczOZs3irunrRq5IphYlDAf/3pxbO9sdWRgcO2ia8VIG4yXNukEdrC+1tJJS0tSNN/hLg1ydZLGUveOkmjrb1Do9aDKzpmbH4uz8jum8fbd0gUPphDxx3Z61nfGRhcXxQTNybFNrN01Zn72TuKNrzUhS1qSpG0oyWwfZU0oZpOSqvX3XYHdKrhk0dcdiHbm8M9u54vK84VrJAgfq6PTGRloLJzRNc3wZlOMGpR5bSjkugxxbmhxVa9mUWjekZEOSo/b9O6lZk+z77xu6LiX9JLXWXJkkJdlTk50lmS7JTC3ZUWuZLmUwU2qZWaz1vzLXfH1Xpq7SIqw2CgBhCMzMTb1VCgAAHKjxdVtuk8HInQbJySWDk1PLyTU5uSQnD1KPSpIySGqSUpOU7P2flJS9/0qt3/lp9Xv/Xb77J773/zV773kNalIWM9pOupm8KslXk/LVmsFXm+SrtZQvzc+WTykOhCPr+KN6m+cXco+aelJJTqrJHUtyUqk5aXeuGS+DJiPNvvd++d57PfX6b/1ywx/63T7ie51FLUlqSVOSxYX5dNuXDpLJHSn5elK/XJIvZ1C+WEfql+fWDL68e/dbZ7QOsNJtWtu7XRnkrk1yj1rrXVJy+6TeJiknLmTPhqSk1qSUG46/vtPXlut/Yd/3S7neH6tJzXfGZUldbNJt14Vk8psl+e9a8/U09b9L8tVBaS6te/IFN8ZY7e6QczrXju6+y2LJSU1pTqoZ3DFpTkrqSUlOXMietc0gqU1JSU1qSU3dOx763hvvhq7/Nt33Zh6kJIPsrdxtt9LN5FyS/0nytdR8raZcVpp8bVDytYU1a/5j9+7zprUOcINxRHrHNKOLd6pl5KSSelIp35vP1eS4frKuGdTUpkn5znyu1u/rm+r3uq2S1Ov3YfsGFWVQsiY1C+096WbyuiQ7UvPNJF+tKV9qki/Xmi/Pz+fLrvHA6vOd60qpg7vs7X/KHff1RXdM6jHJSPYNmfaOl/Zde97bHdXc4JJSvdlfty416/Z1WWP5wSnSvh/5nTFa0pSStGu6mbyyJpeV5OtJvaymXJbUf08z+oWde97831qSlUgBIAAAwBAbW3vmD5XF+fumKfctNfetyX3qYo7be/s3+b5bxUvlmCT3Tuq9990mS2oyuvfiy38l+XQp9dN10Hy6rFn82PR1F/yPloTD8Ebs9O44Msh9SzM4pdZySklOmZ+vt71+n3CDi6aHV5PkuNQcl5QHfOeGUwYlrbmRdNuTl9eUS5pSL6mDXFJHBpfs3HPBN7QiMKTKWKt3l6bUhw6S+5aau6fkrhnUY77b5353cHbYR2lrkty+JrdPyUO+c2Os1Jqy98GN/yrJF2rJZzKoHxsZbX30imvPu1wTshIdnd7YaGdwn1LLKbXmlJScsjvX3Dkpa/Y+73CDp6MOt1aS22fve/PUsq8Ip6lJa24+3fbkt0ry2VrymTKonxmk+czOufynFT1hdRhbu+XEZlDuXWu5V0o5pabeu6TecW9pS73BHO4w91jr9vVTt0/yoLKvp0zJ3gdA6+RMSj5TUy9JbS4ZKblkR3/qK0vVkQKH09am2/r3O6dZeEBquX9S7lpS7zE/X8e/M4+pSzWjOTgbS3JKklO+9yhrSQYL6bYnr0rNF2rJpUm+UEq9dHF28RNX5m1XaneGmQJAAACA4VHGWhN3LaU8IsnDkzw4g4VjU8p+F55Ypm6X5Ha1liel1H0r00x8saR8oJbygUHJxbv2TP2XpoaD6R96d2nK4CdqyUNTy8NS622zbyW+svxf/3El9SdrzU+mJGXQpNuevDzJx2vK+0cGg/fvmL/HZ2wjDCxPp67pjo7duzblISXlYSV5cE0d/04p0TLvhG9Xk9ul5nEpJYsL8xlrT3611HyklHxooQzefeXsBV/XxgyjY9efddxgYe4BtZQHJ3lUar13amnq8n9fJskJNTkhNY+rZe9jVd12rinpfaaW+qGkvnftbPPhb2Rqj5aG4ddtTfxoafLQOig/kVIflkH5oe/1VXX5dlkl3SSPKCmPSKkZJOm2J69M8smUfKRk8L6jZo/+6GV53axWhuXtxPTW7ukMHpyUh6WWByaX3j/JMd/bHqKupMreY1Ly4yX58b2HVjLSXlO7mfhSavl4LeXjaerH1+0pnzLWYpgoAAQAAFjGNnbOvMOaLD5mkPrwUvPwJMetvKMsd6rJnVLrs5qajLcnv1aTd9SUC3f2c3EyNedMgP30Dzl9Y9MafWxpBk9KLY9O6ub6ne1VVobjkjyhpD5h0JR0W5fOpPQuSur7Ssq/TPen/tNZABwpGzac0W3Njzw+tTwpqY9JsmEJV1U9vCOz5KTs3Vbwp0Zqk2578gs1eVcp9d0zs80HjM1Yrk7Oae2d7XWnlpQnJXn04sL8j2RljY2OqqkPTs2Dk/L8Pe06162TnyhN3lMXB/84M3/PSzwsAcPh6PTGWq08btDUJ5aaU5McX4fkyYEDmqomj0jNI2qaF+5uX7Onm8mPpOZ9daS8f+eeHR9PLlpwFsCRtrUZW3vpA7OYR5eSh+9JfWBqaa+MGc3BToPKnVJyp5L69AySPe260C2Tn6y1XtykuXjQb31wZ/7+aucOy5UCQAAAgGVmrDVxt5JyRko5I3XhPt+9BrxK1OSOSZ5TUp/TbefqUib/qaa+fTDbXLgrU1c5Q1jNNnbOvENTF59cUp+Y5CeSOvq9p7FXuJJuUieSTNTUdNsTX0zJBVls3jozP/Xx2GYKOMyO6fTuOFLzpJI8IXP1YUlGV0nXc9eS3DW1/Fq3Xa9MnbiwlExN92fe5QY+R9qGDWeNt+bnHp9anrAreWxJNqyiw2+l5EG15kFpmhd325dekTrxzpryzjpX/tncCZaXze3eyYvJk/bO5epDarKmrI4ZzNokj0zJI8ugptsZ35XB5IVJfevaueafrK4FS+eEPHFdv9V6TFKemHLpEzPI5lV10fmWW5OaB5SUB9TU3yjt/mK3TH6q1lw8kvq+0f7cRd/KhdeJieVzwgIAACvE1uaYfPGY1XCkV+VNV2aF3W0dH91ynzpSeqnZkpQ77f2qWpYkR9eaXlJ6TbvOjpfJt6fWN073u+9OXjUvHlbFmyC9sVa79pJydq0LD0pcnt2r3Ck1L0hTX9BtT34jyVtLGbx1evaeF1v9BjhUNmw4a3x0buHpST2n1HqKRLIxpZxdk7O77fFv1UyeN5L6yh397V8SDUvlDjmnc01796NTytl1bv70pIxKJUlybEo5pyTnlHZd7Kb3/pT6hjI799bpvH23eGDpbV7fO35xoZ5ZSn5qUOt9TeSS1GxKyTOS8ow97XpdN713lVrfujC38I9X5m1XCggOrZNzWntXa91pKeXp/eTx2VuUy8EZSc39SnK/Qcqv9dvt2W56F9fUdzcp77JTBUeaccYK0G1PXprkbpI4gBO+5PemZ7f9jiRYFu/dVu+MlHqBJA7MTH96dFieKtcv35J+uf7u9Oz2F0sCDo3xdVtuUxebb62K/mNkzW2nr3vz0B/r8Uf1Ns/N16eX5GeS3MNZfIvsSPLmZlBfu2N++6fEwcpz6ppua/MTU+rZSX4ySVsmB6r+d0r5u5E68ror+ud/ZSUc0Vhr8kWlyfNWftOVT8/0px6xYub97d7nUuptV3675fKZ/ra7rLQ+eLw9/riack72rrja0rfezFmQvKek/MV0P/+YTC2KhMMxDRzvTD6sDnJ2SiaSHCOSA3ZtSv2HUps3Tfc3/fMwPUg11pk8r9ScuXp71/qGmbntz3AKD5cT01s726pbUvL0mjwmyYhUDshsLXlbal67s3/3966Uh7q6rcmP1ZLNK73xmlJ+Znp26mKn8fKxuTP50FrrM2spW1KzSSJLMin6akn+ce/DqSMfMC9iqVkBEAAAGL7J9ML80UmGtABwa9PtfO4RJeXc+fn65OKG8sHanOQ5g6Y8p9uZvCTJn83Mjp1nVUCG3XFHnXHswtzIT6fk2Um9nUQORvmh1LxwMYsv7HYmLykpryqzedOOTF0ztEdUcvyquGBf6grbtnFwTGpZDTdaVkyB8tjaLSeWWn4ptTyzJrexGvOBv3uTPKamPqbbrpclvT/e0F//N5fldbOi4dYaz5M21Hbr7CTPqTU/almLg7I+tTytpj6t2955RcrkaxYzeOWVsxd8XTRwCPurdWeekMHCuXsG9ZdT0pXILdbZV/B7Zrd96TdTJt84UkdePfQPdZXcs6yCFdcWa13nFF4G85k8/eimM3fmoObZg1rvlRRTmqWdFJ20d8zaPKfbqTszmPjHmnLh6Nzad16eN1wrIQ43BYAAAMDQqSN147C95k3pHTPSzrk1n3tOavkh114O5QmR+yb5u2575/+pdfKv14yOvuqKa8+7XDAMk/HRifvVUp6zMJ+npljt71D2DzX1lbWd/9vNxGsXSvOKq2anvjaEx3G0ggeWsXUn57T2l/Ou/rAewKbWxD1LyS+VQXlGko4mvTXKHZL657vb17yoWyf/pD3X//Nv5cLr5MItdWz7qT+8WBZ/riY/l5oxiRy6aFPzv0fSPL/b7r2v1vqqnXPlAivUwMF/8HU7k49IzXPq4sITkowYtx8St03N8xez+Jvd9uT7SvLy6f62f8zQlTKdO5rstN0qh93mdu/kQeqvJf2fqjVH6YaWgZqxlHJ2Sc5eaO/Z3a0TbxuUct6u/vR7hmXHO4aPAkAAAGD4DJqjh+Wljq/bcpsMmp+vtT63JhvjSvDhdEIp+d3FhfkXjrUnXpem/t7OPRd8QywsZ5vW9h7SDOrza/IEaRxWRyfluWtqfU63PfnO2uT/7Nyz7SND8+pLOcZj+yxnV6/fuDHXZtiK78tYe/LRJfn1JI/WiofcsSl5ab/dfl43vZfM9He82o0uDsTm0Yl7D5rywsUsnp6aRiKHTZPUR5WSR3Xb9ctJ7xVr+3nNNzK1RzRwILY2Y63PTTal/Hatuac8Dt94Lckja/LIbnvi30vJnx41u+ENw7LK8IYNu4/JnEbk8Bkf7d03I/U3B7VOxHbjy7o7SClnN8nZ3fb4jmRyatCU83btmfpwXOzh0A7wAQAAhkxd/isAbh6duPdYZ/K8utj8V615cZKNGm7JtErKuWXQfLnbnvjLjZ0ttxcJy81Ye+Kx4+3JDzaD+sEo/ltKTZInlEE+PN6e/GC3NXF6hqIyux6t6VjOBgsLQzXO6bYmTh9vT366JP8UxX+H23FJ/ctue/Onup2JR4mDG58/9U4Z70y+ZdCUS5JsiftXS+nkpP75nnb9+nhncuvGnG7uCjfq1DXdTu/sbvvSz5dSzq9R/Ld0yl1qLa/a3b7m62Ot3u9s2HDW+HJ/xWvnBsdoNw6H8dEt9xlvT76rNvUTteYpUfw3VMPeJM9uBvWD3fbEl7qtyReOrd1yolg4FEygAACAIZzJlGVbCDHW6t21256cGjTlklJzZqy8fiS1k/KLI7X54lh78q83r+8dLxKOtG5n8pHdzuS/lpR31+QhEjlyavKQlPLWsfbkJ8fbk09Y5q/VjSOW9/upGWwchtc53uk9rNua/EhKeasb9kt+ltw9tbyn2578h01re7eTB999X45O3K/bnvynQVM/VWt6sWT6kbS51rx4pLPmq+OdiZds2HBGVyTwHVubbmfimd129z9S6+uT/KhMjphjS6kvac3Nf63bmfj95Vy0PBjMm8dxaMdN7afeabwzeX5tmk/U5HESGXblh1Pye2XQfH28PfmusdbEU5JeSy4cLAWAAADA8KnLrwBw09re7cbaE68spX4myWTcuFpOWiX5+cFC/XK3M/nS8Txpg0hYauPt3p3HO5NvSc17U/MAiSwfJTmlJhd2W72PdjuTj1yer3H5r3zLKh+aDZb3SsdjrYm7jXcm31JrvSglP67FjqgnNYP6793W5POTre5PrGJja7ecONaeeGVtyr8meYxEllOnnk21lt9pzY1cNt6Z3HpiemuFwmrW7fQe0W1f+onU8rqk/LBElo2jUstvj7TX/Fe3M/nSsTx9+T0sPOJBLg6NY/K0Td32xJ/XLH5+34p/rjuvLE1NHldKOb+7b0Xm8XVbbiMWbvGJJAIAAGDoJjJl+WyhsXl97/hue/KvmkH9ckk5N1b8W87Wp+b5td36Qrcz8Uw3nVkKxx11xrHd9sRf1tRL961qw3JV6gNT895ue/Kfu6Nb7r+8XluxBTDLW202LseXNb7uzBO6rck3llI+qw9eVtal5KXd9qXvOabTu6M4VtnYKGevH+9Mbi2D5ov75k/G5MvXUbXmxXva9Uvjnd65Sc/2gqwq3dZT79JtT16YWv8lyb0lsmxtSM3zS7v/xW574ldOzmntZTNEHjTmcdzqqwHdzuQz1rTn/iMpvxzXnVeD42vNi+tic9l4Z/It3c7Eo0TCgTKxAgAAhk6ty+EJ2lPXjLV7zx0s1P9I8gtJRrXM0Dgxtbyu27n0o5tHe6eIg8Nja9Nt9355YX7kS0n5xbhIO0wenab5125r8jXHH9XbvAxeT0mNG0csa01ZbqtUbm3GO71z6+LCv6fk6XEdfLl6xJpaPzPW6j1VFKtDt9M7e6G956u15sVJrCo3PG5ba33lWLt+YrmulgyH0nietKHbnnh5yuJnkzxBIkPjuKS8Yld7/aWb2pOnLY9BshUAOXhjrYm7dVuTH03N3yU5ViKrTqvW9FLLe7qdyU90OxPPXE4FzixPLnwAAADD5wgXAG7uTD50vD1+SUl9eeJi3hCfRw8YNPXj3fbkKzand5RAOFQ2tSbu2W19/sNJ/fNE4daQKin5mfn5+sWxdu+5R3LFm83prY8CUpb7R2pdPlsAj49uuU+3c+lHa62v1AcPhQ2l1DePtSdemfRa4liZjutMnNRtT/5Tan193MAe4sFRTtm3WvKFY2u3nCgRVqLx9uQTart1aVKeaww+tE5uknd225MXbuyceYcjO0h2zZCDceqabmvyf5dSLknJj8mD1Nw3tbxuV3v9f493Jrcend6YUNgfBYAAAMDwKeWIXEDbvL53fLc18fpBzcU1uaeGWBHWJPmV2q6fXTZPiDO0Tkxv7XhncmtTysdT6gMlsiJsLKkvH2vXT4ytnXzQkXgBdd2IAiaWv+bIrwC4Madv7LYn/rI2zcdT8wCNMmTD+5Rzu518SFHRSnPu6Fi799yFWj6b5DHyWDGeUAbNpXsfktjqPiMrwvi6LbfptiZeX5MLk9xOIiujrxqpC18Y70xuvUPO6RyRV6AAkFvaF7V7d+52Nn8kJf9fEqu98f0215oXj7brZd325B8eu/6s40TC9RmYAwAAw2jJL6CNtyafPlio/55Szk5SNMHKUpM7Nsk7u63J11gNkIMxtnbLA/e062f3bWlnBaMVpiSnlEE+1G1P/sVxOXv9kvZPC9VNI4bhg/SInqfdTu8RI+01n9u35bpr3kN7HtX7l0Hzb+OjvfsKY/htavXuMd7e+Yl9q6avl8jKm5OX1JePtz//gbHWxN3EwTDrdnrn1MXmP/Zd72FlWVtrXry7vfszm9ZuefCSD21K9TAXB2ysNTFRU/81td5fGtyMDUl+c3Fh/utj7YlXjq0984dEQuJiCAAAMIzK0m3ntjGnb+y2Jt9YS96YLJ/t7Ths59bPDNqDz21a23uIMDgwvZFua/L5ZdB8IMnJ8ljhPUTy7MX2ns9t7mz5iaX6pXVkXgEgy14t5QiNkc4dHe9Mbk2t70li5biV4Ta1qRePtyeeKIrh/bwca0/+alPqv1k1fRX0/6kPLqV8stuafL7VABk2m9I7ptuafGNqfW0ShVor+6PpTs2g+UC3PfmKk3PaEq6qdqTGyAyTE9NbO96e+JtSyrbEqpHcIu2Scm4ZLHx5rD351+PrzjxBJKubwTgAADB8lmiVmbH2xGNH2msuTcnThb6alDs0g/r+bmfypcm5o/LgxmzsbLn9WLu+PyUvTeJcWTUfQbnjoDbvX7KbR4PiBgDLXlOzaal/51ird9ex9s5/27fyquvcK8v6mvLW8c7Ez4liuBy7/qzjxtq9d5TkT5N0JLJqtFLy0m778++1jTfDotvpPaJpV9d7VtmQNcmv7Gqvv2Tz6MS9l+QXWgGQmzG+7swT9nRycU35WWlwa8ZiJfn5urjwpW5n8qUbc/pGkazeDzoAAIBhc1iLIY7L2evH25OvLinvTnJbca9Ka1Lz/PH2rvd7epL9GWv1njpSm8+W5KHSWJWaJL+ys73+Y5taZ9z9sP6magUAlr9al3Z1k2574pdKqZ8oySnSX7FGai2v7LZ7vyyK4TDe7j1+cX7+8yX1J6Wxaj8NHl5q85mx1sSELFi+Tl3T7Uy+1OrBq9rdBk356N6VS3sjh7dbLAoAufGx0+jE/eriwsdt+cshtC41z1/TXvOlsfbEY8Wx+igABAAAhtFhK4bY3O6dvNDe89GaPEvM1NQH18WFT3c7vUdIg7323jAqpZ4X20SteiU5pSkjHx/r9A7b0/pNowCQYXgz1I1L8WvukHM63dbk65Ly/5KsFfxq6Gbrn3dbk78liuVsazPemdxaU9+ekq48Vv0EaqyUsm28PfnqE9PTT7OsbNhw1ni3vfldqXl+3CNf7dp7Vy6t/3Ls+rOOO2xdYs1GUbM/3dbE6bUpFyfx0DGHYTiW8VKL1bhXIYMbAABgGLUPx7aL4+3e4wel/luSe4iY69mcWv9p79PhrGZ7bxiNv3vfDaMiEfbplFr/Zqw98cqk1zrkP73aApihsPFw/4KxtVtO3N255kMpeaa4V5mSPxhr9/6XIJafsTz96G7789ttxc0PDF+SZ13Xrh/Z2DnzDtJgORgf7d23NTf/iaQ+Shpcz8MWF+Y/0V078WOHaQxjLscP6HZ6Z6eUqSTrpMFhMphrL35IDKuPCRkAADCUrl6/ceOh+2lbm/HO5O/W1AtTs0m67MealLy025n4eytZrE7dtRM/1pqb/3SSR0qD/Skp53Zb9aLu2t5tD/EPttIkw+Cwjp/G1k4+qAyaj6fmvqJerX1s/aOxzuRPS2L52Dh6xr1Ke/aTST1dGuz/fZtTRurCxzZ3Jh8qDY6k8fbkz9emfjjJ7aXBfpyYQbnoMK3qbi7HDXTbE7+SWl+XZI00OIw+s3v3W2fEsPooAAQAAIbSYGFwSJ6iPSZP2zTevvQdteZFsaIXN6eWp+1p1X85/qjeZmGsHmOtiYkMyvuT3FYa3KSSH8+gXjLe6T3skHU7tbppxDBo3yHnHJYthrqdiZ8qg/xLkuPFvLp72FLzyk3tydNEsQzGRu3eo0eakQ8k5Yelwc04blDzPqupc6Q+O7qdyZfW5K+TtMXBTeiUWv+m25p4/SF+6HOjaLne+Ol/JeUVUaPD4f7wSy6SwuqkcwEAAIbTYOFWF0SMrzvzhJH2/Ptr4kYiB67kx+fm68fG2707C2PlG2v3nltKeUsSKz9yoI6rtb73kK0gUctGkTIMrl1/7SE/V7udyT9ILW9I0pEwSUabZKo7uuX+ojhyxjsTP1dS3xmrGnHg9q6m3p74y6Q3Ig6Wwsk5rT3emTgvNYpPOXClnL2nlfdt2HDW+K3/Yb2RJOuFSrJ35b+S+seSYCnUmoulsDopAAQAAIZzIjtSbtUKgGOt3l3r4sJHS+q9pMktVZKTaqkfsZ3Vym7mbnvyD0vqy+P6CbfcmlLrq8c7k1tv/ZlYjhEnw2AwP9h4KPvg8fbkn6bmtyTL91mfpvmH8XVnniCKpR8bjXcmt9ZaXhXb1nFwp9Avdtt1+yFeXQt+wNHpjV3ZXv/eWstTpcEt76rqA1tz8xdvWtu73a35MRszvyF2GiF7tyFPysslwVJNzRfmWh8Qw+rkAjYAADCkU9kcdEHE5s7kQ0tTP5TkdoLkoNWMDWr+abzde5IwVpaTc1q7257cluQ3pcGtUGrNi7vtiZcnW2/FNThbADMkH4sjdeOh+Um9kW5r4m9r8qtS5Ubcpi4sTCW9liiWyqlruq2Jv6s1L5YFt9KT97TrO8bzpA2i4HA4ptO742i7fqwmD5EGt8Jdm0H98KbWGXc/6J/QaTzIRTa3J36yJv8vikFZOp+5Km/aJYbVSQEgAAAwpLOZclAFEd3WxOmDmn9KzSYhcgisrakXdDsTPyWKleHknNbe1V7/liRbpMGhUZ7bbV+67Q455yC3MLUFMENiMHKrz9W9Bdj1LSnlHIFy011jHtRt1z8VxFLotbrt8fNTytmy4BB5RO203n/cUWccKwoOpfH2U++0ptYPJPkRaXAInNiUkQ+Od3oPO6ihysBK7qu+Txrdcp9ByvmxcjJLOk3KRVJYvRQAAgAAQ6nWW77KTLcz8VMpZVsSWw5xKI2klteOtyafLorhdlzOXr+rvf4fk1jVkUPtjN3tay88uC3vrADIcGjqrVsB8IQ8cd2u9vp3RwE2B+7ZY62Jp4jh8LlDzumMtesF3pcc+gl97rswP/KBsbVn/pAwOBTGWhN3q1m8OMmJ0uAQ2lhrffd4e/IJt/QvrmkUAK7qPmntlhNr07wjyVHSYEmHWDUXS2H1UgAIAAAM6Wz2lq0AONaamEgtr00yIjwOgzW15PVjnYmfEcVwOi5nr19oz16Y5JHS4DB9cD1qT7v+w0GsBOjGEcOh3JoCwHNHZ9udqSSnCpJbdNqV8spNa3u3k8Shd0KeuG53+5q3l+Tx0uAwuXMZLLxvfN2W24iCW2PzaO+UUsr7kxwvDQ6DTk2239IiwFrN41avc0ebQXNeEp9vLLXB/Fz5oBhWLwWAAADAcE5myuCAL6R1W70zSinnxZYLHO7Tspa/GetMPksUw2VzekcttGbfm9SHS4PD7NFXt6/ZlvRat+DvWAGQoVBrs/Hg/ubWZrwz84aS+pNS5CBsLIP6xqTnIZ9D6MT01vbb7X9M8mhpcJidXBdH/nnDhrPGRcFBzeVGJ+49GKn/kmSzNDiMWjWZ6nYmHnXgg2MFgKtVt73zj2vyEEmw9Mqnr87UTjmsXgoAAQCAYXVAF9LG2hOPTannJRkVGUuglJpXjrV6TxXFsOi1Bu1sS6kPlAVL0kkkjx9v17ednNPaN/dn960W2JYaQ6E5qBUAy1j70r+utfjc5Nb0qw8db9fnSeJQOXf0una1IidLqN59dG7hvcfkaZtkwS2xud07edCUd6VmTBosgU5q+YfxzpYDenCwFgWAq9FYqzeZ5DmS4MjMi6rtf1c5BYAAAMBQqik3eyFtrD35mJLytiieYInn2qXU14+1Jx4riuWuN9Jt1zcnVVuxxJ9hOW1Xe/0bk1NvcmXa69b33TRieM7rmo239O9025MvLcnPSY9D0K/+7rHtp/6wJG6trc1YZ+ff2faXpVZS77WmNf/O8TxpgzQ4EGNrt5w4yOA9SY6TBktoXa3NO8Y7vYfd/OCkWMl9lRlfd+YJJfWvJcERHFFdJIPVTQEgAAAwrG7yQtpYa+JuJXlLko6oOAJaJeWtmzuTDxXFslXG24NXJjlDFBwhk+Pt7k3eHBgsDBQAMjSacstWABxrTzwvyW9KjkNk7WIGfyGGW6fb/tz/KzVnSYIjMzqvD0y79RZbenNzjj+qt7kMmvck5Q7S4AhYV2v9h7FW7643PTiuCgBX2afYYHHx1SnpioIjZDDfH/2gGFY3BYAAAMBwqje+lcb4ui23KSXvSmy3wRG1dlDz9k2tM+4uiuVnrD35sprys5LgyH6UlZ/dVwS1/+8P5n2OMTznc202Huif7XYmHlVSXiY1DvFZ+Njx1oTitYM03pn83aT8oiQ4smOjPK7brn8qCW7M5vSOml+o70ryo9LgCDqmKfUdxx11xrE30aGZy60iY53Jny2pPykJjqDPXJU37RLD6qYAEAAAGE5l/xfSTkxvbV0YuSApPyQkloGNTRl5x7Hrz7It0TIy1un9bEl+XRIsj4+z8kfd1uST9/vNkeKmEcOjHtgKgMd1Jk5KyvlJ1giNQ34alvInthC95bqdiWfWmhdJgmXiOd32xC+JgR+0tRm06xtTc19ZcMTHHMkdFxbWvOOEPHHd/id6t2x1bIbXhg1ndJua/yMJjqSS+n4poAAQAAAYVvsriijXderfptQHiodl5PaLi/M3flGYJTXe6T2s1PqXkmAZaVLypu7olvt//zfqwKoRDJGSjTf3Rzand9RCLW9LzZjAOEyOr52WraVvgU1rew9JLa+UBMvsQ+UV4+3e4+XADeZy7Uv/KMmTJcGyUev95zrt1yUpP/gtD3OtFq3+yMtqMi4JjqzmYhmgABAAABhWP3AhrduZ/INSc6ZoWHZq7tfvtF6d/VwUZul0WxM/Wmt9W5KWNFhm1qVpLhhfd+YJN/hqU44WDUNk4818v9ROfU2Se4iKwzzu+rVNa3u3E8TN29zundws1rclaUuDZWakpv59SX5EFCR7V3GvyfMkwbIbdtT0xjsTW7//6008zLUq+qa1Wx6Ykp+WBEfYYL4/+kExoAAQAAAYVuuSc0e/8z/j7YknpuYFYmHZquVpY63JFwriyNiw4azxlLwjN1+gAkfKiVlcOD859XvbolY3jRgqN9m/jrd7v15rniImlsDaZnHwEjHctGPytE2D1AtT0pUGy/Y0tdUrSbqdiUeVWv9KEixXtZYXdVuT3786pYe5VoEyGPn/4mFfjvyZ+Omr8qZdckABIAAAMLQ2bNhxdJJ01/Zum5S/jQsuLHOl5CX7uSjMYbe1ac0tvDEpPywLlrOaPKTbGX/x9b6gAJBh0j4xvbX7+8bG0TPuVVN/X0Qs4aDrGWOt3l0FceMJrWnP/22SHxUFsJyNrT3zh0ot5yUZlQbL+XM1TV67sbPl9teb25nLrXDj7YknJvXhkuDId0CDi6RAogAQAAAY5gnN/Jqjk61NBvX1NRmXCENg30XhM+8giqUz1rr0RUl9rCQYCjW/NdbuPTpJmuKmEcNldt3ixu//2sk5rb2mGXl9bL/OEk8VSupviWH/uq3e85N6uiSA5e3c0bK48GbXexiSedympjZvuN6K7uZyK1upKX8gBpbJ1OdiGZAoAAQAAIZYazHHjLU+/8Ikj5AGQ6Nm00gWzk96CiGWwHhny8NLyYskwRBpSuobNq/vHV+tAMiwfcQtjG78/q/taq//3ZrcUzosuZIzx9tPvZMgvn9s1HtYSv09SQDLXbc98ycpeZAkGJ6hRx463hn/nb3/mQ0SWcHjqXbviUnuIYlDYk+Sb9bkq0k+lZJLUnJJTflASi5Jyif3fe/rKdmVpIrsBgbz/dEPioEkWSMCAABgaGe3pT5BYQ9DqeYB3fbgZTP9/KowDp/N63vHDxbqm5KMSIMhc9xgIa9LybWiYKg+3kYGG6///5vWbnlwBvk1yXCEjNS6+IIkPyOKfR8uR51x7MJ8fVPcGwKWubHWxFOS8suSYOjGwzW/3W31PpVU1yFWdDvX56fI4QAMknwlKZ+tqV8rKV8vGXx9sTaXjawZmTnqus7Oy/K62Vv6Q4/J0za124tji4P5sdKU42ua2yf1h2rJ7cogt0vJ7ZPcJqtiQbTy6avypl1ONWKSBwAADPf8NlujsIfhPYGf221NXDQzt/1tsjgctjaLC58/vyTHy4LhVB+bpC8HhuqsHdSN3/nvzekdtTiorzdW4wjPF35qbO2W39m554JvCGNrszB/6ZuSnCALYDnb3O6dPEj9G0kwpJqU+loxrFyb1vYekkG1Oun+7UhycVIurs3iJ0b3rP/c5XnD/h9snEumD/KXXJU37Uo/u5J85cb/1LmjGztX33Y0c7erGfnRWgenpJZ7peQeWUErdJZU2//yXQoAYQjUf8slSe4iiQP6lPv9cv/8f4IAgFXDDWWGe/hayqs3r+99bMe1U9+WxqHVbV36G0l+QhIMubYIGKqBWf1eAeCgU3+r1JwkFY6w0VLLLyR54WoPYqz9uecm5ZFOCWB529os5tK/LbZPZbgdI4IVPed5jj1or69cWmt9S0152665qUuzbLbofdX8lbO5LMllST5w/Rd8bPupJy3UhVOaptyr1twryb2S3H5I87/IOch3KACEoei3szY1awVxQEZFAADAsKjJeF2or0zyZGkcOmOt3l1T6lZJACzx51ppNibJMZ3eHVPr8yTCclBq+fk75JzfP5jtxVaKbuupd0kW/8DZACz//urSFyR5qCSA5Wjz+t7xg4V6uiRyVUl9zaA2r9k5N/WFYZu2XtE//yvZu3rg9u9+/qzt3TZ18PBSc+og5eElQ/Ew2+J8f/SDTke+QwEgAADA8lZr8rUk/16Sy0py2aDW/2qacsXioMyMrBmZmb+u2XNV5q9Ophav/xc35vSNrfVr24vzg7HByKDbLNZuSr19SW5fU+6QlDsl9c7xEMWR9qSxzuRP75zdZouYQ6LXSsmbknRkccTtScnnS/LVQa1fL8nXU/PNpikzi4O6c2S0mZm7drRfcl29Mm+7Mkk2pXfMIKNN56g9owtzre53+q5S6m1q2dt3leSk1Nw1yVEihmU3atmUJGtq/SP9MMvmtEzGd3euPTOzed3qTODc0TQ73+AB82XjGzXlq6XWy0pTL0vN/wxqM900izNZHLm6NIOrm5IbzOsW65o1GQw2ZGTx6MGgjDUlm1PK8XWQO6TkDknumOR2omXYbR7tnTIo9cWSWBYGJfl6Tb6eWi+rKZeVkh21lpnS1OmyWK5MkjTN7pGysJAkg8UcU9M0ZaSuGwwyVpvaLYMynpITk7Kvr6onJVknXob2jTFffyYlrVUcwTeT8tKmn9ftyLZrVtKBzeyZ+maSN+77J5vW9m7X1MHDMygPT8mpWZYrBJbPXJU37fLO5DsUAAIAACynaXvytVrzkZT60drUS0b2jFy6I1M3fkFl7sZ/1pV525W5Nkly+Y3/qV5rU2vwo01TTkmtDywpD67J3WJ75aVt95qXb+yc+f4rZ998mTRunW5n8JLUci9JLLl+ai6pJR9JLf/alOaz0/3BV76/MPnm+q9dmboqSa7a2+tdcVNvm+M6E3dcGOSeacr9U/PgJPePm0lwpAcyx4x3tjy81mwRBstL/aVkdRYAjnd2vqjW3Nc5cER8ObV+NCX/2pTy2fnZhc9956GHgzJ/49/alN4xWbt495FBuUet+bGU8uNJ7qwJGBYn57T2riZvSFZ1Yc2RMkjy+SQfriWXlMXy2TXznc9fnjdce6j7qqQ3srk9OGmx5p57t94sP57UH4stnxme+c45q/TIr6k1LxudW/snB903DJlde6b+K8nf7fsnx7af+sMLWXhSk7KlJg9K0hz503FwkTcl16cAEAAA4Mi6Msl7aynvLiXvnt77tOESmprbNZfPJvlsktcne28eldbgUU0pj6vJaUluq5kOu6NH6sKrkjxGFAdvfHTifrWW35DEkvlcTX13U+q7Ns7u+ciX867+Ev7uevns9q8m+WqSt+390qlrNq0d+7GmltNSm9OSeu8kRTPBUr4zM540LxcEy/DcvN+m1sQ9d81t/+xqOuzNoxP3HtT8byfAkrk8Nf9Uknc1o6Pvv+La8y5fql+8K1NXZU8+nOTDSf46STZsOGt8tL9walMGj6sppyU5QROxXO3qrP+d1Hp3SSyZLyV51yB5d+m3P7wzf3/10vzaqcUd/Xxp3+/ft/Vmb2TzaO4xKPUxKeVxSX1wFIKyDI2PTtyvJj+yCsfRHxkpI8+4Yu78r6zm9t+3bfCfJvnTDRvOGm/Nz/9kanpJHpsjt7vORd6ZXJ8CQAAAgKV3VWp9eymZmu43/5RMzS2nF7crU1dlLtuz72LsWGvibk1TeoOas0tykuY7bB493po4a3pu+3miOBi9kTpS/yrV6pWHV/lkaj1/sVnzluuvWDm9LF7bRQu7vnfj+4Xdtb3b1kHtlVqemlJ/LIoBYQm6iDyl2p47SfZk72o660WxfIyUPDPJr62eI97aDEYu/etU94EOs2+UZKo29fyZPff4eLJ1kOQmV2pfKrt3nzedZNu+fzI+uuU+tWmemtSn7NuOE5aFsVbvrqn11yVxuIdp+WytOb8pdWpHf/uXls8rm1rcMZ9PJ/l0kpeN50kb0mo9vpby1KQ+LklH67EcDJo8ZZVdVBiklt+embvby747vuH6Y6zXJ3n9hg1ndEfnR56UmomSPCpJe4lexuJCf/GDWoPrM/EDAABYOheXWl+5ce66C5Z4paxbZefc9s8n+Xyy9XfH2p9/ZEk9N8mTc+Seblyxail/sjGnv+tWbQ22SnXb9dmpuZ8kDoOSnaXW19WaV8/MbfuPYXnZM3tXVH15kpcf15k4aSHlWan56STHa1Q4bFZD8d+3kvKFpP57Sf1CLeVLg8Hi5aOjnR1XXLsw/f1bn5+c09o7smnd6LrZThZHN5Qyf/wgI7fPoJ6YkhNLcsea3FvftATjrJSnJ6c+P7loYXWMjS79hdQ8QMsfFv2Uur2kedX07N0++L2b4tuX9Yuenr/gk0k+meQFY2snf7ws1p9LKU9Jsk6TckRnGyV/FSu+Ha4Pv5la8rpSR14zPXf+vw/DS57O23dnLm9O8uaxPP3odOZ6Jfn51Hp/DcqR7azSW01jnVpz9s65qalkSuPfhN273zqT5LVJXntMnrZpTXvurJRyzuHvs8pnXD/m+ykABAAAOLxma/J3pY68YmbfxdbpoT2UrYOd/bwnyXs2r+8dXxfrL6Tml2oyrpkPmeNH2mv+T/r5RVEcuPF1Z55QFxd+XxKHVkk+W0v9kw2zG86/LK+bHeZj2bdd8G8l5754rLXz9NLk1xVFAAdgoaT8a0p9b8ngffOzg8/e6E2WG1nta99DH/1clyT5nyRf3N+fG1t75g+VxYX7p6n3z6A8LCU/lqTRBIfUcePt7mnT/Vy40g908/re8YOF+gea/JD7Zmr+fLRV/vbb12zbsfdLQ3lTvO7cs+0jST6yMac/r2mPPrNJfW5N7qiJWWpjnclzSq0/IYlDPpm7JKkv39DfsG2Y53I78/dXZzavSfKazaMT965Nfqmm/FSWboUt2NtXtXp3TeodVsnhztWUJ+6cm3qPlr9lrsqbdqWfv0zyl2Otibs1JT9TSzknNWOHvpsfXCRxvp8CQAAAgMM15y/1/42MtP78imvPu3ylHdyOa6e+nWTrCXniy/rt9s8m+fUkt9Psh8S5Y2u3/N3OPRd8TBQHaLDwp0mOFsShUVM+UFNfuqu/7d1J6syKOrpXze+cy1SSqfHO5KmpeX5NHqfVge8oyddq6ttLynvTn7t4Om/fvRS/d+eeN/93kv9OckGSjK/bcpu62JyRZEuSh8W1/EPzGVfLU5KVXwC4uFj/pCQbtfghO3P+vZbyf3fOlr9PpuaWw/a+h8qVeduV6ecVyal/Md7q9gal/GZJTtHmLIUNG87oNnN5WRXFofTPKXnZzOy2f0mSlTSX2zG//VNJnjW+bsuL6qB5bmp+Ickxmpyl0JT6k6ukr6op9dyds9sU/93a+d3eHXV+7eSc9ls7W+ufVJJfTcmDDuGvuEjKfD8XDQAAAA6tuZr6ujVrWr+zEgv/vt+3cuF16efPk94rxzs5p9b6u0mOcxrcKk0ZNH+ZbL3f97YT48aMd7Y8vNY8RRKHQMkltea3dvan/nk1HO707LaLkly0aW3vISODvLSmPthJAKvW1SV1qpT6+h2zF3wwyRG/vzd93QX/k+xdPeK4o844dnFh5NlWXj4kn3VPTHqtZGpupR7ieKf3sFrrWRr7kPh6Sn3xzGzzxu/f3nvluWhhei7nJXnzWGtyspT8XpI7OwU4nFpzI7/vc+1QfbzlQ4vN4AW79lzw4RU/j9s7RnrB0em9bE178IKS8stJ1joLOJxqymOXwRRhKY70z2Zmt/+dFj90vpx39bPvQdSxtVseWAbNbyQ5PbdutffFhf7iB6XL97OFAAAAwCFSS86rzeCHd/a3//xqKP67oam56dmpV9V++04p+cMkc86IW+Xe461L3bi9WVubWps/lsOt9s1Sc9bM7Lb77+xv++fVdvC79kx9aLo/9ZCS8uSkfsXpAKtn6Jbkn0stT1/bL8dP97c/a8fsBR/IMryzd/k1b71ienbb1la/f/uk/nJNvqr5Dtoxm9uDR63osVGqsdGtd1VN+bVN/WvvvPcm+Eov/rth37hzbtvUTH/67qWUny/JtNOBw2Hvdpp5liRu9Vv2iyXlCdP9bQ9dDcV/13d1pnbu7G//zTTlR1Lr67I6qrM4Is4dTeqDVv5x1suafvNC7X347Nxzwcdm+tsmRjJypyR/lqR/UD+o5NNX5m1XSpTvpwAQAADgVqtfrMljd85ue9rOPRd8YzUnsTN/f/XM7LYXNKl3L8m7nRu34qwqeekJeeI6Sdy4budzZye5tyQO2nySPyv9ubtMz217c1b5DZPp/tTbZ/rNXWvKrya5xukBK9YgyTvKoNx/pr/tsdNzU2/6Rqb2DMML/1YuvG6mv/0vdvan77yvr7pWcx7ECVDLxModG33+6am5r1a+Vd5Rm8Hdd/an/uTLeVd/9cZw0cL07NSrFvoLP5K9N6gXnRocSk2pfxQ71d0a15WSl2zqX3fP6f7UP67mIGb2TH1zZm77T5dBfUBq/tWpwSEfX41On5JkxV+fKynP2ZEp10KWwBX9878y09/23MUyuHNS/1+SWzQfLbVeLEX2O74SAQAAwEFbSMkfzvSbe6zGVbNuyo7+9i9N97edVmuekpKdEjkoJ/ZbnV8Rw42Ek97a1PK7kjhon2sG9cdm+tueO5237xbHd0zN7exPvWKhlHsmuUgesKLMJvWv1pT6IzP9bU+cnp+6ZHgP5aKFnf2pVzQppyTlvZr2Fip5YrJ1xd0b2Ts2qr+vgQ9WvSylPHKmv+2Jq/2hruu7Mm+7cqa/7bkZlAcl+YJEOBS6nYlH1eQ0SRz0B9l7F8vgrtOz27au7kLlG5qe3/6Jmbny4JL8+t5xHxyiEULTPHjFH2PKZ6b72/5Ray/xOGv2gq/P9Lc/Z3S03L6UvCQluw50Qig99kcBIAAAwMH5fBmUB87MbntBMmW72xuxc27bVC2DeyVRIHkwSn3B8Uf1NgviB+1p1V9LcjtJ3GILpeQlM/2x++6Y3/4pcezfVbNTX5vp3/2RJfmNuHkEQ9/vJfnzZk2540x/+7Mvn92+YrbP3dGf+vJMf+rRtZRn5RauGrHKbe6OfnbFrZK3p5X/ZWx0kGp9Q+nP33Nmdup9wti/mfmpf9vQP+q+KfnDWA2QW2Vrk9r8oRwOrqtPzQtm+nd77JWzF3xdHPsztTjd3/bHIxm5e00+KA8OhVJzv5V+jE2t/ze20T5ivn3N1I7p2W1bB7PljqXU381N70qxuNBf1L+x//eyCAAAAG6Zkvqatf1y/+FeOWbp7NxzwTdm+tsel5rnZ+9NeA7cMQvz9X+L4YY2bDijm5LflMQtVf970AxOnZ7dtjV51bw8bs7WwXR/2x81g/LjSb4kDxhK/zKoi/ee6W/7lR3XTn17xY61Zqde0wzqg5P8lyY/wE/E0jxuJR3P0emNpVRjo1vuytR6xszc9mdYEfnmXZbXzc7MbntBSnlMkm9LhIPR7Xz+6Um9jyRu4edWymdKRk6Zmdv2h8nWgURu2hX987+ysz/9iH1Fy4qauHVKudcKP8J+5uberqGPvF2Zump6dvuL51qjd9zXf/3gKq8ln74yb7tSWuyPAkAAAIADd21KecZ0f/uzvpEpq6zcMnVmbtvLBk15eBJbat2S4JKfP3b9WcdJ4nta883zkmyQxIErybvmWq377NpzwYelccvsmJ/6dO2371dK3iINGBrfSMkzZ/rbHrVr7q2Xro6+avunysjggTX5tOa/eU0pj11JxzPaqc9LcrSWvUWDo0tGMnK/mbntbxPGLTMzO/W+0dFyz1jlnVusN5Jaf1sOt/SiQH1Dpz/7oOn++V8Uxi1x0cLeouU8Osnl8uAg+61WUu+0oruY5L0ehFhedu8+b3pmdtsLRjJytyTbbjCErfViCXGj81wRAAAAHJBvlUF52Mzs1BtEcfB27Zn6ULOm3D8l/yaNA7ZuYWH+N8Sw18acvjG1/JIkbpE/m+7f/Qm7d583LYqDszN/f/X07Lan1pRfTWLFDVi+FkrJ763tlzvNzG57/Wo7+OnrLvifQX/h4SmxSvXNqKkPPCZP27QSjmVTesek5pe16oErpZ6/drY89Ir++V+RxsH59jVTO2b65Sf3rU4DB2S8Vc9McmdJHPi4Jqm/PDO3/RnfyoXXiePgzMxu+5faDO6X5FPS4BaPs1oLd0rSWtHjohoPii5TV/TP/8pMf1uvlMEjSvLZfV++SDLcGAWAAAAAN6Mmn67Nmgfa8vfQ2HHt1Lc3zV77E6n5e2kcmJL84nFHnXGsJJI1nZHnJdkoiQOykJRnz/S3Pdc2UYfGzv7UK2qtT0niBhwsP1+uzeCh07Pbfmc1r9R8Zd525dzo4mOvd4OI/RsZbc8/dEUcSGfwv4yNDnxqV0peMj27/Swruh8KU4szs9teUEo9N8m8PLhpW5taygvkcMAXAXallMfO9Lf/hTAOwTxuzwXfaPrlJ5JyoTS4ReOssuaklX6MTamf0dLL2/TsBe+f7pf7JPmlhf7iByXCjb6fRQAAAHDjSvLuTr//4J173vzf0jh0vpx39Wfmtp1dkpdL44Csm59vfn21h7Axp2+stfyK0+GAXJNST5vpT/2VKA6tnXPbt9dm8MiU7JIGLBO1vqHpl3vv3HPBx4SR7N791pmMrDktyTekceMGGTxk2I9hU3rHGBsdsPlS87Tp2W1bk1RxHDrTs9tf3aSeHg9IcBPGW5c+Jal3l8QB+a9Sy4/PzE69TxSHzo5MXTPTzxk1ebU0OOBpRurtV/oxlqz5Ty09DKYWZ/rb/vLKvO1KWXBjFAACAADciFIyNd0vT7bVymFTp/vbnldrtoriAM7HlGdv2HBGdzVn0LTWPCdWuDmQk2VnbQaPnpnd/l5hHB4791zwscGgnprk29KAI9ndZTq1njEzt/0ZOzJ1jUS+Z/q6N38rg8GWJHPSuJHzpzZDvwJg06rGRgdmT5N6+vTctjeL4vDY0d/+zqbkcUmukgb77XJLXiiGA/KftVnzkOn+lIKcw2JqcWd/28/X1P8rCw5svlHvsNKPcbY/8HAjrBAKAAEAAPan5vXTs+WsZMpN08Ns59y2l5Tk1yVxs9a3+iPnrtaDPzmntUvJs50GN60k04NBOdUqWIffrrntn21SHprkm9KAI+JzC2Vwv5m57W8Txf7NzF/w8dTyYknc2Idmve8JeeK6YR4bpeSXNOTNuqYpg8ft6G9/pygOrx2z2z5YBsUqyfyAsXbvsUnuJombnct9ds3o4k/YgeKwqzv723+z1vyOKLg5g1JOWOnHeHU27dbSsDIoAAQAAPhBF8zMTf9sMrUoiqUx3d/2x6l5kSRuRskvJ73Wajz0nZ31T0tyvJPgJl2VQT1t19zU50SxNHb0p77cpD48yf9IA5bU25t+edCVsxd8XRQ3bWYu/7ekfFgS+zU61xn9MWOjFW1PSnnyjtkLPiCKJZrXzU9d0ixWRYB83zS2/i8p3KwvlTXlsZdf89YrRLFEn6Nz234vJb8vCW6y/6plfOUf5a6ipWFlUAAIAABwQ++Y6Y+dmVy0IIqlNTO37fdT8v9J4iadMN6qvVV55LU8V/PfpGtqU06bnt/+CVEsrR397V8a1PLY1MxIA5bEn830736GLX8P1NTifMnZSazssd/xxcj9jI1WrLlBMjEzO/U+USzx2Gh++6cGpTwpybXSYKw1cbckj5LETXTnyVfTlIfvuHbq29JYWjOz215UUv9EEtxUN7bSD/D4o3KMZoaVQQEgAADAd5R8Yk1/7ZnJq+aFcWTMzG777Zq8UhI3rjZ53mo75m6n94iSei+tf6MWS8rTd+6Z+qgojoxdc1OfG4yU05PMSgMOm7la6s/O9Lc9N9k6EMeBu2p26mtJ/d+S2N/4f3BfY6OVOWROKc/a1d/2LlEcobHRnqkPNalPSeLBulWuKeVXk1hd6sZ7q5kmI6fN7Jn6pjCOjOn+9l9PzeslwX6HiqmbVvoxLsw3m7Q0rJBxlwgAAAD2PnG9Zs3i4y/PG6xScITt7I89J8m/SOJGT9b7blrbe8gqO+Zf1fA3rqT+8nR/6u2SOLJ27Zn6UK3lnL0fKcAhNpeap+yc3f63ojg4M/3uq5J8WRLfN8So5b5D+sKfp/VuKp/yopnZqTcI4sja0d/+zlLKL0li9Tr+qN7mmjxdEjdqto7kSdP9878oiiP7qTEzN/asuA7F/k6OpLPyj3LxTloaVgYFgAAAAMlVpdbHX37NW68QxXLwqvnF/sJkkv+QxY1M5hfrL6yWYx1be+YPJfXxWn3/avLH0/3tfy2J5WHn3NT5qfkdScAhNVdSejNz2/5BFLdufFVqebEcfsAPb8zpG4fpBW9a27tdkp/UdDc2OKqvm5mb+gNBLA/Ts1OvSvJnklidFuZzTpK1kriR3qrWn9q5Z9tHRLE8xkkL/VYvqYox+b53alor/hhLHqChYWVQAAgAAKx2tdb6szNz2xWbLSNX5m1XlpTTk1wtjf0omTgmT1sdW3QsLv50XL+4sRPh/Tv70y+Qw/IyM7ftD5JcIAk4JPpN6hlWOT00pufu9uaSfFYSN/wwXdNZc8pQveDFamx0YxO75NNr55pnS2KZjY3607+W5GJJrMb35OCnpXCjc/r/s3Nu+3ZBLB9X5U27UvPkJLulwfXeqyu+ALDW8uMaGlYGk0QAAGB1K/UPXXRdnqb7U/9ZazlXEvvVWdOeO2s1vENLGTxDc+/Xt8vI4tOTixZEsezU0p87J1YxhVtrdpCcsaO//Z2iOFS2DpL6Qjl8X6ddc9dhGhulxNho/8nsXCxlyzcytUcYy81FCyNrRp+a5JuyWD02rd3y4KTcRRL79b6Z2WLV8GVoZm77f5Qa16G4wVBxFRziqceuP+s4TQ3DTwEgAACwapXkQzOzjZugy9jOuanzk/pXktjvGfyzK/0Iu53JRyTlh7X1D1hsSp4yfd0F/yOK5Wk6b9/dDMpZSeakAQfXz5XUp+zqb3uXKA5x/9Tf/o4k/ymJGxiaAsBuZ+KRJTlJk/2AOqj5qatmp74miuXpimvPu7yU8vQkA2msDs1i8zNS2K//GR0tZyZTi6JYpmOluW1vdh2K67luFRzjmoWF+bM0NayA8ZcIAACAVeqakvLTLrouf+3+3K/Hjer9qPfZPDpx7xV+jG4a7U+pL90xu+2DgljedsxPfTo1L5IEHETvn/ob0/3tF0ri8MRbUl4jhhv40eF5bxRjo/0n8xcKhpe/6dmpi5P8kSRWvs3pHZWSniR+sLNqUp/17Wumdohiedt3HcqK7qSujgLAlOTZybmjWhyGmwJAAABgdSrlOTv6U18WxPL3rVx4XQaDs5PMS+OGBk356ZV6bJvSOya1nKGVf6Dz+uTMbPclchgOM3N3/6Oa8gFJwC1Q89qd/e1/KojDp99a89okfUl811CsALgxp28sNcZGP9hp/PvafvObchiSsVG/vKgmn5bEyrbYqb0kGyTxA/58R3/7O8Ww/H0rF15XBtV1KFJSrlslh/oj3faun9fiMNwUAAIAAKtOTXnnzOzU6yQxPGbmL/h4Sn2ZJH7AZLJ1Rc7tm059cpK1mvgG5gd14ZnJq9yEGBpbB6Nl8NNZJasGwK1X3j8zN+bG02G2e/d506Xk7ZL4rttsSu+Y5f4iRzqjpyfpaK4bWMygPvMbmdojimExNVfr/8/enYfJVdX5H/98b3XXrU4CSbo6AQE1YBCVXUEdNsERNQoq6S7ZRHHUMDOOyywuP2fUuI06OjPijDqiMyIIBKo6cUAnLixBBREFlc2FyKKIhK6qTtJJum5V1/3+/kgCCaSz0emue+/79Tw+zwxbqj7n3HPPufdb5/ibRFFNuu/mrrNI4UlW9kT2fmJIjmpr8GcyfZokMs59fYa+7If22uvsPhodSC4KAAEAAABkzYZui99BDMkzu7HhY+Io4Cd6Wl/h7hPT+MXc7Uya9wlMnx1uLruLIJJlVWPwPrl9jCSAHYz70n3NfNfrKXKeHLHbV0jhcV3dOrDjpwHuzI2e7Au11tKfEkOyDDcH75DETq8ptal45KUk8aRB/K8oVk6e2Y31HxdHAWf82lWWrts5YbN1iSSj4YFkogAQAAAAQKaYbPGqxuB9JJE8K7U8MtNfSnLSeJy7l9L2nWbpdbNM/jJadysPdjV6PkEMyVRrDn2W4+6A7WrGcXvhyMgVVaKYHPXo0OskPUoSG8XmB3Xy55upc2Y7BTVP9Kc4sg8RQzKFUfQRl1iXp7Ftm61+SV0ksdWi/dJaY/Bagkiejc+hjOdQ2bYmU8OVtKCYH3gvzQ4kEwWAAAAAALLk19Vo9ueIIbmqjcoKM5VJYiv9UimXpi+06Yi7PE37OJO9c5UuXU8SSbViLGd6JzkA43B9aHVr2S8JYjItjuX6Hjlsus9aZ+8AmCtEZzA3esKw4f7uYZXXkEQyPaxrNgSyvyWJNN7SbYAUtrKmKx//AzEkV7VRvlHmV5BEZke1P2RvYqxP9hVKi2h7IHkoAAQAAACQGSa9h2Plkq8le7+kiCQes29fwVN1DLC5v55m3SqRG6pR+WpySLahRuWHkpaSBPDE+ZndVGvaZ0liKrL3/yOFjVydXQBobhz/u3WD/bjeHORHQQm3cX5r7IqWpoXpjNIcyU8mia3mOZ9YtW4ZO+4m/bZj/j5JG0gik9fwA1n82u7+xWKh/w30ACBZKAAEAAAAkBXXVaPKt4gh+dY0yve79B8k8Th3LUzLd5mt0kyXOP73cXEQ6++IIR0C2fskNUkCeMxIzuI3SuU2UUy+ZjP4rqQxkpBc1rEFgDN1zmxJp9BKWzSX27vFcYypYHH7fZJikkiHsTGdIY7/fbx/S/fPitZ9niSSrz669CGZLiSJ7IndHszoV8/J7ZJiYeBT0mJqioCE4GIFAAAAkAVusb2PGNIjjsY+IWk1STzWxV+Vlm9i+fhlkrpp081N65cNtcq/IIh0GIrKKyW/iCSAzRM0f/eqxuB9JDE11qpcN+kWkpAk369TP1kuH53K3GiLuaL5VbVW+VaSSIdqa+ntcnG0ZmqWLulZl05QIP+4Uss5vSAtzdkIPyVXjSSyJfD4gSxPu+R6X1/hriv69Jq96A1AAsYsIgAAAACQfvataqt8Gzmkx2p9c7WZ80v6x/v4s+aE/Qen4pvIeGn0uLZZ8AliSNnVmvN/ljRKEoCurzcG/4cYppa7OAZYkkn7MjdKhLgdxx8nhnQJzD8idiNNgVJe0kvJ4bE77K+qzcOvJIf0qOuytZL9O0lkS1cYPJj1DNz1eg/zd/YVFrIjNdDp82oiAAAAAJB6cftjhJA+7Ubwb2IXwMfzUJCGl8Mm0ytozU3cL69G5d8QRLpUNyz9kySKnpB1Y/HGIzwx1TfeQD8mBUnSXOnkTjy20mR6Oc2zKQzz8nBz2V0kkS5D0eC9Mr+KJJKtWPATJbFD1Obxyu2j0mKOt06ZoKkLTaqSRHY8sq48JGmEJPRM9+DaYjjw+Zk6ZzZxAB16nyICAAAAAGlm0vJaa+lPSSJ9hlVeI9N/ksRjfX1B0r/DrO4zjpC0P60pSYrZ/S+9PIg/JalJEsjwVfCF4Wb5TnLogJtNI7xdEgUKUtA3bd+5nfah+roXHi3paTTPxoGD3f/SPBjpY4xFCb9AXa8khcf8utq0MjGkz5DK69x1IUlkzu1EsHG+LOkdXYXmymJ+4H2bdn4F0GEXKQAAAACklpv/GymkV1dX+z8kNUhCkvwl++n0aUn+BjnrWkA7PuZb7P6XXvXRpQ/JxU43yKqRZj5PEU+njEe6bK2k35KEpFaz444BdssxN9qchWw5u/+lV605+GuJI8mTzCSOK9+chfm/SeU2SaR1umBflLSeJDLlJ0Sw1aSsV6ZPFUO/o1gYeGOH7qINZBIFgAAAAABSzO6qNQavI4f0WrVu2aMU0Tym0AgLJyX7kvVTacbNWejzhJDyJnZn5whks++b/m1k5AqOTuskrp8RghQHQV/HNQ3H/26ZBvfN9E+OaOOE6u1ZeICk55GEZFK10Ai+QRLptVblussvI4kMzUDcbyWFbTpErq/3hn2/6SuUFiX9R8lAGlAACAAAACC13PQ5SU4SKV/Yun+OFDYyi09I7qdf1C3pxbSitLF4uXI9OaRbtTX4M5N+RBLImNVxI2R35o6bMxsFgBuDmN1JH2e+FoQmfyENI0m6ux5Vvk8M6VZrDF5r0h0kkcA1eTt3EilsvpX4lx9SeZQk0t7QwYXieWN25JwdALfDpIPc/ctRGD7cG/Z/uZg/87mkAkzRnIwIAAAAAKTU2kKjcQUxpN9Qa/Dnco7jkCR3S+yLl96e4WMk8Wvhjb4oXiZk5KK1LxECMsX8C5uOnEUnDUVBmwJASWbq7aTPs6Yw/YWSCrQMc6NMjUfSl0khiVPaJP8QbUK13fy/iCH96s3yPZJuJImMtPfo0ock/ZEkdmimyRbJ2ncVw4HvFQv9b2BXQGByUQAIAAAAIJVcvuRhXbOBJLLBTF8jBcmkF87T+Yl8UWxtP5EWlCQ1xqLuJcSQDTOa05fKNEwSyIjIAv8CMXTgvHk0vpsUJLl31A6AcSzmRo/NjfL8sCsj4sguk8TuaclbzbED4Mb1+Pc3FQohGw3Oc6hsNfgtZLDTAkmnyu3SKAwfKeYH/qcvLL06qc8rgaRdfAAAAACQwtWO8yAuQ+IovEISBZ9SuKZn/TGJ/OTGS25JctOyNbqcgrCMeEAXN+ROwScyMsD5FdUNS/9EEJ1ntb65WqY692B1VAGgMTfa3C7fZG6UHcMqr3HTN0kiOfZWqVcSxz1Kip3nUFnS07CypNUkkZn5yHJS2C17yfRml39rJFxXL4YD1/QVSov2mXHGXKIBJh4FgAAAAADS6Nf10aX8MjND6rpsrdwHSUIK2p7A3RcWBzIdT+tJcl1MCBkT86IQGRnecsFFpNDR7iMC7dU5H6WUc+k4mkSSO3OjzLW5MTdKkHyoE8T7ZslU721u+F96RHY8pPKoy68iiWxodXf9r6QxknhKeiSd5u5fHmvlHu4LSz8q5gfeNyfsP5hogInBhAwAAABA6pjxAC6b7W60uyS35L0s7s3f+Vx5Z+26MyV9WKrWo+r19OJsqbWW/tQpvEH63VkfLf+YGDr6HpT5ccjcw075LHO6dbikvemZGqpHteuIIVvq0dANkoZIIiHrTzk/5Np4D1m2UssjkshYu/McKjNGRq6ouuxmkpgwOZcfL9OnYtlve8OB3/WG/V/uzQ+U9trrjCLxALuHAkAAAAAAqdOO4zIpZE81su/JlPnjwUxK3BHAFtgL6MFSLF8qreAX5dm8biukgJT38UtIobO5dH/mQwiU75j1TE7MjTb2S+ZGmbRizMUxwAnCeCUpFoVgWVRr2ApJj5JEZq507k17br14kMkWmemqfDP3aDEcuHtzQeBslWaSELCzS1oAAAAASJffDDeX3UUMWVRuKta3yUH7zJle2jdJH9hcR9NskpkoXs6q2DjCHGnmY9ZFkWun34Nk7ETqQcfsAGjuzI2YG2X9gmRulJj7h46ku6pWj3pvoDdkUbntEkc/Z0Tbgm+SwqQIJD1vc0FgEPpQXzjww2Jh4GO9YemVvTqXXbKB7Vw8AAAAAJAe5ssIIdNof0kai5+fpI/r0lE0mlbXGrUVxJBNtVb5p5IeIgmkkuvW1Y0lDxBEpzdTTAGgOucIYJMxNzLVa43qjfTLbKpHxeslrSGJzja7p/QMl/pIwq+RLmqRQ1bnUDyHyoo1jfL9kn5OEpOu26UT5Ponky+3MKr3hgM/L4b9/9GXHzir2FPan4iAjSgABAAAAJAqpuA7pJBd3gyvlZT5B++x2/MTddlSACgzfZ8j7rI9fJn8u8SAVHZusTtvItopDh4mhU45Anhx4PLM76hlcuZGmXZRS9J15NDZgnayfni2B+c6y0khu6ZHtkLSKElk5Xq3r5PClMuZdJRkf+OmKxT7Q8Vw4OG+wsBVvWHpXX3dpRdIi6mDQjbnZkQAAAAAIEVGqo3ZNxNDdtV12VqTfpL5ICw5R+rODc88SNKsrDdZLKP4K+t9wOkDSOktKeffI4XO19XdVSMFdcQOgH3h3QdLmsHciPti5u8fRh/o+DYKxHHlUnusGVxLDNn1kMqjkn5IEtkwFulSSQ2S6DhPc1fJ5J/zwH/WF961qrcwcHlffuDcfWeU5hAPsoICQAAAAABpcj3HrsDdMr8LZJKO1G17+0h6rSTLUSCTce1m/lpJbZJAusY2DddGg58RROd7dP1e9Y1TiCxPoKwjCgBjZ2dkSR4EXRR/ZX1uZGJ3/85fezNeuW5dq3Kd3pD1buCMVxmxVuW63Msk0enXpPrMdbabvtFq+SPF/MAtvfnSh4rdC49ld0CkGZ0bAAAAQJqW99eTATzXzvxRUSbNm6fzCwn5uM+h1/pv66NL/kAO2bZGlw/L7HaSQKpGN7cfS2UKWxPhopakkYxPoDrkCGBnbiTdU92whGOpM254tPx7SfeSREff6TM/Xlkgdv+D3DmyPEvaHv+rsv7DmWQJZHqRmX9EQXBrX3jXqr7CwFV9hdKiOdNL+xIP0tXZAQAAACAtC5yYIzcg1Uf7bpO0IeuXw9r8+oMS8lmfnfU+axwXhM19wf1HpIBUcf2EEBLVYBnfwcg7YgdABTqEoUPcD7GpM/hNhNCpFnVLdmDWU4jdWMtBw83D75JpmCSyYXVr2S8l3UASiZ1n9rmr5O5fjsf8oWI4cF1vYeCtM3XObNJB0lEACAAAACAt1g21ancSA6SLWi7L/HGDpjgphXWZLwCMzXixiY19gZfcSN/N6FZCSFJ7WS3jCYSdcdkwNzLmRtjEA/pCp+oLhw+S1J3xGNoeMdeBJC2OzXULOWTo/iT/F1JIhZykl5rrK11h85FiWLq6L99/9j46bzrRIIkoAAQAAACQFj+WVowRAyTJjCIaySgATIgcu75hk67uPH0B6RLk7iaEBHFlugDQNr4A7IR2ODjrXXGMHQCx+bqMc6zrOlb8bDKwXw6rvIYcIEnuFCxnST0a/K7LfkASqZKX/HQ3u3wsHK0Ww4FrevMDpflaEBINkoICQAAAAADpYPopIeAxMUcOmnnHv5DZa68zijIVM95Uq4eiwZVctJCkR9dfsUrS70kCKbGhPrrkIWJI1NyBo+um2JzppX0l7Z3xGIbWNMr30xsgSbXmlb+WtJYkOnHJHRxMCs7uf3i8N7DzdeYE1l5MCqlVkHSama4aLkz/U1848JXentKfEQs6flwiAgAAAABp4LH/khSwWTvoynx/SMILme6xLnaNkH4pyYkBW/gFESAVczPZvYxvSZtPa5QUprgN2jqEFPRzIsCWl4VvnC+j85qG48rNGK/wmFZ+7HZSyJZqY+kNkr5HEqlf2M526a0W+83FcOCOYlj6m1l63SyCQSeiABAAAABAOhY31vULUsBmqxtLHpQp07vYmHxex1+37Xhe1vuq8ZIbT+wT5tzPkJb70B9IIVncrEUKU9wGYm7k4oddeNL9hD7RmeuYgzI/XrX54Q4eNzKyrCbpjySRsXHA7W8lMYfOjsMl/49c2PVwMT/w37O6zziSSNBJKAAEAAAAkAbrq9FzOUITW3J55neKeJq0uLPX/Wb7Z76jmvFCE1v3iZg+gXQw+SpSSFqbqUkKUyxmbhQ490EwX06IrI9X7bDVuItugK3GKzFeZU29Wb5H0pdIInN6ZPqLXJD7RV9Y+lFvfqAkndxFLJjytRQRAAAAAEg806+lxTFB4Anuzvj3754z/e65Hf4Z98t8L23rHi5VbHVLsxwvEpEKbvYoKSRtSk0BYAc0QubnRuZ2Nx0BW8+N/E5S6Mjx6mkZT+C+h3XNBjoCtr4snLVcBrWjsQ9LepgkMrrulR9vpquKYfHXfeHABfO1ICQVTBUKAAEAAACkYKGte0kB2+gXmd8V0psdviuD6YCst9FYq5vxC1upRjPvlzRGEki8WOsIIWHzBqMAsANkfW7k3op+RzfAlppdefpEh9lPp0+Ta3amBysZ6zg8iZlzOkkGrdY3V5t0AUlkfgR4lkv/NRxO/31fYWDxLL1uFplgslEACAAAACANCxsevGJb/YIHr0FnFwB6nPFjo1y1Nbp8mKsVW7uo5dLvyQGJH+LMGqSQLOwA2BGNkPUjNf9U1dUjdARsaWTkiqpMzJk7SCvMZ/64clPMcyhsawbMc6iMqkaVb5mpTBKQNNddH84Vun5XzJfev4/Om04kmCwUAAIAAABIPHZ6w7bxi3xXp+8A6PvRR4Ft9Azua0hFP3YKAJM2b4gpAOyAydv+2f76xv0P491V6BuddK2a7U8K/BAVTxYb/SLLWo38BeLHfHh8Ytsr80+2w9EHivmB9x2gUg+hYE+jABAAAABAGhY295MCnqga6X5JcZYzMPOndfgn3Dfbg1d8H1cqts056g7JvwfJY1JInBYRTKXFgaS5mR43nPsfxrunMG/uKHGnrzMnYbaugPEKT1IfXfpHSfwIJqPW6PJhmb1ZGX8WiSfeL9Qn06dGQ/9tsVA6b9OcH9gj6FwAAAAAUrCw8T+SAp6s3JRUzXIC7prVqZ9tP50+TVIh4+3D2IVxOoc9TAgAJpuZ2qQwdWbqtzMl5TLdBwM9RE/AtudGzJs7a6qq3sxn4GOMVxjn8tCfiCG7ao3y9TJ9iiSwDQfI/ZJi4a6fzCkMnEgc2BMoAAQAAACQeN2NgIdr2CaXZbtvuM/q1I/WnDZ9Fj2UFwMY59INnAJAAMiaQivzcyN3Y26EcdA3OmyymvnxaixkLYfx7mX0jayrNexDkn2XJLDtQULHxK4f9BUGrir2lPYnEEwkCgABAAAAJJtp+CGVRwkC2170ZryIxjr3xUw81p6V+Q7qAUVe2HbXoAACADIn346ZG3nM/Q/j9A0KajqqOaxzf2g2SaKRkWV1egK2ycQ6P/PK7bGo+2xJK8kC495LXSXF/ptifuB90sldJIKJQAEgAAAAgKSvlh8hBIzfPbL9osjVwS9mcpqZ9f4ZBGL8wrav3bjNSyMAyNrYn7PMz42Uo8gL402cY+ZGnSXr49UjkpxugHFwL4PW6PJhd3utTMOkge2YLtOnimHfrXO6+48mDjzlKTMRAAAAAEg0Nx6kYDvdQ5n+Vb5Jszr1s+XieHbW+2c7HqtxlWKb125XF/c2AMjavDW2zM+NgjhgboRtGms7u6111jpzdsYDqNILMG73yPhzKDyu3izfEyh+naQGaWAHjo4Du7VYGPjUfC0IiQO7i60kgSRw/W7jmgo7kdUQIQAAkC1mWkMK2M78cG22Z9KduwOgezBLlu1NEywXMn5h231jNL9aYUQQAJClWVvgszI+NVKuW2vE7Q/b7BzhGvkYOXTObHVWpjfAc55DYXyx+xrjlS42GWos/UFvvnS+mV8uNufC9nXJ9b56OOOVs73/jcPNwTuIBLveiQB0/lLqhTqdFAAAALYtNq0mBYw7l856/3Cb1rHXbuDTsv6SOxjdwPiFbarrspGiBmLxggAAsjNvdZ+W9d+Az1i3bi09Adtc1jSCNWI/nA5qEJ+W8eGKAkBs54YerJVzQjS2WN83y1f2FgammeurrPGxwyFEfqSZ3doblt5Xj8qfF0fOYxcwwAAAAABI9qKYX15jux0k4/3D1N251651Z7x3xlVdvY6LFONwSSPEAABZGvgzPzdqrNRy9v/DNq1Ra614Ad45AuUzPmCvphNg/JV+TP/Ak9Qbla9Jegf3Muyk0OSfK4alpXur1Esc2PkpGgAAAAAkmEmjpIDxeOzrMx5BB7+Y8ayfSrBBPPjF9lEgCgAZEmS9ANC1nl6A8ZXbkhrk0CGXa9Z/zGXM07G9/hFwP8M21aLKFyV/h6SYNLCTd9zXdYfxbXO6S0eRBXZuTQkAAAAASV4Gm5qkgHEXvRa0Mh5B5+4AqIzvGmFqcYViB8aIAAAytK5x5kb0AuwAfaRjLlfvzvj3py9i/P5h9A+MrxYNfsHczuOehl0YVebFgf+4WCidTxbYEQoAAQAAACQdD0wwrjYP5nPS4o5c+2d+1whn7AL3NwDA4yzwjB8BTMEEmD8nSKbHKzejL2JcgWL6B7ar2ixfbrIBcaoNdl5B7l/rDfv/pVOf86JT7kEAAAAAkGAes0MStrPo5ZfXmq+fdOTLGVfWX3IzdmGH2OEWALK0rsl6QY0oqMEOsPt/J12xWV/LMV5hXG3L0T+wQ9WofLViO1nSI6SBnZ8K2XuK4V3lA1TqIQ1sCwWAAAAAAJK+8KWIBttZ9HrmXxKtVndHHicXBN6V8aZh7MJ2UQgBAJkb+DM9NzI5cyPsCHOjzrlis12wzA9RsR3BGMXK2Dm1VvnWtsUvlnQnaWAXLGyE+v7eKvUSBZ50DyICAAAAAEnmctY12E7/UC7rGcxQb0e+KItjizPeNIxd2C5j/AKAjA38nvG5kTE3wo4wN+qclXamx6sgkNEHMO7VwViFXbC6sfRBi5rHSzZIGtj5ccaPz4d+w9zpZ+9DGthqjkIEAAAAABK9qAnUTQoYT+yWz3oGD2h9RxYAGjt4dHGFYvuc+xsAZIhlfudXZ26EHWFu1ClXa8bHK6cvYjviLuVJAbuiqqtHalF5wMwuEM/KsPP3oiPaY60be3vOejppYDMWVAAwVYuApq7v6vbnk8TOWsG2+gCAcRa7FEhgfIGs2zM+7ZTK7U78YGbWcmW4dZyXRtjBNSLlnRgAIDuTtlgty/SeUsbcCDuaHHWLyVGnzFOzXaDivF/H+HLe7nb2YMJuqDbKF80pLPx17PYNySjqws44RPHYimJP6aTaaPmPxAEmKAAwRYZVXqOWfk4SAAA8Ne7Gugbb6x/dsky/JerYFzOxvJXtd9w8k8EOxi92FgGAjE0NrKVsVzdx38OOJkfsqtU5I1amxytjvMJ2xB50c0Y0dtdQY+kPZqt0eJD3/5TpDSSCnbgnHaTYb5gzvXTS0PryIySSbZSfAwAAAEj6IreHFDB+//Aw4xG0OvjabWa8bQpcodiBkAgAIEPzVvOsH/nG3Ag7QgFg58j0Ws6Zp2M7Ap5D4SkaVnlNrVk5T+bnSVpNItgJB7fH9J1Zet0sosj6PQgAAAAAksw1kxAwLvNZ2f7+nftixszGMt47w/lawIsBbA/3NwDI1LIm8wWAM6TFvLPCNu2n06eJXdc6aZ2d7bWca286AcbtHhbMIgVMhFpj8Bu5ru7nyP1S0sAOb83yI3Nh1zd51phtLKYAAAAAJH11y4NXjMvdst0/XFHnfjRvZL1/rp0+axZXKbZlns4viF1uACBjyxqLMh5BMFt370VPwLY0p3Xzw4iOWmcr2+OVGf0R27lAYp5TYsI8uv6KVbXm4Bvl6pf0MIlgB14ynJ/2X8SQ4QUVEQAAAABIMpfNIgVsZ9Wb9f4x3LGfLNaarHfPeCzmxRG2af309dzbACB7C5vMz43Uw+63GOfyGOtmbtRBTNker1xOf8R2Ogg7AGLi1ZqVpRY1n+Pyzyjjx7BjRzdpO7+YH3gvQWQTBYAAAAAAEr6o4cErtiPrR0R38ItkC2x15rtn3OIlN7bdN8YogACArImNuZHa3P8wjtwYO2p11joz4+OV0R8x/uVh/NAPe0ZVV4/Uo8H3muwIk75DIhj/NqV/LhZKLyWI7KEAEAAAAECiubQPKWB8lun+4WYduwPgWHtsdeZ7ZxAwfmGczqF9CQEAMiZoZ35uFAQxcyNsW9uYG3XWXHU421/fGaswfv9wo39gj6pG5d9Uo8oCl71csttJBNuQk/sVvT0LDyCKjK2niAAAAABAws2RTu4iBmyT+35Z/vpm8eqO/XA5drmR2X5cpNim2J9GCACQsWlBm7mRFHD/A/PmRDRH1ncA1FyeQ4HxClOtHpW/X4vKx5jrbEkrSQRPvFdZnLtEWkxNWJZWU0QAAAAAIOnrmmLPHH5di22zjBfReOe+SLZGbnXWu2dMkRfG6xu8NAKA7C1quoPMz40UO/c/bHvtYMybO2udqTVZH7L7pu07l46AcS4Q7mWY1A5XbVaW1KLDDnHX6yX9mkiwRfc4pS+86+/IIUMTFCIAAAAAkHQ2FvMyANvsGlLGj4qyzn0xM6zyWkntjLcPYxfGwUtuAMiamevXDWc+BIq8MO7UiHlzJ4mNHUvValHkhfHQNzAFFsf1ZqVciw47dNOOgHeSCTZOofTx2fkzDiOJbKAAEAAAAEDixRbMIwU80dzpZ8+VVMhyBu62qpM/nqRqltsnkJ7JlYpt9g3TM0gBALJlpZZHktZmOwXj/ofxFg70jU6aq7qGMt8nLXg6PQFP1Ktz95Y0iyQwdRbHG3cErBwRB3aipG9tvI0iw8JAua9yFHBG5mhEAAAAACDpTJpPCniiVjx2cOZD8PihDr96/5jp5mHswnh9w8X4BQDZ9HDGvz9zIzBvToJYf8x6BGb0STxZ0D1Kv0DHGB4t/6gWVU53t8Nc+oqk9aSS1ZuWXtQX3rmIIDJwHyICAAAAAIlfw1rMAzY8uV+4U0CT805/MZP1F0fzpEXdXK3YhmcRAQBkUtbnRvPZnQRPVsobOwB21lo7TwFgLJ5DYRv9wnI8h0LHqTfL99SjyiKPwv0k+2uX/ZJUssfN/nmvvc7uI4l0YyEFAAAAIPkLWBkPXvEkJqeARvkOfzHjWX9x1DUnHOYYYGxl7vSz95G0N0kAQCYXNlmfG/X09tyxHx0BW+oLdaCkLpLoHEPrD31UUivLGRjPobDNfsHOkOhcdV22thaVv1SPykcp8Be79GWZhkkmM+uM2flm64MEkW4UAAIAAABIg+cSAZ7E7ZCMJxDXR/d+pKObyDN/zJ1c/hwuVmzVJ9rRIaQAABkVsKuWuTE3whOXNc8mg06zOJb8kYyHwJwd2xqv6BdIhNro4E/qUeUvZzfWP83krzFTWVKTZFLvr+aE/exUmurlJAAAAAAk39y+aQufRgzYmh+d8QBWSRd19q4MQeZ3AJS7Hcm1ii21PXc0KQBAZicGFAAyN8ITxB4wN+rI8SrI+ni1P0cp4sk3MTuKEJAkK7U8qkaD11Qblde3InuazN4s6VuSItJJpe7Y7cPEkF4UAAIAAABIhbid40URHtOn1+wl2YGZDsHsoY7/jB78Iet91QJn7MLWfcL9CFIAgIzyBMzf9nQEztwIT1zWiLlRZ05aMz9e5Vstxis8Zr4WhJLYxRaJtVbleq1RvrgWVU73KJxrbudKqkhaSzppun/rrDlhiePKU4oCQAAAAADpWLvyoghbaPeER2Z+zRv7bzu+nUwrs95XecmNJ9/Q2DUCADI7L5Bnfm5kxg6AeNJ1wQ6AHXmxMl6xmzu2tLq751BJ3SSBNKjrsrXVZvnyWlQp1SKbI9PLTPp3qfOfNWKHcrH7/yOGdKIAEAAAAEAqWKAXkAIeW+zGvCRy6d5O/4xrGoc+KKmR8dFrfq/O3ZurFtLmXSP8UJIAgGzqbW5YKamd8Tnscw9QqYfeAEmapdfNMulAkujEa9UyXwRiznMHPC7O5egPSKlys9aoXFeNKn9XiwYP6TJ/lpkvMvMrJT1KPkm8gencfWeU5hBE+lAACAAAACAV3HU8KWAzM53Agj8Jv8pdHEu2MvNNFUYv5qqFJNV6eo6RFJIEAGTTSi2PTPp9xmPojgrtY+kNkKSusPt4SUYSncctpgDQeA6FLfpDHJ9ACsiCVY3B+6qNwa9UG4Nn1aLKvrH7kS57tzYeF/wnEkqEsNX0txJD+lAACAAAACAt9ptVOGseMUCS3HUcIXT+DoCbPmjmXxwF5rw4wsa+0A54aQQAmZ/CsatWHHM/xKbrgXlyxwpzucyPVS4d2Nuz8AB6AyRJZoxXyORQONwcvKMelS/ceFxwZb+ccvNlepNLX5H0ayLq1DFLF0iLqRdLGRoUAAAAQGrk1OJFEbSpEDTzD+HbrSAZBYBGAaA7Lwqw+XqgLwAA/DeZT4D7IZgnd7xH1pWHZKpnPoh28Gf0Buwz44y5kg4mCUB6NLryd7VG5ZJ6VFlUiyrP7epu72Py18j0aZlukxSTUkd4Zl/hrpOIIV0oAAQAAACQGu7GohXKaYx+ID0yrPKaZHzU4Dc0l148Xws49jXzSjm5s3spALCq4VhN+XHSyV30hWybp/MLJuc46E4Ws2OpmfP8AWo1u+gHwDhWrVv2aDUavKbWqLy/1qgc41E4W+anUhDYCcsOnUsI6UIBIAAAAIDUMGkBKUDyV5CB/TIxn7TdvoP20vThwgx2N8m43p72sTIVSQIAsi0wv5MUNKu3p++FxJBta8N1J0nqIYkOXnkzXknSy4kAgfEcCthZdV22ttYYvHZzQWArsjkme63kF0r+KxKaxPu4NCCV8iSRovsREQAAAABIkQOK+TOfSwxZtjiQ28syH4P57Un5qNVW7i5Jzcy3mfPCIOsCD15JCgCAdqPnF2InFAXMjZgb8cOuzl92yn5OCvbsfQr9B5FDxpfzFIICu22tyvVqVL66Fg2+uxYNPi/osqfJ9CYzlWUaJqE9alax4CcSQ5rmzwAAAACQIm5jFFBkWLH7jhdImpv56yBWgl7ElJsuy/wvfE1i7Mr8dWu85AYAqK7L1kq6L/P3RRlzI/oAfaDT2yhoUwAoacwD5vEZNjt/xmGSnkESwMQYWl9+pNaoXFJtVF5fa9gci+0Yud5vspvEj2QmnLleTQrpQQEgAAAAgHQtWhWcTgoZbv9cwEMLSTnzXySq3Tw5OxbuKS4dPqtw1jx6bzbNnX72PjI/liQAAJJkJopqXMf0TVv4NHpDNm3aUe15JNHZCqOtOyS1Ga50Gr0huwLleA4F7DHldrVVvq3WrHy6GpVP6OpuP03m50laKmkD+UzIPWwBKaTpngQAAAAA6Vq2voQXRRlufVeJFLR2KBpcmahPzEtuSbIuHxsghmxqj40tlJQjCQCAlLTdnPeYwNu2kBiyaSw25sUJ8LCu2SD5bzO/kJOfOlPnzKZHZPVuxXMoYLKsWrfs0Vpj8Bu1qNIfRtEcufrlukzSWtLZbYfMnX72PsSQllsSAAAAAKRtndMOXkMM2VPMn/lcsUuEXPYLSZ6kzxwHxktuSe7iRWd2W7+fDAAAj90VjLnRRhSBZXhVz9woOQPW7YSg7q5Ck9MoMmhW4ax5cj2fJIDJ97Cu2VBrVpbWmpVxPJ8zAABYXUlEQVQ37BXN2MfkrzFTWVKLdHZtwt1utY4nhrRMoQEAAAAgZVz8+jab7d7mBaEkk9+StM/cM9q4XTygk0wvnN1Tega9OFv22uvsPkkvIQkAwGat/NhPlbAfdOwhJ7IjSfbM7ik9Q65jSSIh63Czn5KCJKdgOYs27eJvJAFMrQd0caMaDV5TbVRen+vqfrpJ/yBpJcns7C1Mx5FCOlAACAAAACCNTqGIJnvMdA4pSCb9MGmf+WFds0Eudo6QLGj7G4ghW/LN5jmSukgCALDZyMiymqR7SEK5sbEmc/yMCdo6TxTUJKe94vYPSUGS/BX7zijNIYdsiWWs34EO8+j6K1ZVo8q/1qLDDomlV7n0bUkxyYzPZEeSQkrmZUQAAAAAII1rnU0vDZARcwoDJ0p6DknIm5HdnMgPbv4Dmk9y01vEC89stbnszaQAANgGimokmYK/IIWMNbn5+cSQHNVW7peS1pCE8s1WTDFYhvR19x9jcopmgI61OB6OKsvrUeW0nHLPdvlFksbIZVsYy9KCAkAAAAAAqWTmFNFkSBzrLaQgSbprrcr1JH7wgJfcG8cu6aA5hYUnkkQ29HWXXmDSUSQBAHjSnMCNuZEkyQ8rdi/kONiszI0KC0+WNJ8kkqTcNunH5EDBcubuToHxHApIiEejK39XjwYvCOTPk/ulYkfAJ5rDLrbpQAEgAAAAgFRy6cBioXQKSaTfLL1ulkwDJCEpwUV0zSi4STyAkyTFsb2VFDJyrwqctgYAbHs+kGuzO/Jj98vgbaSQlXU88+BEtpuL8WpjEocVe/pfRA7pt4/Omy7pLJIAkmUoGry31hx8o8X2QrluJpHHtaL2PFJIPgoAAQAAAKSX+7sIIf26wu63SZpOEpJ5cgsAN+1ceDetKMnszL5pC59GEOk2U+fMljiuHgCwbfXRpQ9J/gBJSCa9Ya+9ziiSRLr1TTtrP7nxw64ECgL9iBQ2cb2TENJvLGy8WdIskgCSqdoq31ZrHnaim94maYREJLfcQaSQfF1EAHS+3nDgIpOeSRI7Zq5Lqs3KZSQBAAA2Ob0vLB1Sjcq/IYq0KuUk/ytykCS5uuIb1Uz0V7hessNpSuUV219K+jBRpFdXvrlIFC8DALY7NbLrZeJISaknH+UWSfokUaS4u8djfyUpTxLJM7Ox/tbhcPo6STPoyFYq9pTeWxst/5GekVaLA+nOd0hGFECyr+W43tBX54SlFbH5FXIdk+U0AvMD6BPJRwEgkAAmP0Gy55LEjsViu14AALD1VMrlb5f4BXZa9ebj17nsQJKQZLq9umHpn5L8FVz2fyaxc6ckd/vLeTr/kw/o4gZppNGiblnt7bw0AgDsYG603OQUAG6c675dWvRZ6aIWYaTPASr1jLpfQBLJtFLLo6IGrpf0GtJQt9zfLukDRJFOfeHdC1z2bJIA0mEoKq+USscXQ79Q0l9mdt1h3kdvSD6OAAYAAACQdm/jKM30siB4HylsykL6v6R/h95o/Y2S1tGakqS5I+HIW4ghnXoLtfMkezpJAAC2q5n/niQK3jbav7cw/EZiSKfRMH6bpDkkkegV6XfIYBPXX8/UObMJIrUN/H4yANKm3KxFlb+SK7PXt7sV6QfJRwEgAAAAgLQrxO3g74ghffrC/tPlfixJbBSbLU/6d1ip5ZFLN9Kam9n752tBSA5pU8qZGy+NAAA7VNdla132Y5LYNDNy/6BU4ojYlNk437X3kkTC16OBvk0Kj5mZy7feQQzp0xuWTnXpBJIA0qnWrHzapb/N4ncPTDPpASloRyIAAAAAkHYm/dU+M86YSxLp4hZ8kBQe6+TD9VHdmo6v4stp0MccMBzO4Ni/lOkt+BslHUwSAICdmhu5mBs97pm9BT+XGNJlOJy+SNL+JJHwdhwt/17yX5HEprHb/O9m6XWzSCJtnOdQQMrVo8rnJH0hc6Obix8gpwAFgAAAAACyYPpYK/gAMaRHMT+wkN3/HufSd6VyOw3fZcyC/6NFt2rdf9xH500nh3SYrwVh4OKlEQBgp8WKmRttwdw/NE/nF0giHTbNc9kZOTXrUmO8etzMrkIXp1GkyJyw/1UmnUgSQPrVouq7JV2XqTm2KABMAwoAAQAAAGRlGfvXfeGZzyaHNFjULdOnyGELsS9Ly1dZ0yjfb9IdNOpj9m/lR/+BGNJhdTjjnS4dSBIAgJ013By8U/IHSOKxdd28kfy6d5JDOrQLo++RtB9JpEPO4qtJ4XHu+vvenoUHkEQanNwVyz5DDkBWrBgbM3ubpNHM3LOoHUsFGhEAAABAVnS72hSNpUBvWH+7OD5zSxtyzXTtmueuMs36ODO9r7fnrKeTRLLtrVKvm7PDDQBgl6dGkl1FDFtOjvRPc6efvQ9BJFvftLP2cxc/dEmRocYRP5L0MEk8Zpq1g08QQ/IVwzlvk/Q8kgCyY02jfL+7ZeZdgkstWj35KAAEAAAAkCVnFAsDf04MybXPjDPmmnF85tZs+ZDK61L1jSzHS+6t9Vi7xYujhOsO/RNy9ZIEAGCX50ax8+OIre01Ntb8KDEkm4+NfVrSdJJIk8WxpEFy2HIA1xuKPf0vIojk2lulXsk/QhJA9kxr6jMyDWfjdmUUAKZAFxEAwNR4VItntMKe/Uli5+wfve83pAAAmBCuL83T+Uc8oIsbhJE8Y83cv8kooNmqS3ucumK5anTlb3vDgV+YdBQtvInZecVC/yW1xuC1hJE8xZ7+FynWIpIAAOzW3Kg1+LNiOLBS0nzS2DQ1kr11ds/CS4ZHl95EGsnTVxg42V3nkkT6BKZy7HoHSTweiWL7irToBdJFFFckUHfePyNpDkkA2fOQyqNFH7hU0jtTP7c2b9LiyUcBIABMkbFceGrQ9qUksXNci7tNi8dIAgAwAQ5eV1j3ATX0IaJIlr7CwlPcdQ5JbCV1x/9uZq6yjALArSfF9qV5Ov9wCpiT5uQuj4Mvm5yTOAAAT2VyVJEbR8k/Lgji4MvSoqMpqkmW+VoQDrv+S5KRRvoMNSo/Kob9f5Ds6aTxmMP7wuF3VyN9hiiSZU5h4Umx680kAWSXu19kZqkvAPSYI4BTsUAiAgAAAADZW7jrfbO6zziSJJJjjkozYg++Kl4SPdH/pe34380CM44BfrL5I4V1i4khWXrzff9ocu45AICnxNocA7wNh/bmh/8fMSTLcDj9o5IOIYnUcklsfPCkUHzxnLD/YJJIjv10+rTY7SviORSQafXm4N2S/pj+xYZGaO3kowAQAAAAQBblc0Hu8gNU6iGKZIjzfqFJB5HE1kz6elq/21BUXinXzbTyE7je01cYOJkgkqGvu/QCM/0jSQAAnqpqa+ntJt1BEk+YD5t/sNjT/yKSSIbZPaUTJP09SaT8uoyDS0nhSabFZpdLi7qJIhmiMPxXyZ5NEgAkuyX9X1F12jn5KAAEAAAAkFXPa4T+CWLofMX8wGtl+guSeJJHqlH1O2n+gh7Y/9DMTxK4+yUzdc5souhs++n0aR74ZZJ4yQcAmBCx/GJSeJIuxbpsjkoziKKz9ercvYM4vlRSjjTSrdoq3+bSL0jiiQtcHdNXqPPjoCSMV2H/KyRdQBIANo7ffmvav6K5raahk48CQAAAAADZXbtL75oT9r+KJDpXb89ZTzfTV0liG0xfk1aMpfkr5hq6UtI6GvtJjf/0XKH5RXLobFE+/E9xvB0AYALlu4NvSGqSxJPmRs+K834hOXS4QvRfks0jiKwsV8WPubbBXf84p7DwJJLoXH3TztrPZF8XR/8C2CzQI2n/ijE7AKakqwIAAABAhtdEsdk39in0c7RsR1rUbe2xJS71kcWTeODp3x1vSOV1cl1Fcz+Zuc7qDUvvIonO1FcoLZLpzSQBAJhIj6wrD0l2DUlsa3Kkv+gr9L+NIDpTbzjwbnOdTRLZ0YrsMkkNkniSrtiDq4o9pf2JohMt6o7bY0sk7UMWAB6bZrrVUv8dYwoA04ACQAAAAADZ5po95lY5QKUewugsvWH9P2Q6jiS26cahqLwyE5doTv9Nc2+byT8zu6d0Akl0lmL3wmPd/fMkAQDYE2I5c6Px5o1un+/r7j+GJDrL7J6Fx5v0LySRLWtVrpv5/5LENu1jsa6UFnUTRYet5cLav5l0IkkA2FI7aK9O/0Raf6Slk48CQAAAAACQjm4U/GJpMWukDlEM+99u0gUksW3m9pWsfNf6aOVmSXfT6tvUHcQ+OLNQOpAoOkNvz8IDFATLJIWkAQDYE4Yj+56k35PENhU8sG/29iw8gCg6w8xC6cAgDgYlUeiUQS59lRTGy8aP7wtrXyKJztFXKC2S7G9IAuPZR+dNJ4VsCjyX+mc8uXzXg7R0CvoqEQAAAACA5K7XFwt3/TNJTL3Z4cACyT5HEuN6uNpUJUtf2MwvpNnHNbfL/f9m6pzZRDG1+vSavRQH10jiOC8AwB5UbpvsP8lhXPtbHHxntkoziWJq9ercvbvc/1ccpZlZtcbgtSbdQRLb5rK3FPMDHyCJDhivwv5XuPsXSALbM1YYXVEMBy5kjpFBsdLe5o1H11/xKA2dfBQAAgAAAMBmrvcVw9JfEcTU6esuvSCQrpLURRrj9tP/lMrNLH3lQiP4hklVGn9cz+kKm8vm6fwCUUyVRd0K81eadBRZAAD2tFbU/VVJ60hiXIcGoa6USnmimBrzdH7BwmiZpMNJI+PMKVjebj76eLHQ/waCmDpzuktHmYznUNiu2SrNlOtoSe8M8v673rD0LqmUI5mMCOK90/0F/feSnIZOQVclAgAAAADYasH7hd5C6S3kMPlm50uHu/l3Jc0gjXFtaIbti7L2pR9SedTNv0zzb9dLRsJ1/ztfCzh6dtKVcr2F+iUuLSALAMBkWKPLhyV9nSS2u657RTHUldLJFHRMukXdI+H6qyS9lCwwq7HhEkmrSGJcJreLe/P9ryeKydcXlg6JA/+OpL1JA9vTFcbHS8ptumqLJv9cseA/md2z8HjSyYDYUr2bscl+RyOnAwWAAAAAAPCENa+5f7kvP3AWUUyevvDMZwfm35OpSBrbdcnIyLJaJi/MwL8gqUkX2K6XD4czlvCiezItDop5v9hc3DMAAJMqkF8oKSaJ7fHXFcO+K9ihZzJt/GGE5KeTBSRppZZHMn2FJLYrZ2aX9oUDpxHF5JkTlua7/HpxTDl2Qmw68cnTDL0giIMfFcOBa2YVFj6TlFLtiFT3b/ldNHFa1ogAAAAAgCfKuemSvnzpHKLY82bn+49wtW+UtC9pbJfLc5/P6pevblj6J7lfSTfYYTd5XTHsu4qdACfDou7ewl3fkIkjuwAAk24oGrxXsm+TxA4N9Bb8UmlRN1HsWfO1ICyGfhU/jMATWRB/UfyYa0fyLpWL+YHXEsWe15vvPzSW3yhpP9LATo1jbids52+flvPg7r7CwEd7dS67Saax/U2Hp/v7BffQyulAASAAAAAAbFu3m3+jNxx4N1HsOcXuhccGsutF8d/OWFZrXvmrLAfgCj4ldrrZGWcMhzOW9+k1exHFnrHxBXf9SnOdTRoAgCmbGwX6JCnsmLnO7g3ryw5QqYc09ox9dN704XDG/0paSBp4ouqGpX8y6RKS2KGCTIO9hf6/IIo9p6+7/5jAbIUo/sNOmqfzCy4du4N/bLq7PhiE0e96w/6/nafzCySXDgeo1OPSc1P9Jdvtu2npdKAAEAAAAADGZyb9e19hYLEkI46J1RcOnKYguIFjf3eKB7F9LOsh1Jvle8xUoTvsVJc5xfP578+dfjbHGU2wvfY6o1gPp39f0hmkAQCY0rnRaPnHkr5PEjuxsJNevSHUd/ba6wzWHhNs7vSz9xnLj14n+StIA+Npmf2zpBZJ7FDO3L7aFw78PVFMvNnhwAIP7HqX+kgDO2t9Yd2xknbqlAWX+kz2byPhut/0FgbeLJVyJJhso/n4FZLSvJN0u6s1nR0AU4ICQAAAAADYAXd9uK8wcCU7RkycvkJpkUvLJE0njZ3yzaFW+RfEIMWxf1TsArhzTC9qj7Vu6+te+HzCmBhzwv6D883cTSadSBoAgI5YqwRaTAo7OzXyk7qbuVt786XnkcbEmJ0vHd4ea94i04tIA9uzplG+3+TsAriTw5VLn+0L+78qlfLEMTH6CqVFgXS1JHbKxy6JYztpN/61Z5jrf4qh39WbHyiJH5YnV6BSqtcS0p2rdOl6Gjot3RUAAAAAsOPFsKs0mtf1vT0LDyCN3TdP5xf6wv6vuvuXJXWRyM51vyD2jxHDRvXm4N2SlpLETtvfg2BFMV9it7qnqC8svTqW/VTSIaQBAOiYudFo5WZJ15HEzjHpIDO/aU7Y/yrSeGqK+dIZgflNks0jDeyMnIldAHflQYDsLcXQv7vPjDPmksbum68FYW84cBHPobDbcwfzE57Cv/4cM11VzA/8uK+w8BTSTJYDVOqR26tTPje+hZZODwoAAQAAAGCnV8T+4iAOfj47HFhAGLtuVmHhM0cK62502VtIY5dcPdQa/DkxPM7dF4tdAHfFXjJf2hv2f5kdJHZHKddXGFjs8qslzSQPAEDHzY0CfYgUdm1pEsu+VQwHLpQWdRPHrjq5q68wsFjmg2InLeyCVY3B++T6Bkns2gU31srdWSz0v4wodt3sntIzhvPTbzTpbaSB3X0e4NKfPeX/jOlF7sH1xbB0GzsCJseGUIuU9udA5jfR0ulBASAAAAAA7AKX+gLpW8XCwD9TSLPz+vL9Z+c8+KVcLySNXRK34/aHiWFr9ebg3W66iiR2jckWFfO6cW545rNIY+fMKix8Zm+o6931YfEcDQDQqXOjjbsAfo8kdnFqJL2zNxy+dlZh4TOJY+fsU+g/qJjv+8GmuRHFC9hlXYF/XFJEErtkrtyWF/MD/ySdzA52O6k3XzoziP2XHFGOp2JOd3yEJrQAzJ9vpquK4cAv+/ID53JNd675WhCa/D1p/56BB+wAmKb2JAIAAAAA2I21lOv/FUPd1te98PnEMb59Z5TmFMOBsptdLnbO2nWui1e3lv2SIJ4sVtf/k9QgiV1k/uK22ncW8wPvkxbzXGg7ioWBN+Y8uNPkJ5EGAKDj50bu75HUJoldnBrJT8p5cE9vWHqXKGjbblR9hdKiMbdfyiZgJyRk1qrG4H0u/SdJ7LIumT7WG8752Zzu0lHEMb6ZOmd2Md9/iZkvkTSLRPCU5leBTtxD/+nD3fSNvrDvt8Ww9FfzdH6BtDtLPZz215L2T/nXfHAoKq+ktdODB70AAAAAsNv8MA+CH/cV+j9ygEo95LEVKxb639Bq+d2SBohjt2xQzjjObRyrG0se4MXRbuuR6VPF8O5ri/n+5xDH1uaE/QcXw4HvyvV1cawdACAhhpuDd2y6d2HXTTP554rhwHfmhKX5xLG1Yr7/OcWwdJ27f1nSDBLBU9WO8p+QqU4Su87kR8aB/7iYL/3jfC0ISWTrePrypXO6wuavZXYecWCCutWJe/K/7tKBkn9xJFz3+77CwOKZOmc2mU+9ueGZzzLZRzPwVZfT2ulCASAAAAAAPDV5d/vQaOi/LRYG3kgcUl9YOqQYlr4nt0slzSGR3WPmn62Nlv9IEuOLo7FPmFQlid3lp8jsjmI4cGGfXpP5QrcDVOrpKwwsjmV3SHo5/QMAkLj5Y1fXByWtJ4nd9vJYfk8xHLhwjkqZL3TbT6dP6ysMLJbZLyQ/he6BibJGlw+762MksdsKMv/4cDj9rjlh/6uIY/NzqIHvuvllkuaSCCbQCZP058xx14e7wub9vWH/v8wslA4k+qlyclfb428oCz96cPse7Z0uFAACAAAAwMQ4QK6vF8OB7/V19x+TxQB6exYe0BsOXOTyuyR/GV3iKVmlRuuzxLB9q/XN1S7nxdFT0y3pnR7mf90XDlwgLerOXgQnd/UWSm8ZDePfuOvDkjh6BwCQSNUNSx42E3PICZgbxWF8T2+h/y+kUi57ESzq7gsHLojC8N5NcyN2GcOEq0f2RUkcO/jUzI9l3+4NS9+e1X3GkVkMoNhT2r83HPivjc+hdCpdAhNpTth/sKR9J/mPnWmy93S5ryyGpe/35gdK2ZyLTBnrDfu+KPMXZ+C7jsVNXU+TpwsFgAAAAAAwsU71wG4thgPl2fkzDsvCF547/ex9esOBz1gc/Nakt0nqohs8NW7+gaquHiGJHatFxS9J/iuSeMr2c+m/imH97r586Rzp5Axcx6Vcb750ZjHsu9PcvyrZ0+kGAICks4Z9VvI/kMRTTvLp5vbfxdDv6s33v15anIH3aSd39eUHzi2G9Xtc+i9J+9EPsOeUm3J7LzlMwGglf1UuyN3eWxi4vJjvf04WvvM+M86Y2xv2/4tiv9ekC8RzKOwBbbMTpvCPDyR/mZmuKobxPb1h6e/2nVHilJU9rFgY+OimZ9tZuHtcN6zyGlo9XSgABAAAAIA9sIKWNBBY7s6+sPSjvrD/9DR+yZmF0oHFcODC9ljrPpP+QVIPTT8hnedH9cbg10hiZ13UCswukORkMSEOdvPLimHx3t6w9K79dPq09H3FUr5YGHhjMfS7zHyJpOfQ7ACAtBhSeZ08eBdJTJjnmNmVveFd9/aGpXcdoFLq1jzztSDcODcq3u2mb0iaT7NjMtSa5WWSXUMSEyIw19kyu7sYDlzT2zNwXBq/5KzCWfOK4cCFY63c/SZ7j3gOhT3IYp3YIZ/k2Sb/11bLHyqGpcrGo7/ZFXCiQ+4rDCyW65+y8oXd/EqaPX2ohgcAAACAPbmYlh8v2dXFwsBtJrvIGrp8SOV1yf1GpVxfGL/KZYvkvkASD5wmVit2/0tRzLZLhhqVHxbz/V+X2fmkMVFsnsk/F+XDD/ZZ/9fd9ZVac/DXSf5Gc8L+g9vS20z+Jrnm0sYAgLSqNcvLimHpGslPJ40JmhlJB0n+udFQH+hV/9dz0leGosF7k/ydivn+55jpbcNub5KruPF3bMDkalv7HTkPXippOmlMiEDSaRbrtGJh4FaXXdTdKCxZpUvXJ/crbX4OFbxNPvYq8RwKk3fzP6HDPlFe8v5Y1l8M/SHZwCVx3L5iuLnsLhpr983T+YW1hXVfc9dZGfrazbgxtozWTx8KAAEAAABgMrhe4PIve6jPFn2g7KYr61H1emnFWBI+/pzu/qPjwM6S/ByXHUCD7iGmz9ajwbsJYtc1w/x78lHrdJmKpDGhfbLosr+T6W97w4EfmeyK7m5VHllXHkrCx99rrzOKYStY6G7nxNJLjDfbAICMoKhmj5lrsvfE0j8Uw4EbzfzyqDteOjKyrJaMudHZfWGzORDLzpF0gkvG7AhTaXVj6YPF/MBHZfo0aUww1wtN/sKxcPRf+zRQdtOSWsNWSOV2Ej7+nO7+o+OcnSn3czc+h+J3kpjE/je9tG885gd38Ec8QK4PBJb7QDEs3SXXkpwFSx6NrvwdrbfzevP9h44E6y421zHZ+ub23dX65mp6QPpQAAgAAAAAk2svmf7CpL8ohn1DroFvmttya0bXVnX1SOd8zEXdfYX68S69Uu5nxLJn03R7lkv3FRrRx0li94yMXFHtLQy8x1z/Qxp7hJl0ouQntlr6fDEcuEHSNYFs+VBUXtlJH3SfQv9BY64FJjvNm/pzl7ppPgBA1qxuLH2wLxxY7NJnSGPPzI0knexuJ+ebuS/0hQPXuvStLvPvrGoM3tdJH3ROWJofS6+U/HQ1Wy91WRc1f+gktWbvvxfD+hskHU4ae8RMl94q11uLoa/a+BxKy4OmXddZJ1Qs6u4rDB/nil8p18JY9mxq/jBV2i0/0RJzs/TDZPp4W+2PFwulnyrWUpeurjfL99CS4zm5q5jve69MH5IrzNq3d4+/Th9IJwoAAQAAAGDqzDHpbTJ/m4f5VlEDN5vpB7HbzYryN9d12drJ+iDztSCs90x/QRDb8S4/Qaqf7K69N/5dXg9NAjfzCx7WNRuIYvfVG5WLi+HAuZL+nDT2qC5Jp0o6NZarGA6sdOkGM78p8OCmyS4InBue+ay2tY9313EmP2XMNxYs864IAJB11aj6uWI452zJn08ae1S3SwskLRhzUzHs/63LbjCzm7oU3zTZBYFzwtL82Pw4d51g0imxfD5NhM52UcuDhYssDn4kjnfd0/Yx6QKZLohDb256DvXD2O1mj/TjYZXXTNYHefw5lI5z6cTHn0PxDApTz0wnJvKDux8r07EmfbIvHLg/ln8/kL5VjYrfkS5q0bKyvrD/tFjBxyQ/MqMZPFJvFq+mK6QTBYAAAAAA0Bm6Jb3EXS8xuRRGcVED90m6w8zvUmy/inPxA7kg98DQ+vIju/uHzNLrZnV3d8+LLZ4n2SGSDnfTocPS8yxW3imZmSL+hVpj8FpyeOpBetD1ZovH7pA0izgmzXyT5svtbbFcxfxATWZ3SPHdZsGdrvi+wPXgUBQ8KJWbu/dHlPJzQj0jtnieKTjI3Q+TdKhJR7TV7pNvfk3EyyIAAB63Ysy9dJ6ZbpNUII/JYs826dlyv2BMpr5woOrSHZLuMvO7XHZfznMPPBrFf5jYuZEdJvcjYnnx8bkRkAz10aW3FAsDn5brA6QxafKSTnbXySaXhZqs51CHuemwx59DAR3phKR/AZcONNkilxYVC/Vh+cAKSdea7LpqVP5NtpqzlO/N64zA/AMuHWFZfv5t/t8Ug6YXBYAAAAAA0JkCSfMlzXe3hTLJ4kBx7CqGAw3Jh1xWM6lmprokeezr3dQMZIFMMyVJrr3crGjufS7NkTQjlmvL10G8GJpq/tswar6PHCZGfXTJH4qF0jvlfglpTBFTUfJTJDvFfeN4E0sqhh5LA1XJayaruVQ3UxRLY3LfeAS62V6B1OWuvElFlxcl65V8TiwFctOWhcq8LAIAYAdzo2b5nt6w9I8m/1fSmKLZvtQn6aWSXuq+cfXVVlvFULE0MCR5fdPcqGam5jhzo9Ck3u3Pjaj6Q7LVGvaR3tBfZdJRpDEltvccalTy6qbnUHUz1STJY21w8+jJz6HU664+k+aK51BImNkqzZT8iJRNRmZLOkPSGb7xJIeH5LpOga1QHN9Saw7+Ril8xDIn7D84lr1V8vMlzeUZktpt+VeIIb0oAAQAAACA5ClI9nSTni5JvvnphZlMm57WbPlEw9nXr4ONKdAbOfp3YtUa5Uv7CgOnu6tEGh0lkDRXssceuvoTd+5zbfkKW7waAgDgqatHh36uGN592sYCfXTY3GgfyfZhbgRIUrkpL50rc3Yt7Tw9234OJZlsG8+hGK2QXBbqz5T+48gPkOlNcn+TzFQsDAyb65bY7RaZ39KO8j9do8uHk9h8fd39L/CcvdZcr4mlI+jRW4RjWrq6sfRBkkgvCgABAAAAAJgqpk/VRgd/QhATL+ru/ut8s3WipH1JAwAAZNvi2IOFb7Q4uFPSLPIA0KnqzfI9feHAB136DGkAmApmfmLmfkntmu3SAjNfIEldYVNFDfxR0t2+6Vhwawd35VuNX3XSj5gPUKlnQ48fHcR2vMtPMOk4l/q2/AEFHm9la/sniSHdKAAEAAAAAGAquN1Si/QxgtgzRkauqPaGpTea/DvauLsKkCgmVd3sfrkfSxoAgKeqPrr0ob58/1+72eWkgYR6VFJd0nOIIt2q0WH/VgzvOlXSy0kDyVzM2U9ZxyWXu05kB0tJ0v6S9jfp5XKTB64oDFXUwCNye8ADf8Ck+032QNv9D12x/andlasVRtfXJrJIcLZKMy0fH+Bmz8iZH+CyZ8nteS4/dFQ+z2IFm8++oehvO8OS9J2h1uDPSSLdKAAEAAAAAGDyPaqcBqRykyj2nHpU/n5vfuCjZlpMGkgYd9db5T4gEy+OAAATotocvKIYDpwg6a9JA0mbG5n8rbHsAqMAMAMWx62odHZ36LdLeiZ5IGEeHZPO7JLuI4rkma8F4bBYg+/AvjLf11wvliSXK5AUBy6LxzYXCW6QvOaymkl1yWKXmoH5+o13dV8bS21JMtMMk3VLUuw23dxnyTRL2vw/n7bxsHHJfXNppnPM+C5qB/bPpJB+FAACAAAAADC5YpfOq4+W/0gUe169edjH+sK7XuzSK0kDSWHS56rNyv8Ww4FTSQMAMJFqUe+7i/n60TL9GWkgQT5TjQavKRb6z5Lzyj8L1qpc7w0WnmVxcKOkPIkgIWKXvWFNo3x/MRyIJIVEkrB5Us+MY4PYCyTxlE2TbJpJT9/4//qmAr7Nf9seL+Db4rhek4vKvj3iW8Oj5R8RQ/pxBA4AAAAAAJPI3T5SjyrfI4nJsjhuRnau5A+QBRLBdFs1svdv+r/XEAgAYGJd1IpzdpZcNbJAMuZG9tNaZB/cuJhibpQl9dGlt7js/5EEErSW+3Q9Kn9/0/+3lkCSJ2j7iaSAlGnH3uZempUxjAgAAAAAAJgcJi2vNw/9OElMrrUq1z0IzpEUkQY6vbsGbmc9djx4zEtuAMDEGx4t/95M50uKSQMdbs2YdOZjcyOz1USSLfWo/O+SDZIEOp7r5lqj+qEt/grjVQKZiQJApKtPS18bbi67iySygQJAAAAAAGlCoQQ62T3tyM6WFvOidQrUR8s/ltnb9PjJIkCncXdbNBSVV27+C8YOgACAPaQaVb5l2rTjLNCxcyN/y5pG+f7H/kps7KiVwX7QFRXeJOnnRIHO7aWqtYP4HGnF2GN/jbVcAi0OXDqOHJAia5Xr+jAxZAcFgAAAAABSw9z+WtIqkkDHcdUC2WuHVeYB8BSqNcqXyvyfSQIdOUy4PlJvlq98wl/kJTcAYI+pRuXPuPRlkkCHzo0+XG8ODj5h0c/cKINW6dL1lus6TdJDpIEO1FJgr1/dWPrg1oMYRwAnzZzuu4+QNJMkkB72j9UNSx4mh+ygABAAAABAarRz7Qct9tMkbSANdJCWBRrYclcvTJ1aY/CDbrqCJNBJzFSuNysf3cZfp2gYALBH1aPed0i6niTQYXOjq+rNysef9NeduVFWVTcsedji+LWS1pMGOmu88rfXGuVt3EfZsTRp4sA5/hdpGpx+Wov0JYLIFgoAAQAAAKRKtTX4M3MtEsd8ojO4TG+tNioriKJz2mRaw94is58SBTpklLh5RmPGG7d13xoLnJfcAIA97KJWK7KSpHvJAp3AZDfNaqzf5tyIIzWzrdpaertcb5QUkwY6ZMD652pj8CvbXuexlktcc5pOIAWkxFjQ1iKp3CaKbKEAEAAAAEDqVJuVy2T6BElgyrneX2tULiGIzvKQyqPN7q5XSf4r0sAUDxIP5Lq7Fz6gixvb/NttXhoBAPa8tSrX48BeJvkfSANTyaT7c91jC1dqebTNv08BYObVmpWlkt5BEuiAEWuw1jjsg9sZ0BivkrY6dwoAkZbOrI8Mtcq/IIjsoQAQAAAAQCrVGpUPyXUZSWDKmD5Za1b+hSA608jIFVUPul8h6fekgSnhqrkHr350/RWrxh1GciEvjQAAk2J4tPz72ONXyVUjDUzd3Cj36lXrlj063j8yFvPjCEi1qPJFd/swSWDqxiu7pSfSedLicXejNPPVBJUcc8MznyVpP5JACuZTN9ea9kmCyCYKAAEAAACkdrlba9qbzHQVUWAKut+Xao3KB8ihs9VHl/whkP25pEdIA5Nsjbm/st4s37Pdf2o0x0tuAMCkGW4uu0tur5I0QhqYirlRrXnldnfo9oACQGxayzXLH3XpsySByebSL1pNvfohlUe3/w/aWtJKjrbFJ5ICUmBdYH4+R/9mFwWAAAAAAFKs3K427DyTlpMFJo355bXo8L8hiGQYisorY7eXyzRMGpgkaxXby6utwZ/t6B+s67IRSTGRAQAmS61VvtUsfq2kBmmg0+ZG3ihQUIPH58pR5b0mfZUkMFlMuqOVb79srcr1Hf2zMUcAJ6ttPeb4XySdu/tbhqLBe4kiuygABAAAAJBy5WYhsn7JbiAL7GlmfmWtUXvT9o6BQecZbpbvtLadypF3mATrA4tPr7XKt+7kP++S1hEbAGAyVRtLb4ilhaIIEHveOg+0YGfnRmvUWrtpfgRIklcj+0u5vkEUmAR3d3Xby0ZGlu3cc4OYAsBEDSayk0gBiWb+6XpzkJOQMo4CQAAAAACp95DKo0Gk18h1M2lgj3G/uNoIzpVWjBFG8lRb5dsCt5dJGiIN7CEbzHTaUGPpD3ZxcOHFEQBg0g1HleVm9kpRiI49Ozc6vT5a2YV1erktaT3RYcs+UWtW3ijpi2SBPehey8WnPrKuvPPPC8zZsTQh5k4/ex9JB5MEksuurTWCfyIHUAAIAAAAIBOGVF7X1ex5uUnfIQ1MNJe+Umse/pZNL6SQ1HGiVf6Fu58i6RHSwARbHVi8oNqorNj1f9VWEx8AYCpUG+UbA9OrJI2QBibYGjN71e7NjcTcCE9akteiyt+IIkDsEXaX5bpOrm5Y+qdd+tcCfsiVFGOtJsf/Isl+3Yp0Js+kIVEACAAAACBDVunS9dXIXmsmtsPHRPp8PapcwLG/6VBvDt5tyr1E0kOkgQnyx9jtpF3f+W8jE0dHAQCmzlCj8kMP4peLoitMnIdj95OqjfKNu/nvMzfCtngtqvyNyf+NKDBxvUo/bubHTq5uWPLwLq/j2t2MVQlhxvG/SO6cqm1dC9aqXCcKSBQAAgAAAMiccrPaqJxl0ufIAk+Rm+kjtajyLklOHOlRja78reW6XiTp56SBpzhM/CoO7LjhZvnO3f0vxDKOjgIATKn66NJb3P0ESb8nDTzVuVHb4uOGm4N37P5/QsyNMG7vqEaDf++yd0viB3p4iuybPU3785GRZbXd+re7jALA5LQ1OwAiidYGsb16dWPJA0SBzSgABAAAAJBFXo0qf2umjxEFdlNkbm+oNiqLiSKdqhuWPBxEdpJJy0kDu3en0U+a+fxJw6Plp1YsYRwdBQCYevXm4N2Wi18s2e2kgd2b0+jW7u7gJasbSx98Sv8ZYwdA7GC8isoXutuZkhqkgd30hVp0aP9DKo/u7n8gt4EdAJOgV+fuLfmRJIGEWW9mrxlqlX9BFNgSBYAAAAAAMqvaqHzI3M6VNEoa2GmmYTO9stosX04Y6Tak8rpq1Ptaub5OGtjFgWKwp2mnjIxcUX3K/yX31eQJAOiI9dOGpX+yKDpZ0vdIA7toWdiITnlkXXnoqU+z+HEEdqzeLFfM7JUyDZMGdkEs1wdqUeVvpMVPaRfJVbp0vaQxIu1svapH7vqYpA2kgYRYb6bTqo3yjUSBJ6IAEAAAAECmVZvlyxXbyZL+SBrYMf+dx3ZCtVFZQRZZcVGr1qy82d0+LI56xo615Xp/LSqXnspuEVsxjgAGAHTQ+klXj9Si3tNM+ippYOfmRvZPtajS/7CumZDiitjZARA7OV41yjcqzh3v0n2kgR2vuzRsstfUmpVPTth/k/Gq463U8qjerHxEgT1b7peK5z7obBvM4tN5Lo3xUAAIAAAAIPNqrfKt3d12tCR+OYdxmbR8LAqPrTfL95BG5ni9Wf5oID+NHSSwnTGi6rIFtWbl05rIlwaxKAAEAHSYi1rVqPI2md4kdlPHuDNo1Vz+6lqz/IkJnRuJH0dg59WaV/5KUXi0ZN8kDYw/XNkvc547thqVvz2ha0RjLZeYsWK0/Mdac/CNZnaKy35JIug4pnocxC+vNpbeQBgYDwWAAAAAACDpkXXlodnR+lewkwW2wc30sWp02GlrdDnFXxk2FA3+X+D2Qkl3kga2ZrePWdex9aj8/Yn/T3PMHQCgM9UalUssthMlPUgaeIKfjwV2bD0a/O7ET43YUQu7pq7L1tai8kK53i8pJhFsxXVZIWoc92h05e8m+j8dU7CcONVG+cZ6pBeY+SJJD5MIOsSDHtuJw6NLbyIKbA8FgAAAAACwyUotj6pR5W3uPiBTnUQgaUSugWqj8iFpMS8KoKGovLIr6vkzNy0hDWjjbjZfnB2tO251Y8kDe+RPMF5yAwA6V7VVvq2ru/1CSStIA5smR1/ZK5px3JpG+X7mRuikrllrVj5t8tdJ9CFIkhqS3l5rVt4wUUeUP3m48tXEnETldrUx+JUwig7eVDhMO2IK2V0exCdwIg12BgWAAAAAAPAE9ebgYGx2tMt+QBoZ5vpJIHt+rVlZShjY0ipdur7eqJy96di7dSSS3a5g8tfWosrbV2p5tKf+EHa5AQB0/A1x3bJHa1H1VDP/qKQxEsny3MheW48qix7QxY099qdQAIinoBoNXpNT7gVyu4U0ssxud/djalHli3v4D2K8SrCHdc2GWrPy6Wa+Pd/k/6aNRaPAZFpqUXRcfXTpQ0SBnUEBIAAAAABsw/Bo+ff16NBTXPZuSS0SyZQxM32k1rTjh6LySuLAeGqNyiVjZkeYjCM4MsZM5Wa+fWg1Grxmz/9ZHAEMAEiCFWPVxuCHFdvxku4lj2xx2f9ZLj66GpWv3uN/WOwcqYmn5NHoyt/VmkMnbtrZi+c92TIm06drkf6s3hy8exIGR8arFBgZWVarRoN/Hwd2iMsvktQkFexhbbn9v1pUGajq6hHiwM6iABAAAAAAxrU4rkflCxX4iZLuJI8s8N8qjo+rNiqLpXKbPLAjaxrl+6vR0Mlm+ogk+kwGmtzMLqg2Kq8fGVlWm4w/sNWmABAAkBy1VvlWi5ov2PSCHOm31swuqEflV1c3LP3TZPyBFjA3wkRYMVZrVj6t2E4QRcuZ4NJ9cWCn1BqV90vlySngYsfSVNn4Y/HBC+LADpb0X6IQEHvGkEuvqjXLn9o4dAE7jwJAAAAAANiB2ujgT2pR7wvk+oCkURJJpbZJ/94VTXt+rbX0p8SBXbNirNqoLPbATpTsLvJIJzNdZbmu51Ub5UktaPBcF7tGAAASpaqrR+rR4AVyWyjpYRJJravjwA6f7LmR2hTUYOJsLlqW/EuSYhJJpZZL/1qIosOHR8s/mtxFpK8m/vQZHi3/vhZV/sqDrvmSPi+eFWPifN9yXUfVo8r3iAK7gwJAAAAAANgpF7Vqzconu8wPk+y75JEeLvulYjuuGlX+bpUuXU8i2F310fKPa9Hs5286Opy+lB73umxBtVE5s7phyaQXMXiDl9wAgGSqNcvL4siep40vx9kpOT0rqN+Z7LRaVHnt8Gj595P9pwdBN3MjTKiqrh6pRYN/7YH4QVf63Bh7+/n1qPIPD+uaDZP+p8fG0Z0pVh9d8odaVHmX5brmy/RpSatJBbupIemdtajyiql47oT0oAAQAAAAAHbBqsbgfbWo/EpzvUHSQySSaOtN+od6NHRMrVW+lTgwMS5q1aPyhTnljpT0ffJItA1m+sjsaP3h9aj8nan6EGs1tFYc+wIASKhhldfUosq7LI5fKNntJJJoo2b6yF7RXodVo/K3p+xD5AMKALFH1EcrN9eioaP5QVcq/EmmN9WiyinDzWVTVtRpxpHlWVDdsOThWqPyfouaz3D530n6PalgZ7n0Q3nu+bWo8h/i2Q+eIgoAAQAAAGA3VJuVy8IoOkRu/ySJX/Qmi7tpSdviQ6tR5V+lFWNEgon2aHTl72pR5RXmdq6kB0kkUWKZX+5BfEi1UVm8Usujqf04K8bEC0gAQNLXT62lt9ei2S826T1ih5zErZ8kLR0zO7TaqCx+QBc3pvLDjIzsRUEN9ujcux6VLwzkR0u6mjwSJ3L5ZyxqHlJrVC7RVBfTOLu5Z2quo6tH6tHgv9ei3vnmeoNMt5EKxmUaNvNF9ajyklrzyl8RCCYCBYAAAAAAsJse1jUbas3yJ5r59oGbjnpokkqHc/0kDuykeqNy9urGUoqysMd7XLVZvrwW2bM37SLBw/+OZ9daHB9bawyeWx9d2km7vK6lbQAAyXdRqxpVPtuK7Fmb1k8RmXT4zEh2U2B6SS2q9K9plO/vlH4kaZTWwZ40FA3eW4sqr/XAjpPrxyTS8WIzlbvMn1ePBt9b1dUd8UNdM54BZHa+06xcVmtUjlFsL5Lr69p4xCsgSbFclwQ5e161MfgVsesfJhAFgAAAAADwFI2MLKvVGpX3m+wIN10hqU0qHWeluw/UmpUXD4+Wf0QcmFzlZj0qX9jdbQdL+qIkdp3sPNd7EP9ZLSqfWm0t7cTjCVfTRACAtFircr3WqLw/kB9upjKJdCDXT2R6WTUqnzDUqPywAz8hRTWYFPXR8o9rzcrx7nq95A+QSOeNVmYqm3LPrTYqr1/VGLyvkz7cWMARwFlXa5VvrTUr58eR7WtmF0jOTm/ZHrFu8cBOqDUrbxpaX36EQDDRKAAEAAAAgAlSjcq/qTcq54yZHSzp8+LXnVPOpPvN7IJa1Pu8enNwkEQwlR5ZVx6qRZW3d5kfYtJXxa6hU85lP5DpZbWo8uf10aW3dPAH5cURACB1hqLBe6uNyus9iP/MpW+TSEcsoH5m0um1ZuXFtUblug7+pMyNMKmz8XqzUu6JgudJ/i5JfySSKRdL+t/Y/ahqo/L6anTlbzvyU7YpAMRGwyqvqTbKF9Wiww+T+alyXSZ2s82Se+S2sNYs/1l9tMyusthjKAAEAAAAgAm2plG+vxZV3hV02eajgTeQyuRy6T4zu6AaVZ9dbZQv2nRMFNARVjUG76tGlbfFwWPFwjz0nVyxpG95YMfVo/JLOvzl9kZmHAEMAEit+ujSW+pR5bTY/chNOwJyFNqkz43sWpO/ptaoHFuNKt9ibgQ82UMqj9aiwc/XIjtIpjdJWkkqky6S+6XudngtqrxuuDl4R0cPVbmQAkA8weK41hi8ttasvMGjcN+NY4ldy9wnte6R6U21yI6oNcvLiAN7WhcRAAAAAMCesWkr//fvO6P0r62m/4WZLnDpQJLZc0x2U+x+Yb152KC0OCYRdLLh0fLvJb2r2FP6F4/jd5nZW+TqJZk9Zq1LX4kt/o/VjaUPJmpsM1/jvA4AAKR9brSxkOP1s7rPODKXC94rtwFJeZLZY0Ylfd2U+/eO3T1rPO6raT5MnXKz1tAlUmlJb0HnmfvfSjqUXPaoVe76Qivs/tLIyBXV5IyyuTUKx2g9bFNdl61VQ5dIuqQvLB0ii89xtzMlHUI6CWf6mcf6F55PY7JRAAgAAAAAe9gj68pDkj4tLf5MsXDnS022yF1nsCabMJGZro7N/r322DEKFVJBYtRGy3+U9N79dPriRiE8R25/Y/IjSWaCmG6T+9c8Klxa12WJ3C0mdq0xWhIAkBGrW8t+qZbOnTO99PftlhaZ+V9KehrJTJhfy/W1Ztj9P4kqpNkau2qhA5Sb9Yb+W9J/Fwull8r9byS9RlKObCaEu/QjM//v2Y0NS1ZqeaRmsr5AXQevK+quWJzKiB2oRuXfSPqwpA/35vsPDQIruessUQyYJLGk/5P5hbXG4LUb/xLPpzG5eNkEAAAAAJNmcVxr6FpJ184qnDWvS603u9s5kuaTzW75tVwXN8Pu/07wiyvgMQ/rmg1q6KuSvjqnsPCktoK/NNfrJPWQzi4bMumytvvXhqPOPhZqJ/GSGwCQvZv5xh3VPyot+mRfvt7vpr+UdJIk6uJ33VqTrooDfa0+WrlZkpJWSLMlk69xugE6SK1Rvl7S9bMKC5+ZU/BXcr1J0r4ks1v+KNPXA/eLh6LBeyWpltivsjiWBkYkzaRZsbPqzcG7Jd0taXFf98Lney44w91O54eiHetPMl0yJvvymkb5fuLAVKIAEAAAAACmwOrGkge0xS87LbDz5Hqj2Nli+0x1d694EFw6PFq+SZIn+cUVMJ6hxtIfSPpBr87dW4Wo39zOk/wlYueA7dkg6TtyXVZr2rekcmpGhyD2K5UL7k17A3qsoVTdsjx4vwLNyOoF6XHuhwxLydJ2/14uCNZmNoA4HqEXdKqLWtWmlkhaMquw8Jm5OPcGmb9B0nPIZrtaklbI9I2uRs/gKl26PjX3GNMSxUr93MjM7qYbJ8vqxtIHJb1fKv3j7NBfHrjOlekMSdNIZ7vWmfm3225fH47se1K5naJZ8T/KLfVrgnzgv6EbT7xqa+ntaul2SR+c3VN6Rs71Snc/XdKpkkISmrqlk2Q3uPtF9WbvN6WLWkSCjpg7EkHyFcOBuyQdShI7s1jSx6qNyoeS18b990j2XFpwJ6bRrsX1ZuUjSfisD+c+eYaZLaXVds6+Y41u0+IxxuW0jcv+0Wpj8MMkAUyMvmkLn+bt4OEsZxAH8QnDo0tvSu43KOWKBT9Z7q9z2atMOoieLZlUdde3zVSpRtXvSCvGSAVZ1Ntz1tOtPXa2pNfJ9CJRDCiZ6or1LcmXhc3m9x7WNRvoKQAAZEOxe+GxCuxcSa+VbB6JSNr4g4jvymzZWKP7W2t0+TCRAFOrT6/Zywv5M8x1tkuniKKdTUs5Vd11tZl/c0a01/cf0MUNUgF2flxRGJ7i8pdJ+nNJzyOVPa4t2Q1mKkfdXUs5jQadiB0AAWCqBMEfXLqCIHZaTAQAgPQrt2sNXSfpOknv2KfQf1Bbwcs2/bLz5ZLyWUnCpftM+pbMr6k2ijfyS0pAqo8u+YOkf5H0L/vMOGNuayw4zTw4XfJTJU3PzvBgd0vxdTJ9q9aoraAoGACAbKq1lv5U0k8lvXt2vv+IQMHpCvw1ch2jTP1Qwv8g13WSXRM2o+/wgwigs1R19YgaukTSJXNUmtHOx68w6TSZvVrSnIzFcY/k3zfz/602cj/YvNMfVTTAbowrka6WdLUk9U07az+Px16mWH8u08mSnkFKE2KDy1YE8qu7um3pI+vKG08toFwZHYoCQACYIvu13vczSeeQBAAAGM+qxuB9ki6SdFGfXrNXO8yfEJgf724nmXSspEKKvu6Dct3ogd/Y5V03Phpd+Tt6ALCd8WHdskcl/Y+k/5mn8wsjhZETTHZS7PYSk78wZePDSpduCFzXB93dNzy6/opV9AAAALCl4ebgHZLukPSJOdNL+8ZtnWruJ7n8JMmenbKvO2SmG+S63uTXD0WD99IDgIRcvCqvU1ODkgalUq63x19kbb1UppMkHaeU/bDLpPslv14eXK+u9g3VDUv/RC8AJl51w5KHpY2FxpLU27PwALVzx5v5cTIdL9eRojZoJ/mvTPbdWFq+dzTjB4/tThqRDDofFzkAAAAAJMCmX3Yul7RckuZrQVjr6TkmaAfHe6CjzXWEpGcnZJ23Tq47Zf4Lmd3SVnzj6sbSB2llYPc8oIsbauhaSddK0jydX1hfWPvCdhy8xMyeL8VHJehYvFUm3e7mtysObvNc+6f10aUPPfZ3m7Q3AADYvqH15UckXbrpf+qbtvBpGgte4qYT5XqBTIdLmpaQrzMqt1/K/DY3v93j+Nbh5rK7JTktDSRduV0f1c2Sbt74/y/q7u0ZPsbafpJMx0k6SsnaxWuNpJ+7dFvgdvtYkLt5dWPJA6zlgMm36TnKlZv+pzkqzfCCXhB7/HxzHS2z50t6jqRcxqNqu3SnST9wtx92dXf9cMsfndbpSkgYCgABAAAAIIFWanmkUd0k6abNf22+FoSru3sOjXPBkYH7YS57lkkHunSQpBlT8DFXS3af5PfJfKXH+nlgXb+oRs9dKS2OaUVgz9hUEPgDST/Y/Ndm6XWzugpdR8WuowJtHB+0cWw4QFNzRN5DklaatNLdfmeme+KgfftWxX4AAAATYNOOU0s2/U9SKVfMxweb7CgPdJS7HW7ygyQdKCmcoo85KmmlpJUuX2kW3BPHum24OfQracUYrQhkwUWt+qh+LOnHm//K3ir1dhf8aHMd5e5HKgieo9gPkqk4hR90nW9ay8l8pcX2SzO/bSgaXCmKk4GONKTyOjV0o6QbN/+1/XT6tEZP9xFBbEe57LmSNv/vgJTGEEv+G7nd5ua358xv88bYz2u6euSxf4JCZSQcBYAAAAAAkBIrtTxSS7erpduf+Pf2nVGa04p0oJs/08znugdFM++TeVEeFGXeJ7fQ5dMkyVwzFWxdFOSuYUkyaVSmhlx1N1XNVXVXzcyr7sGqwOMHmq3gvrUq80NJoEOs1jdXq6EVklZs/XdK+b4wmBcrPkim/S32fcy86G59btZn7kWZ97nMTCrI1LNxQNDsTf+BNTLFco261DCpLdNacw25q2qmIXcNeaBHAvdq24MHpje18iGVR2kVAAAwNcrtWlO/lvRrPVYUKEmy3p6F+weee1YsP0ixDjBT36a1Up9Lc01elNkMuQrSpnnR+NbK1JZrg0tDgfSIuw9tnB/ZKgX2qMkfiC1eWR9d+kdROAPgSYNIua6GrpN03ZZ/fbZKM7u644PapoMCswMlf9rGNZyK5upz0xwzzd5i3bZjpuGN6zobMukRPTZeaUiBPxzI7lPO7t20yyqAhHtY12zQqG6RdMuWf71X5+5t3c3nKOfP8VgHmnyezOZJPk+yA9T5NUZrJT1otmmuF+sec/9N2Ap+/ZAqPItCqlEACAAAAAAZ8Mi68pCkIUm3kgaAx5Wb1Ui/lfTbyfoThwkdAAB0Jt+0G/FD2mKHnB2wmTpn1mP/jzb4an1zNVEC2LNrqvIatfRzST/fmX/+AJV6RtRdiPcaDaa1gplxLtjQXN8d5dVqDam8jkQBbFbXZWvV0q1qbesZ8sldswr7HhDY2H7W9rky7W+mubFrX5PtK1efzPaW4pmSzZS09wR9rJZM6+Q+ZAqGXF51+arAbJW7hkz+QNv1oDfbv2cehiyjABAAAAAAAAAAAADYdb5Gl/P7BgAdbdMO7KMakUakGokA2D0rxlY39ICkB3byX7CZOmeWFeKZoVpBM46n5bwrlGLznGZtNaGyYH0wtvEQ3rbFrXygdaONYPVaaZ1U5nBeYCdQAAgAAAAAAAAAAAAAAABgomz8oURjG4dBtAgHmGgBEQAAAAAAAAAAAAAAAAAAkDwUAAIAAAAAAAAAAAAAAAAAkEAUAAIAAAAAAAAAAAAAAAAAkEAUAAIAAAAAAAAAAAAAAAAAkEAUAAIAAAAAAAAAAAAAAAAAkEAUAAIAAAAAAAAAAAAAAAAAkEAUAAIAAAAAAAAAAAAAAAAAkEAUAAIAAAAAAAAAAAAAAAAAkEAUAAIAAAAAAAAAAAAAAAAAkEAUAAIAAAAAAAAAAAAAAAAAkEAUAAIAAAAAAAAAAAAAAAAAkEAUAAIAAAAAAAAAAAAAAAAAkEAUAAIAAAAAAAAAAAAAAAAAkEAUAAIAAAAAAAAAAAAAAAAAkEAUAAIAAAAAAAAAAAAAAAAAkEAUAAIAAAAAAAAAAAAAAAAAkEAUAAIAAAAAAAAAAAAAAAAAkEAUAAIAAAAAAAAAAAAAAAAAkEAUAAIAAAAAAAAAAAAAAAAAkEAUAAIAAAAAAAAAAAAAAAAAkEAUAAIAAAAAAAAAAAAAAAAAkEAUAAIAAAAAAAAAAAAAAAAAkEAUAAIAAAAAAAAAAAAAAAAAkEAUAAIAAAAAAAAAAAAAAAAAkEAUAAIAAAAAAAAAAAAAAAAAkEAUAAIAAAAAAAAAAAAAAAAAkEAUAAIAAAAAAAAAAAAAAAAAkEAUAAIAAAAAAAAAAAAAAAAAkEAUAAIAAAAAAAAAAAAAAAAAkEAUAAIAAAAAAAAAAAAAAAAAkEAUAAIAAAAAAAAAAAAAAAAAkEAUAAIAAAAAAAAAAAAAAAAAkEAUAAIAAAAAAAAAAAAAAAAAkEAUAAIAAAAAAAAAAAAAAAAAkEAUAAIAAAAAAAAAAAAAAAAAkEAUAAIAAAAAAAAAAAAAAAAAkEAUAAIAAAAAAAAAAAAAAAAAkEAUAAIAAAAAAAAAAAAAAAAAkEBdRAAAU6PYvfBYywXvIYmdU20cdpa0OCYJAAAAAAAAAAAAAACAjSgABICpYrkD3L1EEDtrxTmSKAAEAAAAAAAAAAAAAADYhCOAAQAAAAAAAAAAAAAAAABIIAoAAQAAAAAAAAAAAAAAAABIIAoAAQAAAAAAAAAAAAAAAABIIAoAAQAAAAAAAAAAAAAAAABIIAoAAQAAAAAAAAAAAAAAAABIIAoAAQAAAAAAAAAAAAAAAABIIAoAAQAAAAAAAAAAAAAAAABIIAoAAQAAAAAAAAAAAAAAAABIIAoAAQAAAAAAAAAAAAAAAABIIAoAAQAAAAAAAAAAAAAAAABIIAoAAQAAAAAAAAAAAAAAAABIIAoAAQAAAAAAAAAAAAAAAABIIAoAAQAAAAAAAAAAAAAAAABIIAoAAQAAAAAAAAAAAAAAAABIIAoAAQAAAAAAAAAAAAAAAABIIAoAAQAAAAAAAAAAAAAAAABIIAoAAQAAAAAAAAAAAAAAAABIIAoAAQAAAAAAAAAAAAAAAABIIAoAAQAAAAAAAAAAAAAAAABIIAoAAQAAAAAAAAAAAAAAAABIIAoAAQAAAAAAAAAAAAAAAABIIAoAAQAAAAAAAAAAAAAAAABIIAoAAQAAAAAAAAAAAAAAAABIIAoAAQAAAAAAAAAAAAAAAABIIAoAAQAAAAAAAAAAAAAAAABIoC4iAJLAbpD0O3LYsUD6DSkAAAAAAAAAAAAAAAAgCygABBKgFlXeTgoAAAAAAAAAAAAAAAAAtkQBIAAAEyyn3GvHfKxAEjvW3R08SgoAAAAAAAAAAAAAAOweCgABAJhgj0ZXcmT3zmoSAQAAAAAAAAAAAAAAuysgAgAAAAAAAAAAAAAAAAAAkocCQAAAAAAAAAAAAAAAAAAAEogCQAAAAAAAAAAAAAAAAAAAEogCQAAAAAAAAAAAAAAAAAAAEogCQAAAAAAAAAAAAAAAAAAAEogCQAAAAAAAAAAAAAAAAAAAEogCQAAAAAAAAAAAAAAAAAAAEogCQAAAAAAAAAAAAAAAAAAAEogCQAAAAAAAAAAAAAAAAAAAEogCQAAAAAAAAAAAAAAAAAAAEogCQAAAAAAAAAAAAAAAAAAAEogCQAAAAAAAAAAAAAAAAAAAEogCQAAAAAAAAAAAAAAAAAAAEogCQAAAAAAAAAAAAAAAAAAAEogCQAAAAAAAAAAAAAAAAAAAEogCQAAAAAAAAAAAAAAAAAAAEogCQAAAAAAAAAAAAAAAAAAAEogCQAAAAAAAAAAAAAAAAAAAEogCQAAAAAAAAAAAAAAAAAAAEogCQAAAAAAAAAAAAAAAAAAAEogCQAAAAAAAAAAAAAAAAAAAEogCQAAAAAAAAAAAAAAAAAAAEogCQAAAAAAAAAAAAAAAAAAAEogCQAAAAAAAAAAAAAAAAAAAEogCQAAAAAAAAAAAAAAAAAAAEogCQAAAAAAAAAAAAAAAAAAAEogCQAAAAAAAAAAAAAAAAAAAEogCQAAAAAAAAAAAAAAAAAAAEogCQAAAAAAAAAAAAAAAAAAAEqiLCAAAAIB0mLFh7+G1+XWvz3IGY13hb+gJAAAAAAAAAAAAyAoKAAEAAICUeEAXN9RUOdMhNOkHAAAAAAAAAAAAyA6OAAYAAAAAAAAAAAAAAAAAIIEoAAQAAAAAAAAAAAAAAAAAIIEoAAQAAAAAAAAAAAAAAAAAIIEoAAQAAAAAAAAAAAAAAAAAIIEoAAQAAAAAAAAAAAAAAAAAIIEoAAQAAAAAAAAAAAAAAAAAIIEoAAQAAAAAAAAAAAAAAAAAIIEoAAQAAAAAAAAAAAAAAAAAIIEoAAQAAAAAAAAAAAAAAAAAIIEoAAQAAAAAAAAAAAAAAAAAIIEoAAQAAAAAAAAAAAAAAAAAIIEoAAQAAAAAAAAAAAAAAAAAIIEoAAQAAAAAAAAAAAAAAAAAIIEoAAQAAAAAAAAAAAAAAAAAIIEoAAQAAAAAAAAAAAAAAAAAIIEoAAQAAAAAAAAAAAAAAAAAIIEoAAQAAAAAAAAAAAAAAAAAIIEoAAQAAAAAAAAAAAAAAAAAIIEoAAQAAAAAAAAAAAAAAAAAIIEoAAQAAAAAAAAAAAAAAAAAIIEoAAQAAAAAAAAAAAAAAAAAIIEoAAQAAAAAAAAAAAAAAAAAIIEoAAQAAAAAAAAAAAAAAAAAIIEoAAQAAAAAAAAAAAAAAAAAIIEoAAQAAAAAAAAAAAAAAAAAIIEoAAQAAAAAAAAAAAAAAAAAIIEoAAQAAAAAAAAAAAAAAAAAIIEoAAQAAAAAAAAAAAAAAAAAIIEoAAQAAAAAAAAAAAAAAAAAIIEoAPz/7d3BDQFRAEXRP6IFiWqUqgJd0A0F2PAtbSc2kyvnlPDWN3kAAAAAAAAAAAAQJAAEAAAAAAAAAACAIAEgAAAAAAAAAAAABAkAAQAAAAAAAAAAIEgACAAAAAAAAAAAAEECQAAAAAAAAAAAAAgSAAIAAAAAAAAAAECQABAAAAAAAAAAAACCBIAAAAAAAAAAAAAQJAAEAAAAAAAAAACAIAEgAAAAAAAAAAAABAkAAQAAAAAAAAAAIEgACAAAAAAAAAAAAEECQAAAAAAAAAAAAAgSAAIAAAAAAAAAAECQABAAAAAAAAAAAACCBIAAAAAAAAAAAAAQJAAEAAAAAAAAAACAIAEgAAAAAAAAAAAABAkAAQAAAAAAAAAAIEgACAAAAAAAAAAAAEECQAAAAAAAAAAAAAgSAAIAAAAAAAAAAECQABAAAAAAAAAAAACCBIAAAAAAAAAAAAAQJAAEAAAAAAAAAACAIAEgAAAAAAAAAAAABAkAAQAAAAAAAAAAIEgACAAAAAAAAAAAAEECQAAAAAAAAAAAAAgSAAIAAAAAAAAAAECQABAAAAAAAAAAAACCBIAAAAAAAAAAAAAQJAAEAAAAAAAAAACAIAEgAAAAAAAAAAAABAkAAQAAAAAAAAAAIEgACAAAAAAAAAAAAEECQAAAAAAAAAAAAAgSAAIAAAAAAAAAAECQABAAAAAAAAAAAACCBIAAAAAAAAAAAAAQJAAEAAAAAAAAAACAIAEgAAAAAAAAAAAABAkAAQAAAAAAAAAAIEgACAAAAAAAAAAAAEECQAAAAAAAAAAAAAgSAAIAAAAAAAAAAECQABAAAAAAAAAAAACCBIAAAAAAAAAAAAAQJAAEAAAAAAAAAACAIAEgAAAAAAAAAAAABAkAAQAAAAAAAAAAIEgACAAAAAAAAAAAAEECQAAAAAAAAAAAAAgSAAIAAAAAAAAAAECQABAAAAAAAAAAAACCBIAAAAAAAAAAAAAQJAAEAAAAAAAAAACAIAEgAAAAAAAAAAAABAkAAQAAAAAAAAAAIEgACAAAAAAAAAAAAEECQAAAAAAAAAAAAAgSAAIAAAAAAAAAAECQABAAAAAAAAAAAACCBIAAAAAAAAAAAAAQtDcBwDZ2u/l4zXG1xFqHaQMAAAAAAAAAgC8BIMBG7s/LdYxxsgQAAAAAAAAAAL9wAQwAAAAAAAAAAABBAkAAAAAAAAAAAAAIEgACAAAAAAAAAABAkAAQAAAAAAAAAAAAggSAAAAAAAAAAAAAECQABAAAAAAAAAAAgCABIAAAAAAAAAAAAAQJAAEAAAAAAAAAACBIAAgAAAAAAAAAAABBAkAAAAAAAAAAAAAIEgACAAAAAAAAAABAkAAQAAAAAAAAAAAAggSAAAAAAAAAAAAAECQABAAAAAAAAAAAgCABIAAAAAAAAAAAAAQJAAEAAAAAAAAAACBIAAgAAAAAAAAAAABBAkAAAAAAAAAAAAAIEgACAAAAAAAAAABAkAAQAAAAAAAAAAAAggSAAAAAAAAAAAAAECQABAAAAAAAAAAAgCABIAAAAAAAAAAAAAQJAAEAAAAAAAAAACBIAAgAAAAAAAAAAABBAkAAAAAAAAAAAAAIEgACAAAAAAAAAABAkAAQAAAAAAAAAAAAggSAAAAAAAAAAAAAECQABAAAAAAAAAAAgCABIAAAAAAAAAAAAAQJAAEAAAAAAAAAACBIAAgAAAAAAAAAAABBAkAAAAAAAAAAAAAIEgACAAAAAAAAAABAkAAQAAAAAAAAAAAAggSAAAAAAAAAAAAAECQABAAAAAAAAAAAgCABIAAAAAAAAAAAAAQJAAEAAAAAAAAAACBob4K+OZbzGO+jJVZsNZebFQAAAAAAAAAAAAAAAAAAAAAAAAAAAAAAAAAAAAAAAAAAAAAAAAAAAAAAAAAAAAAAAAAAAAAAAAAAAAAAAAAAAAAAAAAAAAAAAAAAAAAAAAAAAAAAAAAAAAAAAAAAAAAAAAAAAAAAAAAAAAAAAAAAAAAAAAAAAAAAAAAAAAAAAAAAAAAAAAAAAAAAAAAAAAAAAAAAAAAAAAAAAAAAAAAAAAAAAAAAAAAAAAAAAAAAAAAAAAAAAAAAAAAAAAAAAAAAAAAAAAAAAAAAAAAAAAAAAAAAAAAAAAAAAAAAAAAAAAAAAAAAAAAAAAAAAAAAAAAAAAAAAAAAAAAAAAAAAAAAAAAAAAAAAAAAAAAAAAAAAAAAAAAAAAAAAAAAAAAAAAAAAAAAAAAAAAAAAAAAAAAAAAAAAAAAAAAAAAAAAAAAAAAAAAAAAAAAAAAAAAAAAAAAAAAAAAAAAAAAAAAAAAAAAAAAAAAAAAAAAAAAAAAAAAAAAAAAAAAAAAAAAAAAAAAAAAAAAAAAAAAAAAAAAAAAAAAAAAAAAAAAAAAAAAAAAAAAAAAAAAAAAAAAAAAAAAAAAAAAAAAAAAAAAAAAAAAAAAAAAAAAAAAAAAAAAAAAAAAAAAAAAAAAAAAAAAAAAAAAAAAAAAAAAAAAAAAAAAAAAAAAAAAAAAAAAAAAAAAAAAAAAAAAAAAAAAAAAAAAAAAAAAAAAAAAAAAAAAAAAAAAAAAAAAAAAAAAAAAAAAAAAAAAAAAAAAAAAAAAAAAAAAAAAAAAAAAAAAAAAAAAAAAAAAAAAAAAAAAAAAAAAAAAAAAAAAAAAAAAAAAAAAAAAAAAAAAAAAAAAAAAAAAAAAAAAAAAAAAAAAAAAAAAAAAAAAAAAAAAAAAAAAAAAAAAAAAAAAAAAAAAAAAAAAAAAAAAAAAAAAAAAAAAAAAAAAAAAAAAAAAAAAAAAAAAAAAAAAAAAAAAAAAAAAAAAAAAAAAAAAAAAAAAAAAAAAAAAAAAAAAAAAAAAAAAAAAAAAAAAAAAAAAAAAAAAAAAAAAAAAAAAAAAAAAAAAAAAAAAAAAAAAAAAAAAAAAAAAAAAAAAAAAAAAAAAAAAAAAAAAAAAAAAAAAAAAAAAAAAAAAAAAAAAAAAAAAAAAAAAAAAAAAAAAAAAAAAAAAAAAAAAAAAAAAAAAAAAAAAAAAAAAAAAAAAAAAAAAAAAAAAAAAAAAAAAAAAAAAAAAAAAAAAAAAAAAAAAAAAAAAAAAAAAAAAAAAAAAAAAAAAAAAAAAAAAAAAAAAAAAAAAAAAAAAAAAAAAAAAAAAAAAAAAAAAAAAAAAAAAAAAAAAAAAAAAAAAAAAAAAAAAAAAAAAAAAAAAAAAAAAAAAAAAAAAAAAAAAAAAAAAAAAAAAAAAAAAAAAAAAAAAAAAAAAAAAAAAAAAAAAAAAAAAAAAAAAAAAAAAAAAAAAAAAAAAAAAAAAAAAAAAAAAAAAAAAAAAAAAAAAAAAAAAAAAAAAAAAAAAAAAAAAAAAAAAAAAAAAAAAAAAAAAAAAAAAAAAAAAAAAAAAAAAAAAAAAAAAAAAAAAAAAAAAAAAAAAAAAAAAAAAAAAAAAAAAAAAAAAAAAAAAAAAAAAAAAAAAAAAAAAAAAAAAAAAAAAAAAAAAAAAAAAAAAAAAAAAAAAAAAAAAAAAAAAAAAAAAAAAAAAAAAAAAAAAAAAAAAAAAAAAAAAAAAAAAAAAAAAAAAAAAAAAAAAAAAAAAAAAAAAAAAAAAAAAAAAAAAAAAAAAAAAAAAAAAAAAAAAAAAAAAAAAAAAAAAAAAAAAAAAAAAAAAAAAAAAAAAAAAAAAAAAAAAAAAAAAAAAAAAAAAAAAAAAAAAAAAAAAAAAAAAAAAAAAAAAAAAAAAAAAAAAAAAAAAAAAAAAAAAAAAAAAAAAAAAAAAAAAAAAAAAAAAAAAAAAAAAAAAAAAAAAAAAAAAAAAAAAAAAAAAAAAAAAAAAAAAAAAAAAAAAAAAAAAAAAAAAAAAAAAAAAAAAAAAAAAAAAAAAAAAAAAAAAAAAAAAAAAAAAAAAAAAAAAAAAAAAAAAAAAAAAAAAAAAAAAAAAAAAAAAAAAAAAAAAAAAAAAAAAAAAAAAAAAAAAAAAAAAAAAAAAAAAAAAAAAAAAAAAAAAAAAAAAAAAAAAAAAAAAAAAAAAAAAAAAAAAAAAAAAAAAAAAAAAAAAAAAAAAAAAAAAAAAAAAAAAAAAAAAAAAAAAAAAAAAAAAAAAAAAAAAAAAAAAAAAAAAAAAAAAAAAAAAAAAAAAAAAAAAAAAAAAAAAAAAAAAAAOCPfABg8wNRrqEgsAAAACV0RVh0ZGF0ZTpjcmVhdGUAMjAyNC0wNy0xNVQyMzoyNzowNiswMDowMGI4Vw0AAAAldEVYdGRhdGU6bW9kaWZ5ADIwMjQtMDctMTVUMjM6Mjc6MDYrMDA6MDATZe+xAAAAAElFTkSuQmCC;" vertex="1" parent="nudH7UYVRRYWOdIdDBR1-1076">
          <mxGeometry x="352.87" y="175" width="86.49" height="35" as="geometry" />
        </mxCell>
        <mxCell id="nudH7UYVRRYWOdIdDBR1-1092" value="" style="shape=image;verticalLabelPosition=bottom;labelBackgroundColor=default;verticalAlign=top;aspect=fixed;imageAspect=0;image=data:image/png,iVBORw0KGgoAAAANSUhEUgAAAMYAAAD+CAMAAABWbIqvAAABU1BMVEX////t7e3u7u7/AQEBAf8B/wEFBQXs7OwAAAD39/f19fX5+fn8/Pzx8fHX19fz8+2EhITm5uagoKDt9vb39+2xsbH///wXFxeqqqr07fTf39+6urpSUlLHx8d3d3fz7fOUlJRubm4aGhqNjY32//////YqKir+GRnq6v//9v9mZmbMzMyjo6NZWfv1//VO/045OTkvLy9FRUX8hob/cnJhYfrCwv/Kyv9ZWVn/V1f/0tLv3d3/oKD8LS38RET/4eH/7Oz/x8f6ZGT1oaH/Ojqy87Kq/6pc/1x8fP/I/8jMzPEpKf2oqP/g/+CcnP9tbfuF/4VPT/83N/xp/2mJ94mj/6P7TU32kJD/enrzqan9IiL3uLjx0ND/ubn3fn4q/ypx+XHB/cHZ/9mCgvvg4P+f9J/h4e/n/udDQ/+rq/N/f/ebm/jh7+EiIv8//z9m/2aKivcir24zAAAcOElEQVR4nO1d+XsTR9LuGQuP5pKQR5YtX5LxAbIdMIbFgCHhMteGAAZy4Q2EdeywS1j+/5++Pmf6nkOy8e7zdZ5nd5BrWvV2V1dVV1W3AIAtdFzXieBDhB5C9BF8cAP0EMOHGD0E6G8CNSJyfPTg8tQuevAF6lChJl0q1AIDjsSAKzOQUYP/h3H6YDiOhz/34BPpBTbSC3ygMCARoyYwEDVhjKemjFHqSE+ddqmhDhm1yoBjYBeEsPkBbOghRA++8hAIROWoQz31MF1qqK3D7lHUaGg8dZLEgRSopWHXTFLapX6SnLRLlVo3Sa4qg8oiyGQwbxEYlkzeIjAsGf2a1bDr/q/AQLMszZJXSqj01JixBLZl9LCcJHEsUAti4pUSKg27DohgC2PYQv4hQg8BegjQE3rw2YNI5GupIePBzttbV67e+PEGbFev3L97J0iSQE9drm8duyB38hzXSSfPM0tPSo3l4eZPP44p7cef9plkOpw86GXN0zJwYuYvTpKbV1UIrP18UzJox27Fs/EtAoNQB8nOT2YMuJ2/tZPE+bPBwygwG0zYXPQQuVTYAJNIgCUSUPl1U+qQUfspNYA9f2eZCG5KdhJIre2bMaD0TdcG0LIblddUnklTOclOIRCoXQkTi6byymuqkdmNKMkTJ6Hdh5J1Gs3fd7fLoBgb+3YnGa35K+RTaRxfwUu6VQ4Ear8ss75N5k/vgel8qtRl9PmHzHf0+YcgNBHdK49ibOwq6iu/byMDGTVIUZfab0iu7M6vVVBAwfJi1fGttN8wy2Bx8/ddNRCwnd+JRT3xFTex1VHAtjNCGB43S7J+9uhaNpgTfzgUY2N3gNHxxQzAle8Z7FlGLXh1+UZf8FGIUtwZDsXY+Rbn0ZRiwBnGbjii3QjODwlj7EHsSnbDKW83hjV/Goe8bLuXjNKKmzcWkZf24nDU6KtKOSCmdn+ZLIKMAScdR0+Eod+GuGCosMvyzVGgGBv7Lhoy7gMMS99TvA6Nj+K4Qy8M0m4nrtHrcFX7q9FUZhnMtxvJb6NBMTZ2K/mK5m9YXcu1nfi4zJ8sVKr5uzE6GFcTi/krIFRC/CTQR1tCbbQlGNH6Ju07EMTauI8aePIFdsnetpDC1RrRZAQmI2v3BIVrlB6Twq1s/uL9UaKAvpUa9zk2K871khTYKd249Xb/zp3v7uqCb3K7kpRkQIYhq6R0MNAD7gU9SLMR56qpB//wkiTB1EnSup9rYuK4FAMKu3ZH3aSp7udw9UuSpLoH67W8F+7maSqbo26evBy78cDK0w0vkXN/yc631lfu5UnPcZi/O1aWriwL30m6jBN7OC462RQmntx/2Bj6ScqO0b2ia8dxt0gkR88u8Ku1ZZueurdsfM2msq4YX8ttxSM54iQlFnbOx64phRm2LO/dTmzhNnvcp6L5s6nbu4k595f8YnnRO/EY7lszMzcS1wzDTSyh3v345FKYhNqyeb3pcqF+EptJo0S+Z5uOX+LKiQFMXsRa+rxttaicXxOFOusSoTPD+EliwBeH3WLcQanJS2UtMVuyKwSGMcYIzCNwtTgDozF/idlDehurMIREhtnifHusKUzNNsSib7PgMq3JYbPhuXmB69vVE8oFtnnKpjCILTASRh2IG7e0b7Mbcx7w27yAbfOC/E1h1QoeCyuapCSf8HQ987uuZP6OvYLHyMqvuaUvZhhjJ27+zKzkwjD7I+eHMn8jFSrobucIldmP+TWpLFT6WGkkxkojmWjZDGNfpRb6ju4aX32wrJb0RWKwVu2bT2GWVrjmvd/91PwZFO4V46s3TrqCxxIW+VFjxQXzZ/YNfztG86eHYR5SKSmpwLCkCu+P0BlxTbPBD4bNT72CYWj24sTZs+xj79rFIe3SVWFUdNRtIcMd1+yoW/QUevHEK3gs3Nyz7f5sm/HkxM2fxVNHkTYTjGVbhcy9IWBUDSlYc5f7icH8mW3GGFLV1UMKFSMqoT2evq+N1eRkPHcqx3fwoOniV/kpTHto+a2QlMRT6ib3ra88kNeyMYU5ygoei+VA7eeWrHB3cjIJt/IWQTXzlwMjr+JlP5ZgWNfFGKmBOb4KHmMK0x5S/y2RhSonr/Mj0DNQLDGAalpxUWzswv9wdawLP0IPqCjWjQD8Dz346COXUQdWQz6G/PUo6xt1GQN7EP5uwFNjBnyBgVBgQGA3rpw0g082pn7BA8moaU2OTUnfLlb+PGLzB6kTiym7vSxQM4NmgfH2BCp49LMRm3XuXQZDmA1LiOoBGC6hXD29HydGru4tG451GF0Y6NwajnUUS++bNVV+sYVxD3hHqh5kHo1rsv33Elut4TFX8Ji4umLcNi3/rH9jJ/6aBawGBxGYd396pftL4h5bAWt+WZinDy38A8gH/Lgaap16u7csUFcpCxvubKQuIPtgWemS61sTiz8fD304c9iSSY2ndNN10xRmpnDZ+YJYTbftxyl15ZLJ6uaP7ufuS0xdzQl+KtvYt8lpOIYiL/M7OTDkAqb7yUkeQzEf7RULJ2/lHu1NBKV7K1Goq8RwBX4rldoLLt95Vzq5FSnUgM8M0FCpJZJTrNTePHklji9m6wNuXnNP7ycCuUD9dS8hSJj6+TZx82HEaYp/XwZ9wpcQyOfbkx1iB/fdIpcQxERL/+jFutPwlQ4F5ZkZ1RZpqf1lFGL4eVlPLVuuZVTB+9NyYTtn4KTCJQR5B+bA8v7tsZY07FpNhajvjH27n2TDPvyBuaHtRkodx/uxuGS0doNQ30ziU3sJQfxfdAmB8WivaiC0KcwClxBUSAyoR/9HcQnBsVKHKjXInTyHTV6v2+1iavSgSI90AE2UHpWakwe9rHmc9Iwyhfls9837S+/O4Pbu0YuHTy6Cbu+U3cFjnY1u99mbR2fU9u797qfu4HTMhiBsmrXRGxy9fqfBQNulh52vtzYydnM0Va/7+yUzBtLeP+tS6q+oqWx2o9fbtUxE1h59AFqP8QTthgXG4EkhEKj956gCDLczKAwjPmxX3P1d1C1rU7tY/mKnpve8pqXW+FSOV3vss76LV/CEweBhCRBndgdWf1jns65cq9VqX1aKebgr/4TE2ytmDzdFLaUwy0zFmc/dspeeBeBxDbXDWJ4k3X4juICJHzddA7tAv5SOyoA4c+ZDr6T5ax7uYcZqf2tbVn7a5co3hHrv0LDy9TCelEPxqlvSiref1lh7WgBGczslP7DBkEINpZYFbBddJY5ii4y47WspW7U9lVqJjDT/ntFv6yMjqqYa/FESxWvV/Nk1FYeiVvvYzNVU3/P0281iu7+yc3GmZwqY6O0GJyK4eXl2YyDSb68I7BrM3+9lUeyWg9F8KnJV+2c7B8Zj6YUDKwwSon5WFsWlriPG39PaSH1E/bAmt0PXFlHvHCgvDDJ2GQwpYXCxLIozz0yVqvr8Br9caftmxZbfWHmpvPDnSs4lBN1cf1Zu7xU9oblOklv5soRgae9YYs7XNC88bttjuG9KT0ZTWAR5dmNFx1Tt7yuu2W78pXvjWtNm/koab9jeDMrAcHs6nmq175tGGD/o3/CABgab+NIi9Y6sZY1Qac1f+7meKaR09eZvYHjhcUcUKm6P2NstPRlPSu0/O7Ku5biS6w7I3taIu/a0abqEoFcaxSOuGF1vN8SakT9NTCFboKkZiY24ay/bhhRmt/z6Pip3A+u2kanaS635a5txQ6dEb/7KT8YLZS3bZ2PPzBR0+YS4D+5y5aPlhT/bPIy0Aq33R2kYHcBVoIW0Ao2rhZOq2yyTUav9hevVxOq20PYCWh1Z36mmAp9z2f78+snFDqQ+2n2B/vmwy1xvS4Q601Ttb6xc/aBoqvYX6wvPdeav9yEPxPtnNIbruL1u9OTSu5IXkKvOlNguSHYjPsh5YdBRzV/3hR3EpSMUseUXwcWSMAyGjLW9AxnGU9X9Etr3CgwnT9u+MeXSTOZP9ansTP2rqQhVs6NzwLL2spOFFFjNuX37/WRQvX6ctgMrSx9XdO+s/Nv60mGY1qizgXxtRdHNT2Hq8szcJrb5vY2hj0C/iW1bcXzMqJlut8U5H3aZDOYtArP5s+qpL4xa2f21bXL1mMDgzJ9tu/QIOMPDaFrY2VsxwnA126y0/ZXBoCrfpm4v6lKYSiRHnxhgZ5vcAwuMp6FALSQGlK073y7w1NAA9yz+1OuuJWflmhSuKylc7X6JtOeE2pC1s0kj9KuESwi6780wPpW4udtsNyxW48AaNbRNB9xuCXbDsgd/1C11j7oJhnHjUPt7TvCzrd3G4va4LcLomRXVHz3jrfZqJCfOIjnSmVg1vsHaDzK1lMJs/sv46jcpDBojMcsUCuDYzxxnp4jJg466Yx7S7Y6976Z5We2tiBU8HTMMpntM5q9YsYVF3x66Ob/4cMH46l9ANH9mGO+Eqa5sN2IzjNzcn2XbAUTzZ4bxOR+G43Vgw0MXoic8G+iBg+GYR7SZm8IsACNPqD7nCZXzyTyT3VSoPBuMvJ8RyYGRVfA0zawMAnY6JQjYPSPsCpEA3QVijtF9HqTUHTMrrO+Q7zsifaMATmCI0aHWDIQKHsfIyhnLz4gQhWv2Yy5xCtfMyoUcheuat41/SebPNcM4yitgNad1XoHM/FkUbo75sync4uZvt5cD4z/GV19w1Lnmz2zFi5g/zJhbwBkRb5zCfhx68C0m5w2jtjoje7TvtMtUJ5LiY7sz4qYpTOR6W1zDi9paQ+aoD3bNb+72Uke9aQnWPHVFt16q4LG5hik1dU5tjrrVbgws4a1nmd1oWgKAz9s2u9H5m/nNbSDt/mwRhYu23Z8t48lbcVuU6iA0w8jfNnHmz7qJfWWrira8d6mb+VTWTeyfK1So1Ly427QFfjNqGiEZWEMKxvDOwKymoDTyr61YQwra8A5+7Z+W156nr1GF69iDhh+AvnS9aw8LYRXKqO0BnrYhhWmLqeMCB9H89ezhtg9au2FHcSaz+eirzO42xaGzG1YUtQuuEsO12HHUHupgvLK+8qorwMgJfn5pd2QYTatEwSUlx3DhDNqCCqg9+tR1RaHKq0Tc7QlClReK/vNAFKq4/dS2umsoFJ0lBlKlmJsYeHFE9CymHjzJLX/jqJEKje1SBdvzp+02Vc/NJjgw233aDjn1nMZmuvllnpfefPjU7Q7A0RNbhTFDrSTN7Gka1Pa+bENJXGkebn/JmYkaKozT5f4qJM2s7UhJYVqTZuUbSpqpMOKcRV6yvQJqCjMn7VKuKSlMmiavkFC2tGdqer9jCYCWb9tN0yUEI0TxqqsptmjnC3zh9lLQa6ndQJZgd3QwPsmhaGQJ5PK8YZqYKRRgFMgpF2xvBtoKnrbF6S7Xnnc0MNjEly9E0rd3hrIwtzsqGJIHJhbpDUa0yp/1DEV61vKJEm27IxXpZQoXR3JKV1Tp2puusWTSXFlUpj3Ou4SgfMmk2h51LReQu+YAQeG2l7JrgpHvWuW2d8ZCJEMBa+nWtcGgs1S6nFhuF3vGsjBcTjy01n3Ks5v1Ldaud/8YDsUz7J/bSu2HXObbK5pSe8FuYEU8nLr60M09+NAeCse1wuc3Shfbc3PRLXB+Yxgc27ZjKNIpm6rr492nXqFDQe3K6+NAxy4A+t+JHVTTV5eaRY9orVyopHf3Djs6do2XEPRKnZaj7XVXcxbLcGCu41Swg48rXEJQeoHAxV3i+GKFBXINVDmFeVTKMXkR9qwVPOopzOZhKX/3eQ9YYAhFm+LR3kGxE7GoPTqqcLTX7eSFcLK297Sd9m27hED3a+8gelgIyKUnA+tvwxt/v73Z/lhof753rdOx/9q7zm7wk7ebu5V69QH0OI+m3LH3ZnvbnE6j7ZvtNi/slS4h6HWf2aLUnx9eBIUqeCxHkS/8YJmSvR8O282RXUKgXe7/+WNElxCsHPxbG4v72/cXQNOt9jMimgs6ENWH3devsish3r/5/Sjq9kZ1QUez2W4efPzy/CW1in+9fP7l4wEq3TBdQqD+jEiJ61K63S4NlfZ67oivS4khFrII4P+30y5V6rKXEKiTJ1CXqvz8epcQlL6D5yvC0PtUZa6gM5eu2y8h4LJjw19BV+QOgOJ3PxqIylFXYACQyVMceNsk6XYQZS8hSLvUUFuHXc8uMMtgiSvohjN/p+YmvVMCQw01ZHPqOV7e9Yy20nXdJQRKjYv1EgKvyPWMPAeEPAqCmAR+0geN9SlZal/A/Pno56UJAzG9Ed9jZ6hVBtA6D7Ox4O1GHIKZ2f7i1uVz41NT46ubcwsT8z44drsBfQ1vfmJhbnMVfu/4uctbi/15Wrm1uLC2uLiwgOVJlLXFxbW1xbOLoWr+/MbCeF1paw0wivMbZhh+4+yq+rVLsKsw2CL/mI1lGOuUTDV/8QL8eFxu8LNFrCKLHAoy6WGbZjV97bgLwngD/6W+5st6+Cz5wwLTw6kFia6rndEu56LjsYrob2DO8LX1TeD7LYywXpe7BOMExnwkXUIQz6bdpRObfjALjD5K8QNzWvMXTGQoxC8dr0/D8d+i7IoMxPPk47rnSjFcf7PO9TW1ujqVdVpfBcdlN+I6/7XC+EEhAIBK1SIQ7EZwlgmbZP7iGfru5kYjiLCu9byZyS366cwxwYgn2UAtzaJxDeGXzvfrdKwhUYs+CjDc4Bz5eDKWzF88TWH7MZUAl19K07nmr9AlBEoxerBI+r8eBC5Z+WgYWhQb1JHgcipVGQPueipT0iUEjF8XCPvPwKOzFx7PdZKADusM4KmjNfLpbBD7fTq8Idc3WKJcAeUSAiw+9XNAKkb38ffULweKp0NLHDSXELiuOduEj4KD1G4EVBMxajJJdN3XN6DUsYGndcOkdH2VylTWN/sqrMHq1+W17F+v0+nDvaDyRMxY2Go0ZuRFgHwJ3201ZlpEA6ZLJoKvkboO9hqFMUNlSlwyVGvWJ+ByCCjLs3E6juEMkykFhk+GZUGGwXTCDIIxdXl1dfUcfJhfJBpls98C6cKL/fmzW0zXbC2tp7OxcQ6+NgWlm3kJc9MRdQzoWJ8VZwPCwK2PYFABWgxSGBEVtOthBoNEIplG6AMibC4LMvp0fhtQIiNq/1ubdaZL6vWzPo1EgvnNTO1jjDM+6buPX5sHi9xrsyG+soAO+xLgYqIQxszExjRs68hZbDC1hYOyWJbpBE37II23Et3DRHAilj1JBgOixsu9vuryvkMdT6CDzadkjutITUNNRSa03rouvIYNGtOP/UBxfPF5FDzaU4RmPd2ZM5nyM8eXwHA4aZS2TdNM4cG/YHY2NyUr1cDy4GUjzf5UvwwyW1WH48H/rR5yMNAiMG2b/AXqPkVMfOnIzqm7PwZjwwRjlsFAvEwtLE1s9NfqTO1BGAGV19Wz/f7GxNlNNoeZyUUvXl/q96/XM1PEYGxYYASUtXpq/jZZB8ruj1rT+nQs7+gzGESo0GqLA7IUN4kWQ6HHAJupet+nfhp2ItDSZUIF6ZYc5B+AFtHhczyM2BLJof4K1FWEiBnHQK3giSjkyUhyR0P6RZOhH/pMVNjfqG2ch//GMgV9L+qF+njIICnsmxmrDUBei/A6rI9DLRyx0WMHNzX+sA8WmV+F+46oTG0Bjpr5EZNs0KVITjZNEDVTK4B5HcRmbsC5aaT6mgwk9grqdQdZgqU6WyjY8XWiOvmbk2qqaaxwTZEc5s7ivpkPC9eTJoU5yTvEvN1QYcxiGNgHXCCiA9/H/BCEeF0R5waam4DBWCIwUN/E1DpQ4VIOJ6jd0Ac/IypV66jv1IediTUxXGE2NDAmMxiNDAaeX2iZqPaAZodIM1TkBMZ6nMKYzmCcS2GsF4HBpAqrduaobAa6FOYsB4N3ZdkinM1gYGeCxDqmiQeTsjo+lTYy4vNxKlTYASKOL4HhQaFq8DAMZ5tS5pBUef5Wamokak7hTgeyvsvMH1O4LZf5gAQj1DmpzyJtfaAcpHYDhwWwxxhig4aiATGFsaQq3BgpAzrvLdrbfOyAmMkU0EQN2a5wQoFB7UHLAmMLwlhQYFAPxAwDXWZEDfKCDGNiog/bBoVB/FO0CB0m/atAC6PBpko2f1RbuhYY19ls1C/PiW0rDwax/WgzKsIgg7BKYQRUsi/7Dljj1KUaw82GRQ5rMROng0EW9hqgfihc4tAjJ/0yjz6yCZVDHKb6li+diSXoNvGXOEiqmHYCnNbiYVALQkwlDuUIsRli+ZFd84OYLhOfBWnCCWotAvYUaSI5IYURpskIwju6siDaoqMkZEMiupvaAvQTGgWCZpKqtnORlN9g22jiTOCtOxfJcamhnvM9yW5g87ck2Q28/ck23XB0HLumYrrUBbz5Y/72deb4MkWzyPbaS6YKnoXU/vF2w59OF1cKo08lFmprsjWcSK04ttRYIOH3Qa0LzU0gwpDsBuMPLebMboTMqQ2Y+DLfnEUYGqYUJtPNDexmkX2ID40fMxsZjC0Ggwoq/CNkPRtVAmOOBl9zYDBHYyPCMXISWqchOOK/4wxAQK0F5XLKmMIM6Kv18bWlienp2dnJ6f7aFNsctNxUqIg9Rhe/RVSLtdDcEdZQWAzt0AIatWy4OUIVsa+tz53tb2xMT24srZHAJn6bOb4x1ft0C3VWyaWxaAsNqki6n360CMnYEocEa7MNz2tMXmezE8Uxk4PNjfnGzMx8n6ziKQD7ZkvcZ3GfKF3i8Guva76WfjIesuBQAJgnRf533perFOgiQGFD+rrSSAiC2zaJu79ZJNZ0VYrxX7SM7ArXpXZX+7VLEVW4aNhXMzq4Lzfn/oCymU7fIvEgBmNSoMPKHUqnv6i8jf9kN3/wvSXT167S39wii2CJg7Ho21KYja1sRlMI9frWui/AmJnNqOr1ywFVMr6Yp4D/WANWGGx1zk5pv3auFfMpzBkOxqxhNhAb6PPG2c260Mbn+o0wZpcQUGUXNtbY31f7LE4IXZfGwjnuzUWCPkQWHistPPb4I0IRpR75/MJlyRfb6q/7scvPBuD+6sTylQViBU+AdsPzk9Avm5iYnp1fpwPCAilMZ0Oq+Yn+0sS8J6Qw4RbdW5+dnuhPbMxib5663kFrptFotDJN1WqhT9JNN+IybK1PI3dwYmNyfn3GIxt6vtjCbc3At2bWWU+5FTzoyhLiDsVS/jmDgbfwQWYJqGTiMcJ2R8wUkggeTx25yq9oBSy3ml0+wSfASd+4YFFgt3wFDwfjv6mCx+FSEzKME6ng4antpSQF7odkLWBLvMQ7J9SAMOzWCh7m7TZi7bBXS2GO6mcLzTIol74wu9GIzYvgv6CC5/TD0FbwSPcNsxgu8TtPsILHMVakcjFcVzPsTN8x406tJU3TNARq8YahkFGbz/2RLlNq7s6gXAYs7JawGzKMInZDPTBXwG4w6mMrYMXRgjIwTr4O1/LD3JpelOskC/6MiPZ2M+VnRIzjaPph7jQXn17xrybsQ33CPpc60FOr1fAqdVyY2udSmJZaw1RTHUexRSlNpbg9o/4p6FNiN/5HYBQSqnJlYSMQKqeEUFnK7iw3xlahzrmNNqxIrb2EAGgVrvf1FK5XTOGWM395i+AUmL+CME7gNE01Z0TjaxWajdQ1VGHYXEMVhtE1LLaBcHWXEJiK0b9aqb1TpNS+OOrTbzf+V2AUCSno4z6nJKTwtUMzo2n/BxC9dsXERWZ6AAAAAElFTkSuQmCC;" vertex="1" parent="nudH7UYVRRYWOdIdDBR1-1076">
          <mxGeometry x="363.78999999999996" y="265.38" width="64.87" height="83.24" as="geometry" />
        </mxCell>
        <mxCell id="nudH7UYVRRYWOdIdDBR1-1093" value="" style="shape=image;verticalLabelPosition=bottom;labelBackgroundColor=default;verticalAlign=top;aspect=fixed;imageAspect=0;image=data:image/png,iVBORw0KGgoAAAANSUhEUgAAASYAAACrCAMAAAD8Q8FaAAABFFBMVEX4mTn////u7u40mc3t7e0BAQEAAADz8/P39/f6+vr4+Pj8/Pzx8fH/njv/nzv4ljD4lCn4lS3t8vX81rshlMv7y6L6uoH1lzj6sGzpkDb82sH4kiL6von94szhizTGei7/+fP5o0/5qV1FKxDQgDC/v7+lZiaybim0tLSdnZ34n0X+8ueOWCElFwk9Jg6YXiN6SxxpQRjb29syHwxeOhYcEQf+69vR4Ojv6OKQw+G+dSzKyspqamqDUR7j6ewpKSk6OjpcXFz0wJP81LHw3cyizOVsr9VKotC72OpiPRf6tXeCgoIeHh4fEwd/f3/7zaaYxN/H4fD3jACw1OpDQ0Onp6eTk5NRUVFgq9VkZGSwlHoiIiKtb9ErAAAXH0lEQVR4nO2de0Ob2BLAARMgCQSC0ajEGDW+4rM+o7a2jVZtdlvr7bZ17/3+3+Oe9yMBAgl5uNv5Y1dgRM6vc+bMzDkcFBVJIaNBMfCRiY4yOXxkoUsZfKAOpphPqJjHR0aAooUPcgkVzcEUC/hI+Y3pN6bfmH5jmnZMmbitD1HMhCrmEyrS1gcoBmPqq2iGKoZgykiYClgsJAY+MPFRDh8Z+ChCMZ+eYj6hopmeYi5CUckg0ShQJAwoEgJUUiyMWNGUFDV8JCkaI1bMSYqKFrd7YgPV+itqomJBUjQzY1cMdqOa6Ej6O2btN6bfmH5jmgimyMGTOVx4EPisAypq4YpmP0WNKmq9ilLru2KX2IpS7KIpBhIzhyQvHZn4KI+PEioao1LMmXnTbLXOz5ehLN3dnbfAb4HxPMkdzYSKJLxUI8ZESxw8B1TM91W0JMV8kKLmeV7r7rbdWVVcH4iLxfdLzbX5uaWW5gXdMTDISar4ipKVwt1cR/HdUslResRxSq6vLDydC3f8N+Z0y3NrgFAAIAlWyXc6S3XV+xdiAh1tqVNyS9GEOCrXXZjVvH8ZJi8zu+C4fayoh5TSbnmjwDSlLty7m1cSMsJSKnXuPNr6NFy4iSWPxOx/ND7FvHG7NhAjYlIL5/nUnlHpD3RkFQItXNHUvFZbcQdlREDNg643ZIWAGP6UJiv51rwT12lHgHLm/tE53e58v7E/prhrd/Kf/gdhqlcHd0nd4rhz/1BMc6Xhu5sg7kI9BUySw514kVfLLzWHc9y94ijn6tBFXlouh3kwLZeb+IjW7ZGwKjs+HI2iurvgpwwJijvrsZmA8GfMBzEg0yZxJqAygoGOdgLqKT2nJIn/5A04UzWFycr5atr9jXNqk/a+/pxuzh+NKRFO/whMXmttZKYkcnrdmLzZlOLJCE5Pw2OabIVA06qjGOC6OS2pg1cItLhAY5PHdwwOL4MV62upBpRhUrrzAu152ChcGhOjovC4GW1wFH6ujLrDEWm2tPAoPGo5zhQkK97saH23IM6C91pzOqs9BrdExZ2TnvEVYZofmy0hTrsjwBTumyInx+Mqwh8XxuK8mThroZiS+CZ8JBmJJhnJcIqmrGi1xjPECeLeiq0nmDTJmvBRFyaVmMAk4qb62piGOJFTSxskbhLtbrxRuFZfHT8lxZn3Xley0poEJRCMt14XpslQUpyO94owWRPwS1j8u9Esnw8vSg5evfQ64x7jmADvlLx6mZPWwqE1ZwVpwRgpHxuFXsVcoGLAHamiSRW9ccbe3eK2yDPKTcuLT1yQ1tPlJjSzsjxBSiBleSXL53cn1uOQNNMtpIwIk1aYmPvG4i+/Bkxee6zpbq+gEHPaMXl3E6YEJJMUU/+0JmUXrmVWJw1JcZe0mC6crm8yxy259mT9NxSnmkv20OOvEOxOvsspyqr4jFNZIViY7CiHhVQxpzenW5pkYMnEnZ1yTJP331Cc6nRjup0Gz6RQ55QU09hc+KTxMKnzZ4zjwgOT5ICXzoKz6YSK+acpMSbFveutegS8T0cbk+DtTHQQdwIqRHHSdJi4s7wkHuftTC1u90wjWRnfPHg/KbW7MU1RTjcdwxwUcYJl2jBNtBgni7M2vZg60xCAE1m1BqgQjKXIW58azwSkwof7OEVeoqlJQPGRDLS/ohGumAc/enOTLw0IUlcTrItIdf+mcEUYhXvNSZMRpVRXo6NweQJKxDTSZMW6mx4HrpAawRTmdF51ihz4yDARl6Nq1qCYJg1GFvd8YEzBLgduH3Zz8fj4/dO3b5++f3+8uNGswFceozFNV5/rjympb7r4dP9QluTh/ttzPiEmrz1VfS5pp4uMmzTr4hIgmukRwOrl2wWLBOLETdOTqCAptbSUJsdN63sgI4bq4ZMXQF4TfRmLwuup9zm02YW440Wi3S9KfDXYkMnK40w4I0rq5TkmptSLA878csdxqstsCsJpLyeZjkgJ08VDP0iY1MMjirH7YZpP2zWVntS5kruksjgD/Az+SGUtZu/OpILpMhYkBGrmu2X1xZR6CO5Ud6uOO8sxlZ52gXktqMux7LaZLPXFhtCNyYtnStyijJBSAsW0m344AF2RiEkpgROxMfUUUuLsLcf2W8WvSz8nYIRB3d+Y9C1rK+CO+aFck+uuriqEc8lvrjroZo7PMfnwBdgS+I+/pi7/J0aK7Sx47AXywNfm6U67pBauEhMQx8THJKZEOM18D3ylj9wxN0ym4txCO11GK3/9KkxZl5qOUpqDvglhclbr4H/IN6EJk6X+/yZ4oi7+zEpA9xyAEjYo1JEDw8vc2uCUQLxcX5rdVeuQ0i3gBX9uCpggpbaPXfjssrq7FCOSxS9lDJPTPQ9ECRoU9FAhOXJsY7IrNfkE8DbnJd/1z9U2dND1Vd91l9Vbl2FyMSWMCXW6GH8M3GI4TN5gkBCoSysE03k8D27btb19/dSWMFXVWx/Seuo4oHFVF73HtMsxNTEljCmuC8drLQbHVHgYHBPoeBkrEFMMbwEYLW6u61CuRE6g4YVqE2/k6NdVbCnApVNMc3US4SfCRGZ9E2OiDjd+vBTI6eGGVlwkF96/vmtXrj4jRtmsfiSZE3Iju7cdgMkR6ukUE7iGVyYkwUTeq+vvwimmvLSHWmFQx8TlotC7fVuu75yK/e4MIwL/0U8kTIq7dgu7yO6qUxQWkTFMC6DJcGlwIkzVQrwt5gie7grBsJAgJ6unQqD1SyDsFcgIUNpvvAGk5Ca5jus358+BgyupBWyWTd7p2j4wt3M/GabSrZdsZkVKVgrfhjYmxKknCu/32MUDTElvFBcBpopIqb0Eo4lSqaC6/i6yG6Wpqq4YN4GwqZQIk3snxC6JczozDUqEk/gIrT5PzozpqKjYWRkTIHHrO47bBJ661IYm5fhPgIWIaR54D44pxpY0zcwwmD6lg2nmRsZk9VsJXlwnxgRiJvtM7nTQ2y5VO2BAA+MAGMfPq/Oz0BkJmBR/GcChmOqdvvUUkKoMgykdSDMzL5aEqe+ODA1iTG+K4EDX9+WRDi8AVJ/QsI/2cK4vlMRkBfXCjo8LKWCk79vtSk9JMYkufPhhjgiMMwX36D1FxwPFz9QzgYOKrq/LI51TWqhWF3C+q/ir4GdUpnRouotO++znartvZuS34i6fpy5c2IA9f58SJcDpuSAsQSv0SbJqxJgOIB5gWXLcBIkAEQ8i79bnMpTVoB31zaAjoihG4Zm0jAnIQ04s4kSXLu13iFJW3wR47E1dP+zGlLKQdbyD7S1nDVYZCJbypSF0+GifWiHGpC9CZke6vjJiTO6diClhTmcNl6d0c7oQMEW+P2dvEWPCKW9XPDASGeaVaGuYpLdX7g2OKTIItw8Ipi3Y5xo9Hjx1cea9ITCl6ZpmoDlZDFPkfEGju8+N2jX5d9qAmOAGbxfpYpq5t+goW4h6aObAkREBP6XXotRTkOYAe6SwT7QNWNsNl/KNSj761or04FmCCRoR8FP6QXG0lEDGE/iZOjZlEPBxPiEKTytTYZguSW/WojDZV4QSii2Bn0IuapQC8udh9m9KdaBDwjBFBOH2G4LpDDPrqqKkLyDrG2o3sNQxlZ8ppogciwRNIJ+DfW492IHbQMJvYXddjjpSbH+5G5NqiEvbCugoHNN96pju+2OiQRMKwZEx9QRNtr24srW51VACSdl2bWvv3eEVu2rbW4e839rK1eFhgx82rrauuzEd71yzQTm/sbNzbUZiSpkS4NQfU5H2OTS+negoYZEwLB6e6FiOFntA2ZVNepWgKa6AE3uM2RW6xm4Kskd9m2EyC9c/vn4Ap44Jppu3SP2tEVEhGAGmZ5x9R2Cq0HHuC2jTod5dBreVPZ1MJMAyeaP76qHOBbIpNtDcTIMqbOLfPKPHp+AiDIVQ4m+9J7/50cSRwB/0D/1hBi+fBxGENQJMlxay5HqoC6fjHHJNtR4QdgNOJOinRye8bMeluPIFzzKc7h1BtZVi7Q2acsja9Ndp5Ip7Mgw39LcmDYe26dUNdHjzp04fRjdCJ8eN9DHNPBgYU2hAAIJu5pqg/z6SYibYrKx+UivawAyEtI9cfYf/7dfh9Qroagd7xBreUUzrtEdjTIvwdhsGdUp/katZtI70mkLC4MKSlXQzXyzlG4wpjJKi7FNMjSLoQF8k/426jH5SsVmxXHTwlXV86o1NDUen1kEqDLTCnqVZIkgedd2kvvuYXn0rmBZ5mu1wTKnMqnRhesTJSmjKX6OPqsPUTq6gYFvSazY1BESTXlzEgPV1cqLImskiL2KC1LzQIXA7FNNbnTFR1R+MMrpDBKa0kxWI6RvOkMJSX2Av5MHWK2fCAMVtgYZR3ZgoJZQvI0wHrJGfSc9dZL4G4Lcrp4g6GvshJoP9C4GjHcDo/S/um47DKwRpp75Q7jGmsOK0/Zn9e4NGyEssFrO6YBk10ukoFTqvx4Z6ARONmhoMBAgxGyeI+vs8DZh+0D/9MY8o/SwUPkguXMLEs7+bEWB6MFX4+ZSwslzlC30wYEtni+Il3GOogZEREVfLhQzngOkXmZejKHnk+s6Gc8noxx2T5LzUgYNTqMdtqLnce3rqQ3dyLM6spFuWQ1JGGxB4YUXemuAO5FgAOaYsi4DwiEjXquCL/BidYz1mnfQ5Hmwc7DPvTkZ4TWMOXDe2ISUzY1rsFn8YEZPjqWcrtNTrhUwZsH9v+LRyYQDbma4XRZ60W1KnQ41LIs6TQu6b2CD4i8RBmvGTWc4GoqRpuW2mvmFETGd+HwGmZ4QpZMsmWpGDTyZnvDR8PsWY8CAFYgPBtEQvJJoOD0FhVE8prZ+hO/wgmCyD9bkPcGCDw5/6i57KRs76jsCHl7/DvxM2nUnmxLM9S5oUm4Td2DUhLqCpFdlwxJoLI67vi7CzcHDTz44apA8fE5dsHYvd/QekxE+BQD1ycjx1SiAiQJhCFstxD37aRYkuvUAzd4unqNe8oxffSOEQIX4WcFIpwuxkq2EXcblG/9ukLyP9ELr7Dnpl2fhD6HORy+fTj8PRakxNC1lqIQU2EqY9Yi9XIA3ZRJAOGsWe32rw32iwNoq3AkGFvgd+r0hGgG2LWJP5lRvTVzxzYGTpLf4U603S8nk8hz2CAPMeTbuHlAhqQQ1GmE4IppXaOwTpZIsV13hIqnMg3F3pYlgB8pl9/od0XTPJZHfuA8P0S0Vz5PkNduaPghH1aXZNGwEmEp4FCXO72e7JFDaU4UHqdEWoQBZPA3pqhYcDguY7EmbQpRxv6YSJZvBB8IZ4nLf8DOqW4cvnjfRDghd8/8D4UrCLRflKQxjK9w8Xi2KXrDAvxHMbMKZle04WYW89LCp8Kcc2nX4T3DVwTAhTgZ3BQUPEgmcr/bGOYAoMnFjjujEBD04unBzWirLbEnoqDwdocQ95M0oJFi5R+QB7Jhxb4tabG9x0LIxpm91hux8mLZ96IE4wBUYE1FH3rBqoHLAu1DNnx7yQ4PcFY2LdF1HC5QO6lOM9bb1xzdz1B4MM87zPGQRTBtZ6AzGZqUeYBFPg+jUe60jWZC+e8FYvdv/OGx7wML9fYzUQPUuAo1BgH/027dv6XwSTyStwIETAmHif+5uEDMZfv8zQveVSpkQxBe4JyqxJGunsGnU+WTHzIPJZqDFSa7JRiQSf2xconeFSFQ1ikdMBnhn0OH4PkL2haIg7K9zn1NxHVCKnLlxeM55Luzb3QnZ1DaAk9hU+nyKUIXu6ow0rlryJBGFxD/igAwkT8t5ZTInPBL5XYUNhnZLff7uAVsoXdnipCa2cL7zV9Y9q6KfZb9KlhNdbZDL5oBoBz3y5D0JVfX2Pt+ONEBzVYKbPE5wsha1/UWighYqd9h63JTHyBAkursBlWcnkGnmcjMlc05+WBnBoH8lMVcin2dMu9eJVTpl84EsrfNAiHciuoGjyqih4pyMyUWkrm3iyjiM8XbSVGnzTpcGKcvqbilKDyc0JndRz/sv0/9w+3vgFb3L8kaofY8dssrRXh4sujj8QSuGvRKc62JG1hZl84H5pLASChSUb5CVb+2iWzebdEVzZ36xVKpUanrd8Z9snwrWDEzyTycrewMbQPQ4qhJI/K6ZvuEMf82JABmOyeOFyJ3MDDY74qDBM6ZbESU6XMQN3AuODO8z/35yidhxAM+AmgxqX/YKah2q63PHTdoOIUroTjNupS3PbBY4JX/4A0HxkNTmMidVVwKk/0R3w3F24NVkvaWL6RDAFx+E1XW4d6mPU4YhNw9dw16yJl7J4eTQL6PkpTKnq5a9l9Y85HiXpukk63ceuB7lWZUxdb0ClvGqu/KiRJWiBlTkyIyk84ZU4yEsC7A27G3tPMrUjcYIKn2JRhNuB/0LSv8VP1NCvMqYMK2bis7+OrYhPsxtowViaVczyBVmCZoS8ILEuteGzsJjitJsgDxrWuetnUcEpP3VFh023A7+4nvvJ1f93jZb153/qxG4yZC8AS4hB9B21QD5HE/lp9pfUOJVv8B3zmUxwObxySjsUsJaGmJrYhySAwg5IXI4CkhnyO2csYVmkp9aZoruAegj0z+Q2P8kiL2MH3/TD1wwttm3oVN6imDLG/k1DvBXdLXz/ppAXNO0tvPIme9ToWuplL+7tkyc/3exas4MRnmzyNU927QBB4nMtmBIMcjJ/I/WfFs1ojR/AR+1cF0yTO+br/6HH+HpMkpWI1JfuGpDaaPdgMkxhb0HZ9mJjpVELWg6HLoFrSneVANABv7PYtQ6utrIinHI7fFgyj7e3j4XWaxl8JC14Vq83No4NQ9qdMno3MCOlILN8zzBpWsTKwsgVg/F/R9T1qx7HpFlGQWo9ASOvC7cMy0q0BV9aBbryJ44pbLJuNOLPeVGr4gMxxVo+L79SpiXacicU0wXffX6ce/A57pIXZ1V8/OXzPeGlhvdbzaWRtJRZIQvefWy7qLqruwE9BFlHjE+zByhG7AaWxnD3Iu3wPK5N1f2q0PrgVfFaL6ZBP80+PKfyJ3kj7LGYk6PMBhpJP0wDb8E3dO2pfCFjGsfXQ/xOyxsvJvNmWD/es0n/qAc7d3XJk7dAGD0mMCYOFReUv3VjOh+tOZWcOS3elnFD+iZ8xDBZxjCvRZW97jvm50YYFDilassT9x3RJCPBR0m3io/7aXZv8Dz43uj9ak91VJyc0nzLkxqTatwk2l1w9/zUdzPVEGO64Hfkn8q6LY3CP5UcYEkJguvYivF3eDZuLiN25g2n9M0IwqTudmJs9ZJIHL/51PIStX4EmCxtAFBlTCnwm+Pn8256H39wXLezrHoJWz8STODCzbeZBKTKdHfH4E+ze62npp8GKafkr83WB2j9UJii9lu11OfLeKTK5fLlTfSn2TXPu2uv+kk2ru6Vkusu3NZJozI9rY/c0yO2YpxPsxekD6kV1Nwz3GQ9ChW8ev+YUwvBdzSFO3pefXa+CVANwMpxXH+1vQzukQ/6kLr46bdCxBfXC3EVk32aHZa3vMfLF0ijGxbevf/y+40Ka1uxPu8DbMpqzVbXHN+NP/w5wIiUhfZSixq+dEdxFA/cbyi24nCfZseK3vP3y/uXhwdsPjMPDy/3l58eL/Ct8R0jP82uckUPBDu7S+3OKmg+oBVqWw7g4/ul1c7c0h34pS43Gr4H91iSlR5M9BHQCx00uMbvgbBPjCTCxBVbd7Nz1c7aarPkd4mrNNcW5tuzy7vs12LdceKYhPpdj+KgmDTLA74G/lgokN6Zx7NkGXwt+R2nA9OAX7CPo4gvpXDHlDD1T2tS/jR7tx8NVAxyuLLigJ45qQuf2KfZX6WM/9PsIYqWpJjvq5iTFAdM/GMrjv/T7LEUaesDFGU3GltxLDndb0y/Mf3GlDKm3y485qfZkbAkmSxxw0my9GGWhIq5KVPMD6b4f3HqQhjwFmU1AAAAAElFTkSuQmCC;" vertex="1" parent="nudH7UYVRRYWOdIdDBR1-1076">
          <mxGeometry x="349.8" y="395.62" width="93.5" height="54.38" as="geometry" />
        </mxCell>
        <mxCell id="nudH7UYVRRYWOdIdDBR1-1080" value="" style="rounded=0;whiteSpace=wrap;html=1;" vertex="1" parent="nudH7UYVRRYWOdIdDBR1-1076">
          <mxGeometry x="340.00059523809523" y="531" width="162.05226190476188" height="174" as="geometry" />
        </mxCell>
        <mxCell id="nudH7UYVRRYWOdIdDBR1-1095" value="" style="shape=image;verticalLabelPosition=bottom;labelBackgroundColor=default;verticalAlign=top;aspect=fixed;imageAspect=0;image=data:image/png,iVBORw0KGgoAAAANSUhEUgAAASwAAACoCAMAAABt9SM9AAAA6lBMVEX///9CUGb/hgD/gwD/jAD/u4T/y6H/jgD/kQBATmX/gQA5SWD/dgCQl6IyQ1wtP1n/7d//mACboavAw8qFjZlHVWt+hpP/nQDIy9D/4sj/fQAoO1b/ngD/dwDj5Of/mQD/aQCtsrrs7e//1Lz/2KmkqbLZ29+2usF0fYxaZnjb3eH19vf/9u1ud4ceNFFRXnL/17b/wpP/0aj/5tT/lTr/mSb/p2X/qlP/vn3/jDP/nh3/n1//rUz/tYn/y67/gyv/sEL/nE3/zZj/u2z/YwD/3rj/p3X/xYn/6M//pTn/x5T/sGcRLExibX5lSnP+AAAHt0lEQVR4nO2bC1vbNhSGFWAjxolELg5uTAJ251wIkHVs69pt7Mrabs3//zs7R5IvIU6T7FlmM763T1tbsSzpjXQk2SAEAAAAAAAAAAAAAAAAAAAAAAAAAAAAAAAAAADgSXP9pXhxWnYlngiv+p+Jz+kv2MiXByeHJOvg4OirsqtSde6+7h8eaFlHRwffvCi7OlXm+tvByeFBIuv4+OA1Qtc6Xg36J4d5WfXjo+/KrlQ1ue8PTk4eyarXj+sIXSvcvWn0+wWyiLcIXUtcf3856BfLarVa9R8QujJ+vKRutV4W6ULostw3GoPBJ2VdXLRav5ZdzSpw99Mludok6+Ksdf5QdlXLhoJVo7GVrLOzi5+vy65uubz8vbGtrPPziy/Krm65vLzcQdYZZEHWtuRlNX7pr8p6fVSHLEsqa9B4c3fdWJF19P70wzFkGRJZjcG9EKcFsmir83BRhyzGyGpc/sgna2QJ8Wu9BVlW1uX3ZgG1Vpa4/q0OWSzr8qc7e1Ik633y2c8tyPr98j49KZBVf52u2h/OW89c1v0fuZMiWfWjd+nn77CZziiU1aq38Ky0gGJZrVb97fvNmZ8b62S1WmdlV616rJf1tuyqVQ/I2oH1ss7Lrlr1gKwdKJRVh6xCCmQdP/x2DFlFFG+k33+oQ9Yq6546PFxclF216rH+Ec27DTmfIetlgRUgawcgawcgawcgawcgawcgawcgawcgawcgaxd+GTySdfDhmf+w36d48aafk3VUf/Y/RvppPj85SX/R6c+yK1N5rj/rn5Csw8O/MAK34PTr78Srb+42XwiYU4HfPwEAAAAAAAAAAAAAoGT85irjfRQ0elRIKETY6/b2Uta+GAfuY1RzHwV1lguSPSG60pXtfZS1L8bSMdQIc+TuR5ZMC9CFsCy35j4tWa6nqbEtc+jsT5aX4nSfoKyEJlW8u88CWJZaTnqysrjivX0W8D+W5Y/D8Sg5mUVRNOPEMOwMs2tmfJE/y98l6uQvsflGYTjcQla+SMoYZYezLHGptNJYktVWkiYqpWJz2vmobnsiVooSgxtb31kv4Itk0EuaJfx5IGmeU14nzRdMxFTJoL1J1qxr72bi5U2gbu1NqGx7jQzUx6t/udn/jJysqCYp2nPAl1OdQO10exOpk2qup9OuApeOXUpyA9sfuoG+gLIG5k4+ZbmZ8nXxBlkjvhvf33Fddj+WSQTle8z10SygG+3RwA5ksmZsQLqe4lbecAq3k3sM/WGD3N9myqk5atJdKEoJdN9q8lWUzPmkvhU1lBcLtHLbIOvqlu8rPckZJHXdKKg55kuhicfe35d7noK2J5M1YUk+HYQkQvGBnvVVTI3w+cvnL7rt0v88IK9YEY+dEX/xE2pW1KOkgAcRy6rR8rPd7HxaFvUpx+GSxiTbXdCB59QCPd65x0m9zKciZec/cbGRVNaQGh2Y0BCTEe5a3E5bT24/t2Lq1KSvU2gLIHl0UIrph1q3U7MXJ2mme7YTmpHIZI3Zo4l8Ppc+0h1K3/+Ke66uBBcQVCO+Z7KauUhPNQ2EbqcdFDT8qF00t81TWVEchqF1bEM9Rxc1MvEmjTK6e6a7nduhyGSx52RWnJj1Ho857q/8fZlKiCAJXuWTyvJSDboV6mpJlgiMrB41whvl8od0zTQ54RbH+eAsrKyUICdrZu+p0b1Rl6NvN3fc0HSykazOoiyVxaGnHcZMaPtPgawhhWRHeU0/WTdwh0y3SbG5mZ/LZ7c7iSyZk8VDLY1mkTLjfKEHHQV6FfVc7mux1L21EiSyuLLpaHFMrCqQxQ8ReKKXwTTU6T3TmQxjqePMiqziAK8nzTQxMPHL9Cfa5nucU+re+ih7eRTKIoI1smjSozUqT47S5S+cR16Y3IxlLXaSVUsTrayhYvk3Dl1Aw5T6lMzmitLJy8omLWK0RhbFmk6XFmM0699ePdq6ULdwJ1vLGqncanOWTBQu+9aaaEi6bapX9mWUTT5mqeHyZ2tkMVFMq30Oxe38dskGsC1lRUEtWxTwui2wH0qeE4V+5janw8fVKo9UFgX1LPgYVmUNfd+3VfdN65JZTEPTPce6LWUJXsYlE3Cse5QtlOZCXrOTTZcCviOqQior5t1K8j2bJwirssa3MljYFDt90dpb2gfqycp1W1ndRBDBc4oebtzfklUMLWGcyux1RE7WjLbDztysCMJAT/GrsiK77BTGDE1WPA5rUicNeb/UFdvL4gWtNOsO3mvZq+a8LTfHsd70VGSvI/J7w7HiKa47Hrfn1FiubfGitCbbo+GIY5ZZYPFjfEXZuslueGtZeg8up2En9tiV7Z9sn6cJoafGWmX2OmLpEU0z0CsoXhi4vIAvDPBzborUqwf70GYodRL/65jN5dayxEQL1kuR9N0ST5JJb/Kc3P6gfLrKlcls1qGtsX4DoxZ6OPJbrGQhdGv3daKnXPOaRk3sR9FC2WxTE/x9ypfJopPb5TJ70lV2udEOTFYpsxeJXJTtTW2VXlkFxua9Z3LWm3vetGm3F/x+NKkqvx81AW3YXniet2jnHl6OmlPPm3eTme0ql8+8ZF0tMwlEUUx3m9+EubEWZ7mHdGVlFg4AAAAAAAAAAAAAAAAAAAAAAAAAAAAAAAAAADwX/gazIc4dkxJGbwAAAABJRU5ErkJggg==;" vertex="1" parent="nudH7UYVRRYWOdIdDBR1-1076">
          <mxGeometry x="346.98" y="536.4" width="123.22" height="69" as="geometry" />
        </mxCell>
        <mxCell id="nudH7UYVRRYWOdIdDBR1-1094" value="" style="shape=image;verticalLabelPosition=bottom;labelBackgroundColor=default;verticalAlign=top;aspect=fixed;imageAspect=0;image=data:image/png,iVBORw0KGgoAAAANSUhEUgAAAaEAAAB5CAMAAACnbG4GAAAAwFBMVEX////QAAAvLy//+vrRBQX97+/SDAwsLCwYGBgjIyMzMzP55+ceHh4mJibQ0NCJiYnfb2/g4ODGxsZzc3MTExPq6uo7OzuoqKj4+Pjv7++xsbHVMjJmZmazs7NUVFRhYWGBgYFPT0/xwcGbm5tGRkZsbGzpnZ2Xl5cAAADi4uLKysrV1dV6enqOjo5RUVHAwMDtr6/0zMzqoqLwvr7jgIDts7PUKCj22NjeZmbSGBjcXV3mkJDXPz/aUVHkh4fVLi5rJNwhAAAMlUlEQVR4nO2da2PithKGWXZbyVSGEsA2FDAUaBIuy/bsdi9tz+n//1fHBiSNLNmSbCfRNnq/hciK0WONRjMjp9Pxcl5vX0Yv/bW/H/3w5s2759ebH1/6e38/ygi9hN699Pf+fvRChPwcMpYn5Lo8IdflCbkuT8h1eUKuyxNyXZ6Q6/KEXJcn5Lo8IdflCbkuT8h1eUKuyxNyXZ6Q6/KEXJcn5Lo8IdflCbkuT8h1eUKuy3VCiXELfcvvUwaE/vzhWib6q6bd76yg9LcWCJ17Ua7eoLpZkkY3oUVLQ+KYDAj9RNv+XA3IplM9IXTTw6GqVZIS2jBcNhgGh9UaIQCo86EFQj3UvQj3KxoladClGm8aDIPDaosQBPSHvs92CEFA+F8KqC1CdjOoLUKvYAa1RcgWUDuElq8BUDuEIKD/mABqhRAEFDcbBZfVBqFfQX9GM6gVQunrANQGIWsT1wahzM1+HYBaIFRjBjUnlMxfC6DmhOzXoDYIvZoZ1JxQrRnUmBCcQf9eL+6qhoQgIPMZ1JTQK5pBTQnVBdSM0KsC1IxQbUCNCL0WN/umJoTqA2pC6PV4cVc1INQAUANCENCsrVFwWfUJNQFUn9Cu7gxKauVgk3qXtdljbUKNANUmtKsxg6bnwW65jaLtcnc6TysaJhexHx/j0e2ywUI5qo/nzWq0m893o0Hcr+r4qsNsdbmPrMf5cXM3Mbz9uoSaAapLqMYMOs8JDsJbGjbAwagszpcsUS8TOV9/7KeYsMseHoutJ4tRhDEJwouC7G+kaow3DQfRmND7QGFIMN4O9ibTqSahj6CLGoBqErJfg87bcdgVFI6X6rz6AF8Gj1zIT3fwOhSKQ5nEF3yFjnG3dPN8SMdBoXnWa4DRca/9CvUIQUD6spG2CFl7cdN0LI1LNjIPJ1XjwdWJD/Jf7sNAuOK90OuAEEW3WTO8VZuuU/Ex4egfVrovUYtQY0C1CFnPoEMvUA8MSRWrxo1QeOx0FgWw+We8HSnpNW8YKuZnkuLSC6TpKasOoeaA6hCydhL6WPmk5wrW8rjcCKE0A1RsDs3XsmQ+XK/uSeyTZTnRjOlc9zVqEGoBUA1CEJBRZdxBtvxgzFOpPSW0Pkhk8Rm0W1TMiKxjacQHpKo91i5E9oTaAGRPaGQ7g6ZdPs4o87UyEfD0E6lS8kao29uyCzMvLne/ukLNXkLvrItu/Qodj+/Ebg8cKAqvzTMXEN36QFvtF7Em1NSLq0cIACJmXtyO2RaEo9P5MDz0FyPgAJCi100JUbIoCNar+9MqjfBRsIn3twWLoOX9Yp91vI9T7jqEu8J9UHqIRKvZ/pC3X5yWCF+mONF7PLaEIKCOrk64NUIAUDe4117b6YC1JOxyGzVZsSdaenoH4nIRoHvqmBUctAnOhzvYwd3vYc2mUSA0nzDuaAY5T+9WPRyiQL8jsiT0Ubz60/MQ2gmmfKzfQwAbF4h+24whwoXVTCSER+VBgnSMo1kBW7Kmf1Cc42dMJ+aw2E2yP6r9flF2hD4WL//8HIRG4lqLuvoHb0MvCYsuQUwRFSeRQKgyc5sszvKHQ/YXoWveiW8fE2WHU32syIrQ1z+ky788OSFyGBWdoeCouziJ6GIie78pfdjH4t4FEsJGllTUKFSRPwXcFNSTDaGfFNf/9dSE0FreTowVz7AgaltEP/mqPl2hAtHEAELBSHt7smaEPhRwitNe9V51mWwIKfX3ExMCTjNbjBHSBIbn9HlWnVjZqj1dTgihOikH5laH8OZujl/xcbBQPUIgsv3TUxNiIkf2UbCrvHZKWSqdWTpo3bFgATkhAxdY9Ufp9QEMhM/Y8lR5DqpCtQh9ePMb/6HWpqgGoXEMtue4chCZkSOquXbHTKBgecB+SHtzKrGdLIGE+swx6d2VXlqpOoQ+iB/+91kI5d5Vwrb7iEgZG6DNbbDFmDTVkC5E4lxhhMw2XJKYd0KgXw0iEPhomrQTVIPQpXDxb6sumhO6phsObBJJXjQU3ccHykOwU+YqCL9mhHBNe6Qk1DlxTzTAxxpd2xO6WTVg5wzO3DUlRPNBwM5V7FiYr50OFFrRnkPBZeNzyMZPmAz7d+fFLI43px6dmgKhBH6RcLyuzMSqZE2ILTtf+Gdfn5oQC5ZyO9cdS5t0qil3+gKF2G/FyD8lhCKzkRvOTvPoGpHNFXBHQ7yxOyGXgUi4snO8bQnxaDawc2+/PS0hEM0+lAfWmB4r4/3giVYTqrKfVPtjLy9SUOY3CoQ6sZgPRAGONgaxBCpLQjDd8Bf/2DqEakVIiKDds+EnZVuMQyNCxeC0rOkmwmo4SkKdRTFpnk0k8xXJjpCYDwJ2zjaEakOokLADdq4kktKvzLFpCekCCrOuukyhlFDnsC4mBbOJtCu10qKsCBUSdtDOWYZQLQgVY9BDYOfUq+7+KQlNd+XJ9TJCmaWLJKohWRnZOhtCUkYV2Lnfn4qQvMEHdm6lvNSYkLDimBGabKUw4aX+LeQOiIpQJ4kjiWzQM/EZmp1OAXbuf09ESLE7WXM7pwyhckIBrtKDcsdaSSjZwjqSzFZhEuY1pKPjYMASRGrzlSykojlkktBvRugf0NMvT0RIXmxYKkaVXOiAdSiI93cVEns2IjTiMwgRvLw/D9kNTOldlRDKb/wUYLFS6EGPqOEZvE+8J6tUUbMzeCw/pw6hMoJWIX8TQmBvg5cL8emY6Al18iJlLOZytf5C03Os4KCxTeFPw3OsvGat6EfkYrUBhkUnV5kQWvK4oNS1GaFst7YKgLGrjF5d1JQQtHMWIdSGhIZsO6JMFdGckjouVyIDQo9sgSNyoPrRkFDG8hRyW1e2ZWBqfFof2DmLVFHT0/obNlaq18rRR12ZwCuTASFadKDMx7Foh5ZQxohXOAcrTdvmb7wAds78uH7jd5Kk3M7JqSIeBLWI9xsQoqUIXazo92w8h3KxpRStNS2bE/oM/gu7cQi1MaFHbsuxlCpasMGyWIgMCLH8uSrvxFK3RoQ6KxoG7Gr2rS281+eTVW8tEeJVVYqnkC0JNmbOgBC9p1BVbLTU7IcKmrD5qGnexruxgJ37+GyEoD8nJUXfs5CReerZhtBK/h0PupsRYvvu8izKVW0Qgnau+m21bRKa8EiXFHdg9RsoMo7zGxCimUFVk1111EcWJaRr3sobAH/m/b1991yEoJ2LCiFUntjUVAUBGRCiU1OR5ANnVswI0Vt8jnXojXDu2CyE2spbNLk/J501AdHVkToAPizOOwNCR7Z2FC/eg3yRSGhYUn1JvZln8OVyfQN2ziiE2gqhCeJ2rrDegNNDwVZ+pqeLlIwLq5fNfqjogcxgbkEgdMZ4GytmyRBVeR1QLb0rGNq5f56LEDjIIK03wOogcoTH4qf7eB5mI1p8eA0IsTquzHiCHdFhJ6Q7BEIZVETC0ULcQCUxMvZl2nrfNjgVYRJCbemN6HN+aqf4KB5BKjzE3fkgns3izWq+Jbcjc8V5YBKX4/ndMBzsJ0mSPO7v14V4dZHQ5fAdWa9m/cf8jRqTw2zEs7T6Q3htEfoR2DmDavuWCE24MSvW0BcyOWFwLcjh60UdQjMwM/PcUJ5/ko7LyoSu7fO6oCC4HKrkl2gPCbT3XwW+gk711fYtEQJH7RAp2LlpVHVoux6hzra8T9RVuc9xdVUL0bua7f1nDmDn9CHUtgiB46rSufepnLBuTGhYesA8XA9Da0LB+9ZPSVYN+g+8V20ItTVCwGmT3lOSjFSvJOFDKrY2q1M4l9SRkPWUxn3MCWGT0rz2CAl27s/nIgRfTyFvFRdyic1NiBT3UIa1PvuuYmaicX5c/NZDwdsunXVBYPQSXQNCbG7oIjrgEKWuxNHk/w9dv8eDLsPFSweIfGgh2fTk4kOUrfLbTTGBQEvCdVGIyajYI8LRZb2/xpqQGGibDJD0kqbrE3KsOr7BZUCIxq6/6Gp/v3E7p/MV9IRifCmyJtoDi9MuLchWnhZKFrvu5RUT9E1kBKPlSYH9Mbr20tNWg/ZHXeGFaGl8XU0OD5e7KMY3potRlLv4IbsHgsPlxoyPWb7g8y8X6Rt+++Um7abV4P/gTa7SN5zeWk7KAlxJP16l+av3Lm/zK31ZX1Ldi/An95vdOu/v/e7+zG+x/I7zlwWm7y/3sE5X8b7duu2nkP9fksbyhFyXJ+S6PCHX5Qm5Lk/IdXlCrssTcl2ekOvyhFyXJ+S6PCHX5Qm5Lk/IdXlCrssTcl2ekOvyhFyXJ+S6PCHX5Qm5Lk/Idb0QoXcv/b2/H2WE3j2//Byy0NuX0Ut/bS+vdvR/muIgE2A1w3gAAAAASUVORK5CYII=;" vertex="1" parent="nudH7UYVRRYWOdIdDBR1-1076">
          <mxGeometry x="346.98" y="628.62" width="142.6" height="41.38" as="geometry" />
        </mxCell>
        <mxCell id="nudH7UYVRRYWOdIdDBR1-1098" value="&lt;font style=&quot;font-size: 14px;&quot;&gt;Creación, entrenamiento y exportación del H5&lt;/font&gt;&lt;div&gt;&lt;br&gt;&lt;/div&gt;" style="text;html=1;whiteSpace=wrap;strokeColor=none;fillColor=none;align=center;verticalAlign=middle;rounded=0;" vertex="1" parent="nudH7UYVRRYWOdIdDBR1-1076">
          <mxGeometry x="502.04999999999995" y="573.23" width="169.97" height="73.38" as="geometry" />
        </mxCell>
        <mxCell id="nudH7UYVRRYWOdIdDBR1-1096" value="&lt;font style=&quot;font-size: 14px;&quot;&gt;Procesamiento de videos&amp;nbsp;&lt;/font&gt;" style="text;html=1;whiteSpace=wrap;strokeColor=none;fillColor=none;align=center;verticalAlign=middle;rounded=0;" vertex="1" parent="nudH7UYVRRYWOdIdDBR1-1076">
          <mxGeometry x="454.2" y="270" width="115.8" height="29.62" as="geometry" />
        </mxCell>
        <mxCell id="nudH7UYVRRYWOdIdDBR1-1091" value="&lt;font style=&quot;font-size: 14px;&quot;&gt;Manipulación&lt;/font&gt;&lt;div&gt;&lt;font size=&quot;3&quot;&gt;numérica&lt;/font&gt;&lt;/div&gt;" style="text;html=1;whiteSpace=wrap;strokeColor=none;fillColor=none;align=center;verticalAlign=middle;rounded=0;" vertex="1" parent="nudH7UYVRRYWOdIdDBR1-1076">
          <mxGeometry x="454.2" y="124.81" width="120.8" height="50" as="geometry" />
        </mxCell>
        <mxCell id="n67IAZwKEcJzkVw7j8ZL-17" value="&lt;div&gt;&lt;span style=&quot;font-size: 18px;&quot;&gt;Modelo que reconoce caídas&lt;/span&gt;&lt;/div&gt;" style="text;html=1;whiteSpace=wrap;strokeColor=none;fillColor=none;align=center;verticalAlign=middle;rounded=0;" vertex="1" parent="nudH7UYVRRYWOdIdDBR1-1076">
          <mxGeometry x="901.73" y="163.51" width="140" height="57.98" as="geometry" />
        </mxCell>
        <mxCell id="nudH7UYVRRYWOdIdDBR1-1099" value="" style="image;html=1;image=img/lib/clip_art/computers/Software_128x128.png" vertex="1" parent="nudH7UYVRRYWOdIdDBR1-1076">
          <mxGeometry x="928.91" y="247" width="112.45" height="102.05" as="geometry" />
        </mxCell>
        <mxCell id="nudH7UYVRRYWOdIdDBR1-1101" value="" style="shape=image;verticalLabelPosition=bottom;labelBackgroundColor=default;verticalAlign=top;aspect=fixed;imageAspect=0;image=data:image/png,iVBORw0KGgoAAAANSUhEUgAAAcsAAABuCAMAAAB/esicAAABelBMVEX///8RVXwAT3gASnUASHQATHYAUXn/qnD/3nAARXIMU3sATngASHP8/PwAQnDt7e3n5+f19/grZYhHcI/j/4f/33HG09z2+fvv8/b/rnK5/7e6ytXm7fHa4+mftcR+nLH4o2lHdpSyw89rjqbS3eSLpriu96yVrb6nu8lehJ94l60zaIr11GYbW4DU3uVehJ7dkFuTk5Pd3d3CyMt/tn6orrKDf30AOWuLenCia0WXZ0aUcVvDgVSIald7dG/TileLZkypaTqCbWG5vb+fnaOhtlqFh4Crd1WVplyAj1LP6Hd1fF+2z2V8f3TZ9X2GWz94g1e+12xPUVm3n0uCkkmOgFZ4cmDXulp5cFKvmUzgwVmZiFCTlZuovluVgj+eclZygEJydHVedKtbg+A0NTASEhMrOlw2V58rRHtAQEDDwbyYlIlja2M6dml1mHRbOiNYqpdlWzdZtqBn5chchnyLyomDj4xz/t53i3eHwIZ3nHZyn3GOWzdiWlZjDKILAAAY2klEQVR4nO1di3/bxn0niYcMQCAI0gYh8yUQpPkSSYmK5MZxXEdS3KZpnXVZXo2WLU27rUvndV6zZMv6v+8OOBx+d7gDSVnyohTfzycfOXj+cL/H/V53LJUKFChQoECBAgUKFChQoECBAgUKFChQoECBAgUKFChwi+B7rfGo2/far+d1Ha/fHY1bg+aW1/s3StWPAm6gqoqmKYqq1l8DN1uWoioKfp0x3OR6z4yu1xB54U3TduvRVcsJ1NHNv65sJm8zLUbT/HEYNGaNyYgVqFmFXl99TYbj9mJoUV5q45t/nUHfZs6hle2rSkU3Tb2iVRkq5pT3ZbWwsmswpYJfVlo3/jYf8HJmp8c71XLKM6B/zTk4fuPU3XZMUl6qgxt/Wyflpd4Ax4FElRWgmG095b1249TddsyAEevc+NsG6eysT9LDNjClZQs4Re10BjDnN07dbQcYRevmnYtWyssK8EvdVF3RiV56opNebzayjyvAIB2ssilxLvyF1x1OwzDsDfuDV9PdviJk2QJQweilB3g/yT7uNsPveF7L8xbX6NGlTgfrWBI0W735PAhH/ZbXavXHvcnMnHTz9DcisSUjsausYxk7X7YA76dX+8AfJvyJZaDAXlWNysRef/lmzwSOZT1z1guVyTjhnEPu8IaV2UgiTe5Ej0jcNayJKLEjiYAGkJdw2h5rQt7ffgx36YcZ1xU+dGCQwJ6yx5VGHzDESf+56FmhUDlH6eOMvuC8JAICEsWK1Cjlpdbd/ut+uAhB+OBd0zOhYxkwZ/rWcsEccOD/NEfaRMDN3ppodZme34WfsEx5VoUyAPRYeQ2ZjNeHSRpsXVsoCGYqfQmOD+qz2NT5J6dP4kMOe2dz+DCb8wvXRKuB5BP8WVWpVPRKRTEY9Xu9mYzXCBAKKtcVCkqci2klGjn7/CdvHu49io85/L3+pMyTAXklIrGRfoLBqnVn3MOecp+dZW9CfH8QmMvy0q8A6FhSNWvXl5FvdfLW4c7ezs7jVXQ0w0skCVXO8NUBiQITbNcBLzcpesFMxo8qtQ5yk5Xr8mNFjuUgnrLO3z5EjETYP3FqCCv0n+OwL27P2UoUSN+UBeLmgk+obkLe681kvD74YKDM63roNOWlSpyOVmTNnCc/JZzc3z+NjmO9tG3EVhc+YMKE8EpKoyhaBenVcmUT8sDzRLJxa9GupAYsGwpeESGYkGLHsl/FE93x033CyZ2dvbciZaQ21qlBcxuCUKaZWmxh+rQNzm/0CWsyGdeO6zF3zabv51PbAW5KkHvlFgDOhRE5F62Yle/sJZxEvHwn4h1goA246U5TYtogfcpFq/EngDLJJp/gy6Lfpt98xWG33bZvw2e0x+GsXq/Plt2s0xafmzXC7hoHzF70e5PZHE0l83oj6I1lLioIBStL4RV202+3XUhgszUMMIWNcCyebhqAl+3oJYsSmhPtM8pJhMNzfCnj+7g18hp08QTPmdH/LqTRagxvV/oJaGzbbd9lD4pKZE1vGqDBms+D3tWD7F69UjWqajlIBrsVGErFxKgo1Rmb5ugn53QUMtVFKZAY7fFEM6KSOpY9cvmQG/cxZkcd+AHmvJ4gTZXZPatqIKhBcvsgVHctPaZCMxoCKqBjWXVxwQKPD+KP/3Qv4SRi6hG+NuHlRS3648TKink4Qx6wV8bUiEmkHAKpdasH6egHCqa9Wq0PoShmS2SL0FLRaOEX6JZavmIuaFwlhGqxRA1mKpjJy6ZaTxWqNWfP7c7EWtEKFAVUYZPLLXUJr3f1iB/QRzQpqjSE7iZCrMS+ZSdQK/AeXZ1lVL4JHqmhUQziuARxaPVoj/Jy7yw6GN+yevfdZxE3XYewsuRXF0jUVRmJBg1cupL0auuhTm41mZYujyuR+ROVGS5TmV8p6qTee1x4mzLcisZKITrvLw2TO1fJRNX4C2aZZ9AvtUCWwzMkV2FoNCpMCYxEvpd9uK7xVsnVKKXYiI0Sw+i47vljysy9nznIBtZi6330/O7zn1/if9k0QvGsJltPlpAoS6/KUuhciWxcyQi+qchtnhw0nWRNcTSt8E/FMhUxzMu+EY2UzrvUzUmG4xAgLQmkOW+gKIH4UHumCJ5uGhwzgXOB3Nj2w4RIG02Hl4fUxj4+dxxn5aB4xPHfu4vwi/exajo1+m4k3y2ZyKXskaVXR5IGMvDl6KOWalmA6hWYSRtjEGleRahQ0fw8FrPI4kupkzwOIag0sz0UyAb8Rp5ANEyeLtZ4PhuT1u1xqTdIdMV2sPU8pWHJ/kUpsbEnv8S8vPvLk8jAJnNo01owCTwJiTBdC9OrIMpl0q6A95VRIBkwY3szGyQsUvotVaJR6rg0lGkbpxKw80wInTrhYR4vU/mmuU7F60tVnotmUsfSWCD3JTkcKZ1dSp3Zn1Be/uru3efIyp7Gc6WbMHM84yrKkERqTgG3DViEWUoqQLClS6w+zEBtDDod6HKNMus9yfdknPQxb6Qzo0+ZH8q+AiNNOddTAkX2NXkqU26gqXXsJs6TFxJH1Xbf3olVc++DhJe1n2OtfP5x4vY4iY9a96SKuUtfCfxcpjoAblQkPM4bgq2rYam65wytacnPsYUDYD5QHKIqlqUpGvNk2tyUp5fAaKYH83jPxtzU6UCC4yVnEv44peM3if+D0+sRLy9+gXn53qqUuD3JlNkKmM4s5sMFJLLGXlYBklltDvq2vMzKOgorFUuiAaalaRX2nMIEQ6Rqa+qKEfTGi0673Rl0G9B9MOskdBxXdQyG+gQa1fam4LuRkOwqHBlM7ShxLnBGrUHUx6ZJgZqdOLM4WxAd/hvMynePS6skDKRXmwtG7wCJaQMd/DzoC8q60xuiMd/d5eO43S1Lmz5vWE1tHo6707om4qZSn4674Zy5h20ki/TStJSgD4nvQyoVcsYOGxiQV40ES3p3m+MZIrAc9j2vv2SlEPYy0j4AZVRqJ7MljewdNBtexM7s3mnMy2Ps+fz6AmkldWETBR2j5w7TDzYpiWn/QROk+GB6FXanK4C6Zp0fW6XcQ5/UCi3WgonTYFJ0uPlNV0cxNeOsI6ST4MkewpvYbDMOnSy1x4edcBrlGkFAnlmY6+SETVeHhCsLJoYvW+CmxHwjyzYikYP7t8fkHzgXQJzZvbdwzcspPcOT5WnEv4SZiWL6KnSLhalzmK6F52H5BFLn8uNqjMgntWeMaurb5d0HLC+tNJOT8WKUgD56CAeYWRDhG6o15NKPGPA5jOlor8lLL6QEIpWDzDSA/JAJCQdTc3L48uDDjyNuRsxySGb2TQfrZe3vEC/fj1WRurAJU4MWMLLCzmRZ5zLsToc89lmbVwF5K5tRWT5sXgPW4VagvZxxExJs5IS2gF2o1G4JOMl2uDBR8GJN2y/IWyNoAcxrjpn+UyAihHQUMicmtvnRvXv3MDcJq1znKQ5L0ISJDpwgz+e9GrGqCS8TxeyHIBTWRSTKGsU6kuM+k32wgqb4WVv3dbWg2CuMge4zGqEySWOQtdqsywGmOhgKYY1BtKyUoULhhlK2XoMcR9Z8TCTw+MN7d+5gbp6QS9xz7MzuX2DevY/8nvNkgrQ5xWzPgScrJJFPryYYSMSUbWfnNH0J69rbrbOFiTSNHak2IyJsezUkZ6O1N/30BlbaWuL2/ZRAwEuLN8JQpOCHx06HqbmlJdHWowPES8TNO598ek4iSOzM7p0hXq7eRX6PTdtEEuOaHEC+mp/49cIuc8kKBPhpFrwPmpoKb7ShodyoGJoCxoPcnU0g9byEwGl9M16m38XOl2Ba1kQLmAGB5oz3BaDnBswfaTvBk5dGjManESvv3Du4d++TT09szCj36HBn7xGaH4+ePz917YzX45LJIuyn842wy3ykiT9BmlqHfm8mnw1C+S37LHqyeazEdotxyUFmMeiWNpbpBoYDIawN5BFY8lMq4MJHEscgAWyaMftrn8W8jPh57zcfRcVK98n+3uNjp/Te3fcjHeS9HvJ3OEr7FIRd5j1Zah182iblkxgwSNuugSTM6bqFxXle92AYvMkLQcmA1eN1LeH5Xe1A3EBEQ9QVDVSHHDz+JDaxBwk3P79AWuecoQnTPf/1e6S7MukpII8hvOwvQcC6xQoEWDxg7pPxOPPB5fJWvJzkDBXs4OVMAbC/plKSot0ZeHh9VMsDUzr7LED6rsgFz3TuMADZMLNOXVwym+PCCjG8FweQl9jUHnx+6ZZqH+w/qf3q74k/lIQjSbKP8BLLQzITCBdJyFYgTCXlk1xTAyeVcqaimIsc3YPpCb7rExq3ckmAdms4KVcN1VB3VQUBjDnb0AxbuBeCB8lbwjHAMAJeEv8BKUmfzPNHd2Ibe0BMLZo27x18ceQf/+wfVv94aZfsFe79IcyjPI0f2KmnU9zaFQhwDGXr7EFRQSC+0J/bjpd1ue7BDl6Luw02QmazNe3hzFItWQJ5zgSgfJcVD2DMleyXAa0Gmz4QRwuHJMSvfMbwEqlnFKEcfHZ08cGXX5bOL3/71W/TnI/N8jIKShK9FPl5M4m4ATFkfIogV3yh4y5bBiyEDe6zuCDfTxPsma5Q4EBmHOfOxLBMUTaXPKsOw304EFVRPyGUiGwWAvAS+D5EtJEyjIa2i/EsNq4HxMbSv3c++93vv/ynf/7qq6/+xXHdFboS/XFq0R+35kT3Yl4mkYLIz4P+PrMCAS6ukJRPtKxsQF5uNV/K0sIYILuWSV0tJOExemJo5FfnmI02mIEQ7Y5iw0Wx2S8DNhbEJGTKoby0S88o88gfpJS/+eSzzz/+3R9+/+XqXzFc215FFyMm2jb6Y9cc9G/bjnhJQkJVIG6wkmPC8zBVx5RP0ssFKxCAjd1uXwo/J7PdycmuwVQH41Z35jmlTn7MS+wKBNHEK20LjgHMFZAp0pshtLEYdz758ItPvz45rh394eLkj3854hxXkY2Nv9cUiZsrSa1Lu9Mh77Pi2YPThuB1UshShhgwu8anO/qSCH+QU/pP3sMkCttACoVlkvw2YzDdg85U4lwgXia+z+WdiIlYGb/46NnlOc6yuyf/9sfj0tcv3H8/I1rD+z6EhHS+FK9AkNgvmRj6sIqXfRzwjITZXymgfvHVMllqCkOSXvV1hpW6phiqYmmWBcwuk86CiUJxS3huVzvUakAH0VbkxyYxycnBnQNsUk9Pjl2sCk6pdvSnP52gPy++Xx2/8zQKMCUxyWJGx0IobgNQ6YGDL9vASVY+IQDOoDCpKQXMhvKJ3LEkNYUBuwhBiBTAqVIzglFr0em0ETzxRhts/lmUSc4jkK0qgNCPOBeI6iRXsPqPry+PV02aBlgdvfzPP6/QROq88c2qdHL4Jg4xJXkfrNsk1bFW3CSpdZbHYCVRtoRmgzlqu5388nRvJCttlJi0FQiRYCupro/AXAC+i011rEutS9v7eRJhSJU8cFqyk3Iuk2Nd/dfLb18elXCT8/k3Dy5KpdP9w1NbmsPrUsO3rpLD2BzJBk7S8knm7JbbN3RzMtt52bVQGB4DT0RnlycAlqmy1Lowb93NMQ5sExTodCLDgbWoQsiA/Dl6+e23fz6OXZuj+w/wqpKz/f2zFbnE5XLruNRCDJ+QxA2709OxyDVFsJagCEvBMuRtzZm34QIMdynT2sAJ54JV8F2ssHVzc5PrUuugGRcMS5McNud2VOTAoLlW9Pf45cujZKHBd/cffIf+1J7u7D8iTSR8zavql9w5tdpZyNKrMjGE4pt9HvDm9O22V8tLrcPuTj6khW+ktk3m3LLfxcrFut1RAIFZIYYmFnCaOpZGJ2q9wkiULYo3jo7xQoOoNPL9/Qcv8PHjd/b3Hl/QKzBALXph5IibrGVC4lNAqrPcgj0727k+ual1kJ6weF6mLwQpOahDXAwMvotN+0p7R7IEllVuJGGeAUbdC7oybFxqJ6aX0za80AAx7fib+w/ecDCrLw739w6fNNMLE+5jaUimIqEzAsoGsu502QqEssazC84aW+52BBzgXT41CPil8+kJmI2hqY6UjkwOCahXlckxgsSNUOiZlktuWy7YDgg9TBoY41B2RswA2zYQ/Z9dcy4e3H/wzXm0uv0ULzB5+9h24XWYAi+VKKGNhfYL2pwNyifok1jpYBYi8UnwNcjbnAQmcDjWNNOJCpgJsHMKHzc1ZCUXmLgR9V+wDWSMpG6yc2CzNEokH7YNUMZ+9wDhIv6ms739nb03L8FlGG0V71dAqNBFfuwG3emqdAWCyagsbNfYdqc8O6ek3MxJrYsbIeHyYUb57AbMFTBPmsCEVpbAJrv60QQrLQdM/h66fKljiXzmdvI+yj/HTXeAeXH//oP78X4ipdojxMz9x6fs5d0pdAREqgJI1CRlEkNSJonOpVOLP4Ontty4CpYh+VRj3uYYC2E2BgoiI2112MPCygUUUo0Iop3+pghTJ42+vJuMMdOLzcSeqXOBiQuSsaIt6SvK99V/Y15+R/7v+DHWzP0zfCH1gPQOnLStLImgXcbUYNc6LP/ClDvXq2qqPUIPuyJRz6a5ciHrrMbIK2uJU7XAT4EcGzOVTC7V0WMyRUF/4PWn8yp9XzuzsEWpD72BN6wziV+T8bXAM5FCeIkgunRtkJMw6uQB5uX/JLy9/Gm0AOzpccr4fsA2JCqYxNa0XqWf4a/vTmdbL0BZmHx2OUQP7TbYlQKGqDKfg06O7uWlJ1rCCJ+piCc+hxewq6S4rCq7OFpXVBXvbUEloc3eHBFqqarKsVhhphZYt2/Fy+4iJGv20u1CTu9jXr5B87Cn+5iZe48v6a4leOMAxlnBJKq4PktJlMxFsvKvLSg/4MVO7Gq4srXtb9DklknScxbvlYBUB3A6BtAJ05XZdDQK5/z2AtyzJAtVk9ML8WkOXGWT2znQoxkhspYWI1JN+0XEy2+iJIFbc5H/sxMx8/AJUdVxwCqegES4AgGm3mWbAoFN2HNqSuZ27SGljcskmfSEuBGSd1QszdIz5HLemXCgUqGXrUlmUWXTUnwPE7fGPfl3zXbeiHj54IRuuoX8H8zM/f23o4xeE/sfTfFLk7fJ7JdMT1K/cZ7TfVHdeivSDVPrmYxMT5xi6EpHPp3V+RBNtEY4/Xa4AoFfvJeSwAWmsO0ES7dPf2bJXsHrnPMX37+B8P0zJ9miCfs/8QZr/4uVNYwGJRSU11NVk+2dLltckfJ+vhAujIw+afudu4VbcxLIUlDR10lStXVJv5bVoL2ivFwMBBscpN/ehcLWELcsqJwUQvMQB7OjxFFx6CquGLbj4DV70Ms8Ooz3MjhDVrYVV1k6gp1EUhXcoDud0RNqapCHIt0KYUsfFgPyi8+6yLo7MSacFUvQFu+koE7SXudsySW7DU1KywgSaDcEOyqYVV6EYYGaOJZBfA3eRa3GXZ3ZP/YJtrE7T5FC+w/Jt/WyJL7C5j6Ul3hfC+FuGsZVfhshrwqxzCmTgBmJTcl16tnhrlhd8KZsw3KQGalUPjgCl5kFvpVyZmKBgTFxIJuRBMX6V+MKSRwvHedsb2cPNxrYdcqaSZZE+hlXXoEQzSSLbH9U5Wo/JjdNxMKsPOTHeKLEU7NpVqq8TzXTknMW3wUdGixxFSPaOC2MPXFTr2ayGXZY5TZFS10IfleVLrt/WsUIs+5emz5OV5KJt4PcI1r2YlUzs7dh59He23gzrgBu7l1lvDhTTb0ZuhEYGkOYYhwa9DjjyIxUMnTxL1/6S4OxZRUj2GR9Thb+dGbhrfeU+SQr3uFMQ6cMpb7MqFJnWdeqCFo9zLCm09MNDe9qGG1oaJLl7oPG3FINa94QJdC9JQqvKnhDh4qlGPCSgDfm7aWSbLyoqUoojKdbk7mCCDcqjR7l9ADKKrNRLPi3G584/wveDnHCzFmDpQJInAHnwkXzOB5DlRvDZq+hk+OMyfMj6qraPBFDL6hGu0CaeFtDdfIKPwXRjPp5xbuWRuckO5rG58SnFuMwmM3rQdgdpDfb6I6mrHfXbY3CAGEybDGKJtg5x++Hs/l8Xp+MPGnZPW5wZl7mwcAFBSTpVhSCYwgTPt5OSFwO+5l1dpIxlBzHI8EMa7vfQ+OFBoz7+h8XQFawAk3PFXbM9diQDW+Cl+7r7NZYb9ZuFD/9e92AAcurimxH4TxeO907n9+sV9+upF9gPZrwt3tfedNwN5gJ5EHwmxbja/stqgIU6zY63xbdh1nXK8PLTkPE8gKvCLjR+bX85mcnKPN+IsdLv3elbXgLrIMnaf1+BbT0GWtA2d9mG1anWzWlFtgU+SsQrghvVh4BnzjlZdNbVnuv4+dC/ioBc5rX6FkOemZ96LE7TbTHk3LQL3TyxnBzv/k5GAZqfTkdjVv9fncYNsz5NJMCKHCdyN9x41XR9sbD3nQ67Y1ag8K03jTylkgUuF2QbT5f4PZh3e/BFrg94Dt3Ctxe4F3fo5/8MjX9un6ytsD/DzrhXLcqVkWfZ3ZwL3D74OOtKwr7WqBAgQIFChQoUKBAgQIFChQoUOCvAv8HZj8oxZDy1JkAAAAASUVORK5CYII=;" vertex="1" parent="nudH7UYVRRYWOdIdDBR1-1076">
          <mxGeometry x="911.7061904761905" y="526" width="120.0450396825397" height="28.76984126984127" as="geometry" />
        </mxCell>
        <mxCell id="nudH7UYVRRYWOdIdDBR1-1102" value="" style="shape=image;verticalLabelPosition=bottom;labelBackgroundColor=default;verticalAlign=top;aspect=fixed;imageAspect=0;image=data:image/png,iVBORw0KGgoAAAANSUhEUgAAAaQAAAB4CAMAAACKGXbnAAAAw1BMVEX///9ESHZ9sLxcfaI3PG9BRXQ6PnA/Q3M9QXLCxNEyN2w2Om67vMp0d5ir2NDd3uV6fJwtMmpITHlaXYRTd575+fqPkauDhaKXmbHn5+74+Prx+Pfq9fP09Pd0q7ji8e643tfS092+y9qrrL8cI2ImLGfT6ubq6u+esMVsiqy1w9N3k7FrbpLJyta1tsbB4txRVX+HtsFfYomUlq3f6+6YwMmio7iszNTF2+CHnbnW5umi1cu81tyXv8kYIGCjs8lBa5YmopXGAAAV7klEQVR4nO1dCXuaStuGhE1QEQ0gIlGCStMiUrRkaXP6/f9f9c0zA8oyoGlrjW+5r7MkLMMw9zz7DGGYFi1atGjRokWLFi1atGjxW1DXXmKYgyAYmNskdP1L96dFEVbXGC4Wy8VCZkdBHEka/LKMk/Xk0j1rQeCOJcTOIOm6zuGgtQ7HMWIqDluJujjcLa9pg1ClntTdJF7KLU+XxTrQFLOb12k6/u/U1jdzG/9oecFS2FoX6FwLQCfWIs8pHNrMmdl8OuvPV/3+KjtoGbJk0mWtxXmh9rQ4BCGabqYMY0/xwdmM2Xxfrfrz6XyOj0wxVf6WFRKnvq0WZ4EzVoag5+wVs+lvGBsEZ4NpsVe6vZraSN3ZG4aZ92f4en8rR52L9vjfw3ooG1gykNzM5jNm1kdMrabpWUQbUnebWd9mVht7Smhyg2Wv9SD+IpJllNoYYAiwybQbuAvz1CbpzHTKTPv9lDxP5t1L9PafhBMsTD33+4q4CDPQbt83yEatNki24CDSgsiL6MPvNmJPHS69i/T434M1XIbkp6kNY585chuk3WbILvX7fULhZoNIQsdWc8QVUocIg4V5oV7/W1BFKVN13/vAQqrZ9kCU2HNEif39O+i+1QYpPHQV0XnJsvf3u/zPwRUiMP/zOWJhDuM/A3U335CzOtAys8EWIUGbTrFLMZ8idYeuxuFtqAVtQu/McLkAu2iIGGyKVuCCr0DxITpW08zjJkByNrPB7wMHbwqqD2HNtSydFyobk5jUngIDYJawMgPxQSEsOAmMjY0V/DuFX2fI4ev3kYyBdIH74Cqtxjsn/CHWdboOQSry2WzEygw53CBGc302myFfwe6jfzag5sAekQTebIZumMJVQGxHa72H82ESsThTupnjuAgiWCQr9kwHzbZh9Dl24RAZmxWwhgMmdA6UHZE7CHHRFeFye9H3+J/GQCN+3WaD093g1oE3gEIie6rbM/ARDhfbOjADmhBkCgnTbD6fgTyhO5PFh0wR6Q7g0r34PYT/hYXf7Q2JYtHIz7HWW5HsHWOj2HVl2ysUIa1W2PtDhK42xFWHcIoJ5I+YIeouNFlbXnW+Xl0O9j+vkPKa9udZ6ltHygyLEejAGQMS1p9DvITVIIBkiuzphlmBJ+7I8SVe4Qg6HMuy0lWTFLE4YsVRKTBCDMwKKTDbtqcgOyi8taffwUlAcrWZ979PsdYDzOYrcO0234knwawXyaXeox7XT1KyxNnR2fc5Q/Kq09QXABcPh0lIRNJUqo41HpKj3StgZ+9bsYEtgPEB1crVk2Qpqd+8mqa1Bxz0AGapewApvA2JWBn79cfT15ube4Kbm7en5x2WqQ1SkpAqd8SPFy1dPUkDPjP1Nna705orTpxOkXzMNrgkMQeSdj++3gAzBQBTz6AVUycwXH44D+/aSXK1kMFOASEJSnqIJBukCAmIDr72jBRmp8DQDR33N2+v4N/N4cpg9NHSQ9dOUm+kA0lTyPasVpAKYkB1IW8OBz7ztDxhP3+rZSjl6evTjlguV+te8o0ouHKSsCCBQ0AWAs02uCBLDNBsvmFIJWL39LWZoZSntx/YcAWx3vDIC6CjXDVJg8hBsWua2CFFvs1cZ/BYz/sk9f367RSGUrX3hG5dfzSrdN2SpCrJ3vme2ZuNjvjawG9QJFrhBN3zSUJ0oOn+aarHHyyivW6SEsji6CvsNuCSEQ527PlqRWoT9o8jlogqTYwnf6wBuW6SWEgI2VA+mq4OWdQN1MlRBLv7VvG3T2Lp2Zc/VtrhqknCfhh43tO9RQKbtMJ5ude3X2EI8MYM2Mu+WAlXTZIpQP4e6TmoIMH6oDnhjHm3KSpi2tE+1EK8qyaJZIRgkclqAwnTDQRFqxVyud9vinK4/zHhPlT175pJUg9Rp83oeLUW+lF/PRa3HgXSd9EF36uCayYpXPhIbkhMtGKwj6fvfvyOnstgJ9pHKoReM0mDITNL3QVSHbIRQ3+Aopv7nbtcX/bdCrjmjINgpNERAMnQ2x9hCEh6YrSP5IRfsSTp/3lp7Uh//fGtWoP4DXxj4sHR5/89XDFJKk6x2a9Pb/d/kiDAV8YcXvr1crhikjoLa/f1vp6g+3359f0k2cni0q+XwxWT5P3HPNEZAGa+PT3jdQyvz09vN++matpdUDam6+twEIyiwEy6R1Z++d3EDKJRYHpHv+uhqx3P6MVRBBfTmy2TpHbHgzga9cxkfdr2eQc9At0RmOOajyZUoYbohig2PWrZxuoaAfR43DkyEFuZeaIRdPP0PN2p7sPnTy9fXl5+fn5wLXv34115PHDvKjkH1RQ5QeQRJIETYq+2e5Y3QhdI+EqOk3oNjqLTDVBjnATNiuhiIaBdXCDJSoaodVGEG9APw/ExnnwvyB4BN7BGTX/cKI7jEWktjAT8CF4SSSyyhpNROiadGLUHryei9qLGEqnJMt8qo/v1x853f365vQPc3qb/f3z5rDqvp+ch7l/Vsg/um5zE5iAKLN0BdLa8wBeuVIKaJJNvsJzIFiByo+qg50jyDbHYOi9IRhNN/pbnijdI3IhaL3NlNOwKPMUJ9rdky3LWCqJMxhVWNy70gBeikNYcwWDEvBWH9uZpZz283GJ2Sri7e/yk7p5PrP/dv1qlBcduJLAl8NS9Mt6wciErSiYtNkaX8pVrWZGvzPQDSSFbbR0d2taF3pMxpTtogsUUaVJlaEuF3amH6SiM0/eHZgTYtDqWSvOK5eX6JFovYL7mR/bb8+4BiVCVoBxP7utJGYn7Z2dRkOI1i4cTybcsSLKQdlMIKoNiynw6vxRZ5GSkFfCvXFyZ7Wovna48uk6WREVOKeOlsuBlJOmGzGd3KKgrSnYHF9NNjR9zh+4I6BGZNhCV6ibhjCRVTB8CkNNhUKELQsLogZKOA7QmppNMqY0qg96BJBAi91MDQxlPXz7vTqhh3D9PFnkZtoaYFiEaeK5luWEvnU3KuNglpCcIe3yQrFVLdbtGTC6VylrMish4iVw0CF3VQhePA8K+OCwJRppx0HsKoWQ46KI7VHWdxKm6FIc0Q6NG6VkuRt3B/Rlk0isbZY/AwiRZDr4JPSTomWYvSrttpSQFAjA+7KFxUN3QHKWtCXV2N9hLEliihxealqPwdPtJfa3YMook5Unq4QEVtntfQe0RLaIVZrAT4KMibxwO626PIywVR97HYyEiTyF33CUkc0aJJDgqqgaexNwo9+Eq3R2QYeK5qt1TyfzghYF7IMTyUsWtlDdj+UCSZG3hNDdK/aKscw4clRIPdUFkx/sOOOGQPD6ucWIHcWqTEEU/jwpRXpxe3CNOxP2rn7dJLuZIKdhHAyvpYWFoDDLEQUn3hHgchdKgqOj1hLJLoZMmhOJhTBKLT4lDrzQc65FElGTZLjkRHj+pbH+cLdHB5fKzo0EzHRFoTcpiNoHX5QPcXuH1VGIIlJq1O2YE3t39t53/6TQhyvH0+GA3lQVL3h2eXFJpehscr5iFAfMUmhgwhA90ouQErRWOosoHMPulIqGEJDghxBTHf0BOl1fPEPHnBtVAZ52yVBxYHUhiYxHxTbFwWPx44Kg0SVT8GLFingkMifl2/2RbJ+q5Ek23nyevtTSV4qQRj9VN8fGTSCxOUQubUaqng30jlisNV0iLMHw8n4u6kZAEHNEzimOFYr09GR+sThkmm/58yfZphAdepEWAqZPIjypnEnKKHgckS+bVdh9/gSFC090nf1fnku86uc0VOtEblTctTSlToii1FB62uyd9dgU3Ixf0XUaSVDNdmQEeJyU/uA6WXqlm94GLCRGKfo9GnsJRPcWUJJnCBZkidNchXPhWrSm6O6CBphe1ptJue//lbC2eQscyrip2imoquhMQRl480gTGGt6ZKwhZShIf1aWYHCzrQl5qxtiIDOvSIlg188XprxBppbvThKQSrQRkdtLOoNmwdNW78rCneHnY46VRmh4/+xTj9JUxlMODMEmseCT9MsBdrXNFQ65qBOjATlZxpFKShPrVMWus27hDF32s0JT6XEBUoZXhmmZCapNoUXNHqJdZfxH6xTF/+ZTBNYIUA7dZH949/lQrvt4b+Pd7TLDmEBqSHwhOk/kEg0XxPejQKlemjkPDxik9FovUhlhShvWL2rscZiQ/6EKDIKUnqeLi46ZqXn2ZMI+FAbe8DCiOEQmiIySBD/HlYVfcdfHEiPlRwsqEb/7e2lqoaKk8JoFYrwyLgIbEgmkjJFUSEXlgSc3RiJ3ERiPIV4QT81BXEREaZBl0CF+zNBvN9qIuU5cCgdYdiJk3cpSkWxLh5niCMCk/3MR/4fmwYXXKFno6rFeJWHFrp+xtB7ktkaQ0jAKBQwxK1r6PtRnNyu9hVCyJUPUrSycj+klscKtuH4a31D8XGMDZJ6yc30lSmtjbPT+RjWZ2qOXfzydhNatEW7fOdg9xR+uLR9uq07bHxPHddacbhl6CwNIl6YiuDLANyoyeSxRk0w240cLQCk06VWiSlgaSkOdg/SmSME+3Lw/O7vXp6xvEYHl0lbQ1SY6MUKVo+glHXkKvAZFGjuI5WN4gZmVZUTiOw2qghiSleVEtbn8vGNjllxq/wuNXQiWh6R7MYM3Cj55YT5KuJZOCUaKRFDB+BvUEnpBAPfi6HpX6mmQtQzlGZgdeecR84hpptSDhbNn58McjWchyyTnQbFKzd9ktSBuZEs1xGVEPuVZpeZWTTpoNJDFBzLzk5YRGUq+zkAkW7okC9X+uuih7AKGWq6JAqYArflFc5dgTUHKdfFMrV5R4nqeTxEfN9gzbrf1t2OBUpkQRmCQ+9xaNSrWRJKmBpO5CRZHS4x4WlaRs+JTTSLq9fUQGpGIh/Z5WqMyykpav5LmU2toxkrx9i7wkKDISN4UfDoc1JNVZ9KwD8O57i0Kcu+awLMYpiZxKOCpJNQFrM0mOsGUQNZ0ME+1PkHT3U49oylc1xKJqknLTkJDEK83Q8m9ppoZOVJR463VUP/U6KN7dCZLkKnmSQAFRLWAOo79DEtOL9J+P3SWHoQh/RpLu/LpFxrrrmdG+2gpFnD1LFgno1p1m5JQLybexEjfoFH3CGpIa3HtAt+AqbE9Vd2yuR2ciqbNcO1+6e3PwR0i6e2HMcmk0h4nqmUM5a30fmDik3tI4KgUkxNOQzYqA0EmqZOFL8KreXV3ygEDHz88n985Ekh71mM9/miTVkms6k8FZmxIxJ9JeL5Jg7+TPdJCFBNSqt0S1SXVp5gxjHJtm/hyOGeo8ZgKLJIRz4cSZSEK2152EJ5P0eJyi29svjHEsl8rAIjzC0n4LdFRWHs3APjJPvV6rkqQ0DR8BdgPkjEgSzApNN3Rx5JMPT89FkoNEyTuRJNl3M6hf6gXJ9cWT8qBeMR+Z7Nc8nYSoNmfrUEgiyYGmT4Dg3PlBeZHaReMmejxChdrwuUhCUaa7p+YYSaogEydr6dXXL14YQzlNHrAs7f0pvA6iqacFOFLZIOyxVugksVKTvvNKGYGmGg/GpJpOPRtJzjAmSxBOIWmYnQ5rSbrzVfkkQUqd3sMyGVLPOHHvmVpPaVKXBW/KsE6wZOZSDB2y3qLeAfKEinSejSQmXIRpSfFPkHT3k4mpJX4KfEzSPjFsENfhtHvdikHYAw83jaSGQggpH7HSoedkqVCDf0dWqRRG/XwkMYEwWcvvJqmuuM50l9TogjIlcXVA3EsSqYXW5suCwqodV6iTJPIuVJJ4qW76WGyFknTpUp3mNimlhzOSpGoD8sjTSRLCh88ZCjJ1ZzkcLdZRY8qHu0gi5mAGSORTU40YK8IoN8QW8Q2rQ0hKrHSSWJ6nqy8H31Q8S1yHumRSupSoOKPOSBKToLlPXu1kSeqMeynG+YrU3Wcm0ChzzxNFyiogbJtzL5Wuz6UWUGFZiMgezuhkSWz1pQ0y3Yohzv4VxIgWHPgBbk0uqoAuHgwpoEkfiVrEEoPnJAkNrEViw9NJyqrrQu/hS4bHuxcmWVSVnY83glQ6iOOMguC46VLSShMOWZQs5N6jR1aIl/0MQyCLICUKSXgKsNV8nEqWsFbW5Bnp8ubKrNPHxBHhS2fOSpIjjpgOJNTeQVKafhNNNcygftFd2l+rUBV8MdcrzLsuNgNioWvEDvCCWZzva7I2X8x73MT7Kq2bUAcc8ssNsVwgJa+Q8KTx4tDqCU8UZFRWyDoRMJFNinkQl6xYZ+WyH3JWkpj1coAXXL+fJMkINbIsgtNcR2WpeZ00pSFF+819zjpdJy8XRcFIl64Nx/uVk866R0gWo/zopraH58d+Ori6lbASZH/gccUsIMk4WMSQSOz28HfC/TAmnRMp+Vcn3Wck5P42teMa6Y6Q6pfIzksS4y0NJlF+jaQ0yEJv6Ud1a2VT74rjB1sv9MZmlGZYlfKaYrLgF7YDxcYYLh1kl0pRUQLcNJcuSIGZeGFiBByupiZ4ThRjomx/kofp5iV5ZIyT0EuMnpRufZGq+58YcCiEtONCz4CHQM+l9FDVDT0zSch5GCPj/BskIXs/GdUmmpOsgIq3qe6LSlx11UaYbWTkJSF3KS9UDLjHHdrEW2xxiwYpOhS9sv1OvzDdvpY2nu2547kBPbOrm8WHCFmVRapuJzw/SYyxTBiPXj4/hSRRVCexXJ8uWFO2QYrUT3m5o+IWVQxBpIRPHV4qXcbjNffrSvXosB3TCiitc2x9yjCkbfmUOOpf1j07SYy5MBlr8YskiaLvD7WmQqaTyEp+r6goaOVtSBk6kVwYGFHRDGq04pjLPPWiPMJuhCpLklSIQjsaOpJmFFHrUq51XlS48o6lAvRQLHWH03r0nsNza3Ni+GTN3lhTQR0+KdeSLHoovpR+hSQlZlSucYEooNvjZAXpJaTxZC32GsoZbjLSZEUglwqD+myONRZkjoPLFFkw0w44BkLBh3NNOJRNfnUbaTLqh8BxsjzqHf+I+Xocke7AY+ReWNdzeIhRV82FLpg1z/LgxiM1uOzSZeRPyLbSd5EESiaUh6ekvtUOsvDbJHSPfjh8ona8rYkuPdas1fW2RhKu3/W9E8ftesbW6x7vR3YD6s4YPcY97eMcZ0SHU7qMJ0rvI2kZq4y5pO2ga3EOqPHSmPimwr+HpASF7MvKVuwWZ4NuLEdrxo2XJ5IkymPdGXP8R/vjFP/j6ETawGfCTk86TpLIITcHbri4ov7XMEkkKXGYzogsj6sjSeQFCVGkDpb0D+20OC/UnsyhwMQ1h4gnkU5SwEWJyri9pVT5YkGLvwPV1JbmmpmszaESdOQCSfD5L8ULXcYJ44XkfaSPFv9r8MfyQoEPu/muG0uaDPt/Fqoga9qwF8LhbrBcNH+prcVfgGvIiIcER4m+6rrrtaWqDg4zTW6xiOo/Ktjib8JNguVSkyMzCTtrRFM3HAeSrC1YszY10uIC0NUQajrLxWIJ/wqxkXT81lf4gJg4jmO5qo/+1/LTokWLFi1atGjRokWLFi1atGjRokWLFi1atGjRosXF8f93VC52YZ47IQAAAABJRU5ErkJggg==;" vertex="1" parent="nudH7UYVRRYWOdIdDBR1-1076">
          <mxGeometry x="911.7061904761905" y="573.23" width="100.69444444444444" height="28.76984126984127" as="geometry" />
        </mxCell>
        <mxCell id="nudH7UYVRRYWOdIdDBR1-1103" value="&lt;div&gt;&lt;font style=&quot;font-size: 18px;&quot;&gt;Gráficos, matriz de confusión y estética&lt;/font&gt;&lt;/div&gt;&lt;div&gt;&lt;br&gt;&lt;/div&gt;" style="text;html=1;whiteSpace=wrap;strokeColor=none;fillColor=none;align=center;verticalAlign=middle;rounded=0;" vertex="1" parent="nudH7UYVRRYWOdIdDBR1-1076">
          <mxGeometry x="897.05" y="705" width="130" height="41.83" as="geometry" />
        </mxCell>
        <mxCell id="oIgNikP3Zva1yL6d8-3H-2" value="" style="shape=flexArrow;endArrow=classic;html=1;rounded=0;exitX=0.962;exitY=0.489;exitDx=0;exitDy=0;exitPerimeter=0;fillColor=default;strokeColor=#4284F3;gradientColor=default;" edge="1" parent="nudH7UYVRRYWOdIdDBR1-1076">
          <mxGeometry width="50" height="50" relative="1" as="geometry">
            <mxPoint x="130.0045076923077" y="407.04999999999995" as="sourcePoint" />
            <mxPoint x="316.01" y="407.53" as="targetPoint" />
          </mxGeometry>
        </mxCell>
      </root>
    </mxGraphModel>
  </diagram>
</mxfile>
